<?xml version="1.0" encoding="UTF-8" standalone="no"?>
<svg
   xmlns:dc="http://purl.org/dc/elements/1.1/"
   xmlns:cc="http://creativecommons.org/ns#"
   xmlns:rdf="http://www.w3.org/1999/02/22-rdf-syntax-ns#"
   xmlns:svg="http://www.w3.org/2000/svg"
   xmlns="http://www.w3.org/2000/svg"
   xmlns:sodipodi="http://sodipodi.sourceforge.net/DTD/sodipodi-0.dtd"
   xmlns:inkscape="http://www.inkscape.org/namespaces/inkscape"
   width="192"
   height="192"
   id="svg3821"
   version="1.1"
   inkscape:version="0.92.4 (5da689c313, 2019-01-14)"
   sodipodi:docname="club-logo-192.svg">
  <metadata
     id="metadata4015">
    <rdf:RDF>
      <cc:Work
         rdf:about="">
        <dc:format>image/svg+xml</dc:format>
        <dc:type
           rdf:resource="http://purl.org/dc/dcmitype/StillImage" />
        <dc:title>background</dc:title>
      </cc:Work>
    </rdf:RDF>
  </metadata>
  <defs
     id="defs4013" />
  <sodipodi:namedview
     pagecolor="#ffffff"
     bordercolor="#666666"
     borderopacity="1"
     objecttolerance="10"
     gridtolerance="10"
     guidetolerance="10"
     inkscape:pageopacity="0"
     inkscape:pageshadow="2"
     inkscape:window-width="1680"
     inkscape:window-height="987"
     id="namedview4011"
     showgrid="false"
     inkscape:zoom="1.8856181"
     inkscape:cx="173.81731"
     inkscape:cy="161.44594"
     inkscape:window-x="1432"
     inkscape:window-y="-8"
     inkscape:window-maximized="1"
     inkscape:current-layer="svg3821" />
  <title
     id="title3823">background</title>
  <path
     d="M 37.970149,42.039323 H 153.79104 V 89.60112 H 37.922389 Z"
     id="path3825"
     inkscape:connector-curvature="0"
     style="fill:#ffffff;stroke-width:0.47757003" />
  <path
     d="M 0,11 H 192 V 181 H 0 Z"
     id="path3827"
     inkscape:connector-curvature="0"
     style="fill:none;stroke-width:0.47757003" />
  <title
     id="title3829">Layer 1</title>
  <path
     d="m 166.87761,149.33989 v -4.1545 l 9.64776,4.1545 z m -141.850745,-0.0955 h -9.552238 l 9.552238,-3.34269 z"
     fill-opacity="null"
     id="path3831"
     inkscape:connector-curvature="0"
     style="fill:#b7cbe4;stroke-width:0.47757003" />
  <g
     id="g3833"
     style="fill:#35cc01"
     transform="matrix(0.47761193,0,0,0.47752809,0.47761193,11.47753)">
    <path
       d="M 84,169 H 316 V 280.6 H 84 Z"
       id="path3835"
       inkscape:connector-curvature="0" />
    <path
       d="m 171,289.5 116.5,-67.2 30,52 -116.5,67.2 z"
       id="path3837"
       inkscape:connector-curvature="0" />
    <path
       d="m 114,222.3 117,67.5 -30,52 -117,-67.5 z"
       id="path3839"
       inkscape:connector-curvature="0" />
  </g>
  <path
     d="M 36.298507,139.45506 98.865671,175.55618 96,180.52247 33.432836,144.4691 Z"
     id="path3841"
     inkscape:connector-curvature="0"
     style="fill:#f9c50d;stroke-width:0.47757003" />
  <path
     d="m 93.134329,175.60393 62.423881,-36.05337 2.86567,4.9663 L 96,180.52247 Z"
     id="path3843"
     inkscape:connector-curvature="0"
     style="fill:#f9c50d;stroke-width:0.47757003" />
  <path
     fill-opacity="null"
     d="m 34.865671,11.47753 h 5.731345 v 124.63483 h -5.731345 z"
     id="path3845"
     inkscape:connector-curvature="0"
     style="fill:#f9c50d;stroke-width:0.47757003" />
  <path
     d="m 164.77612,142.79775 h 2.38806 v 17.19101 h -2.38806 z"
     id="path3847"
     inkscape:connector-curvature="0"
     style="fill:#863b35;stroke-width:0.47757003" />
  <path
     d="m 162.86567,140.41011 h 7.16418 v 1.43259 h -7.16418 z"
     id="path3849"
     inkscape:connector-curvature="0"
     style="fill:#c1c9de;stroke-width:0.47757003" />
  <ellipse
     ry="2.3876405"
     rx="4.7761192"
     cy="142.79773"
     cx="162.38809"
     fill-opacity="null"
     id="ellipse3851"
     style="fill:#863b35;stroke-width:0.47757003" />
  <path
     d="m 24.835821,142.79775 h 2.38806 v 17.19101 h -2.38806 z"
     id="path3853"
     inkscape:connector-curvature="0"
     style="fill:#863b35;stroke-width:0.47757003" />
  <path
     d="m 45.850747,138.5 h 4.77612 v 2.38764 h -4.77612 z"
     id="path3855"
     inkscape:connector-curvature="0"
     style="fill:#b7cbe4;stroke-width:0.47757003" />
  <ellipse
     ry="2.3876405"
     rx="4.7761192"
     cy="138.49997"
     cx="45.850739"
     fill-opacity="null"
     id="ellipse3857"
     style="fill:#863b35;stroke-width:0.47757003" />
  <path
     d="M 16.238806,138.5 H 46.80597 v 1.91011 H 16.238806 Z m 5.874627,1.91011 h 7.164179 v 1.43259 h -7.164179 z"
     id="path3859"
     inkscape:connector-curvature="0"
     style="fill:#c1c9de;stroke-width:0.47757003" />
  <ellipse
     ry="2.3876405"
     rx="4.7761192"
     cy="142.79773"
     cx="29.611935"
     fill-opacity="null"
     id="ellipse3861"
     style="fill:#863b35;stroke-width:0.47757003" />
  <path
     d="m 28.656716,140.88764 h 21.492536 v 3.82022 H 28.656716 Z"
     id="path3863"
     inkscape:connector-curvature="0"
     style="fill:#b7cbe4;stroke-width:0.47757003" />
  <ellipse
     ry="1.9101123"
     rx="2.8656716"
     cy="142.79773"
     cx="28.65671"
     fill-opacity="null"
     id="ellipse3865"
     style="fill:#b7cbe4;stroke-width:0.47757003" />
  <ellipse
     ry="0.95505613"
     rx="1.9104477"
     cy="139.45503"
     cx="46.805962"
     fill-opacity="null"
     id="ellipse3867"
     style="fill:#c1c9de;stroke-width:0.47757003" />
  <ellipse
     ry="2.3876405"
     rx="4.7761192"
     cy="159.98874"
     cx="162.38809"
     fill-opacity="null"
     id="ellipse3869"
     style="fill:#863b35;stroke-width:0.47757003" />
  <ellipse
     ry="2.3876405"
     rx="4.7761192"
     cy="159.98874"
     cx="29.611935"
     fill-opacity="null"
     id="ellipse3871"
     style="fill:#863b35;stroke-width:0.47757003" />
  <path
     d="M 34.865671,11.47753 H 157.13433 v 5.730335 H 34.865671 Z"
     id="path3873"
     inkscape:connector-curvature="0"
     style="fill:#f9c50d;stroke-width:0.47757003" />
  <path
     fill-opacity="null"
     d="m 151.40298,11.47753 h 5.73135 v 124.63483 h -5.73135 z"
     id="path3875"
     inkscape:connector-curvature="0"
     style="fill:#f9c50d;stroke-width:0.47757003" />
  <path
     fill-opacity="null"
     d="M 34.865671,39.174155 H 157.13433 v 5.730343 H 34.865671 Z"
     id="path3877"
     inkscape:connector-curvature="0"
     style="fill:#f9c50d;stroke-width:0.47757003" />
  <path
     fill-opacity="null"
     d="m 93.134329,39.174155 h 5.731342 V 92.17977 h -5.731342 z"
     id="path3879"
     inkscape:connector-curvature="0"
     style="fill:#f9c50d;stroke-width:0.47757003" />
  <path
     fill-opacity="null"
     d="M 34.865671,86.449438 H 157.13433 V 92.17977 H 34.865671 Z"
     id="path3881"
     inkscape:connector-curvature="0"
     style="fill:#f9c50d;stroke-width:0.47757003" />
  <path
     d="M 40.597016,17.207865 H 151.40298 v 21.96629 H 40.597016 Z"
     id="path3883"
     inkscape:connector-curvature="0"
     style="fill:#b7cde5;stroke-width:0.47757003" />
  <text
     stroke-opacity="null"
     x="110.79627"
     y="26.760756"
     font-size="14"
     font-weight="bold"
     id="text3885"
     style="font-weight:bold;font-size:6.6859808px;line-height:0%;font-family:Helvetica, Arial, sans-serif;fill:#7f1734;stroke:#f9c50d;stroke-width:0"
     transform="scale(1.0000878,0.9999122)">OVERS</text>
  <text
     stroke-opacity="null"
     x="105.06544"
     y="26.760756"
     font-size="18"
     font-weight="bold"
     id="text3887"
     style="font-weight:bold;font-size:8.59626007px;line-height:0%;font-family:Helvetica, Arial, sans-serif;fill:#7f1734;stroke:#f9c50d;stroke-width:0"
     transform="scale(1.0000878,0.9999122)">R</text>
  <path
     d="M 40.597016,74.988765 H 93.134329 V 86.449438 H 40.597016 Z"
     id="path3889"
     inkscape:connector-curvature="0"
     style="fill:#02019a;stroke-width:0.47757003" />
  <path
     d="m 62.089552,79.668538 h 3.67761 l 1.098511,-3.438203 1.098506,3.438203 h 3.62985 l -3.008955,2.148876 1.09851,3.438204 -2.865675,-2.148877 -2.865671,2.148877 1.050746,-3.438204 -2.865672,-2.148876 z"
     id="path3891"
     inkscape:connector-curvature="0"
     style="fill:#d41632;stroke-width:0.47757003" />
  <g
     stroke-opacity="null"
     font-weight="bold"
     id="g3893"
     style="font-weight:bold;font-family:Helvetica, Arial, sans-serif;fill:#7f1734;stroke:#f9c50d;stroke-width:0"
     transform="matrix(0.47761193,0,0,0.47752809,0.47761193,11.47753)">
    <text
       x="140.89999"
       y="32"
       font-size="14"
       id="text3895"
       style="font-size:14px;line-height:0%">RADFIELD</text>
    <text
       x="128.60001"
       y="32"
       font-size="18"
       id="text3897"
       style="font-size:18px;line-height:0%">B</text>
  </g>
  <g
     stroke-opacity="null"
     font-weight="bold"
     id="g3899"
     style="font-weight:bold;font-family:Helvetica, Arial, sans-serif;fill:#7f1734;stroke:#f9c50d;stroke-width:0"
     transform="matrix(0.47761193,0,0,0.47752809,0.47761193,11.47753)">
    <text
       x="223.89999"
       y="51"
       font-size="18"
       id="text3901"
       style="font-size:18px;line-height:0%">C</text>
    <text
       x="235.89999"
       y="51"
       font-size="14"
       id="text3903"
       style="font-size:14px;line-height:0%">LUB</text>
  </g>
  <g
     stroke-opacity="null"
     font-weight="bold"
     id="g3905"
     style="font-weight:bold;font-family:Helvetica, Arial, sans-serif;fill:#7f1734;stroke:#f9c50d;stroke-width:0"
     transform="matrix(0.47761193,0,0,0.47752809,0.47761193,11.47753)">
    <text
       x="140"
       y="51"
       font-size="18"
       id="text3907"
       style="font-size:18px;line-height:0%">F</text>
    <text
       x="149.5"
       y="51"
       font-size="14"
       id="text3909"
       style="font-size:14px;line-height:0%">OOTBALL</text>
  </g>
  <path
     d="m 79.283584,79.668538 h 3.67761 l 1.098506,-3.438203 1.09851,3.438203 h 3.62985 l -3.008955,2.101127 1.098506,3.4382 -2.865671,-2.101124 -2.865671,2.101124 1.050746,-3.4382 -2.865671,-2.101127 z M 44.895521,79.85955 h 3.677614 l 1.098506,-3.438203 1.098506,3.438203 h 3.629854 l -3.008955,2.148876 1.098507,3.438203 -2.865672,-2.244382 -2.865671,2.148877 1.050746,-3.485957 -2.865671,-2.148872 z"
     id="path3911"
     inkscape:connector-curvature="0"
     style="fill:#d41632;stroke-width:0.47757003" />
  <path
     d="m 109.85074,60.185394 c -0.19104,0.286514 -0.0955,1.24157 0.23881,2.10112 0.95522,2.721912 0,3.629215 -5.73134,5.109554 -2.62687,0.764044 -3.10448,1.432585 -2.00597,3.103932 0.47761,0.716295 0.95522,0.620785 3.82089,-0.811797 4.39403,-2.05337 5.63582,-2.05337 6.49553,0.191012 0.62089,1.910108 2.62686,2.387641 2.14925,0.620785 l -0.47761,-1.910112 c -0.23881,-0.668541 0.33432,-1.098314 2.05373,-1.57584 2.86567,-0.85955 10.50746,-0.85955 14.5194,0 2.67463,0.620785 3.15224,0.477526 3.62985,-0.286522 1.24179,-2.244382 6.35224,-0.477526 5.73135,1.910115 -0.47762,1.7191 0.95522,2.960674 2.38806,2.005618 0.62089,-0.334271 2.19701,-1.241574 3.72537,-1.910115 2.53134,-1.24157 2.62686,-1.289323 1.43283,-2.19663 -2.00597,-1.575837 -6.92537,-3.629211 -10.98507,-4.775279 -4.87164,-1.193821 -16.71642,-0.764044 -20.87164,0.716291 -3.00896,1.146068 -4.0597,0.95506 -4.29851,-0.955052 -0.2388,-1.432586 -1.33731,-2.14888 -1.91045,-1.193821 z"
     id="path3913"
     inkscape:connector-curvature="0"
     style="fill:#ed134f;stroke-width:0.47757003" />
  <path
     d="m 109.85074,60.185394 c -0.19104,0.286514 -0.0955,1.24157 0.23881,2.10112 0.95522,2.721912 0,3.629215 -5.73134,5.109554 -2.62687,0.764044 -3.10448,1.432585 -2.00597,3.103932 0.47761,0.716295 0.95522,0.620785 3.82089,-0.811797 4.39403,-2.05337 5.63582,-2.05337 6.49553,0.191012 0.62089,1.910108 2.62686,2.387641 2.14925,0.620785 l -0.47761,-1.910112 c -0.23881,-0.668541 0.33432,-1.098314 2.05373,-1.57584 2.86567,-0.85955 10.50746,-0.85955 14.5194,0 2.67463,0.620785 3.15224,0.477526 3.62985,-0.286522 1.24179,-2.244382 6.35224,-0.477526 5.73135,1.910115 -0.47762,1.7191 0.95522,2.960674 2.38806,2.005618 0.62089,-0.334271 2.19701,-1.241574 3.72537,-1.910115 2.53134,-1.24157 2.62686,-1.289323 1.43283,-2.19663 -2.00597,-1.575837 -6.92537,-3.629211 -10.98507,-4.775279 -4.87164,-1.193821 -16.71642,-0.764044 -20.87164,0.716291 -3.00896,1.146068 -4.0597,0.95506 -4.29851,-0.955052 -0.2388,-1.432586 -1.33731,-2.14888 -1.91045,-1.193821 z"
     id="path3915"
     inkscape:connector-curvature="0"
     style="fill:none;stroke:#9a2f4d;stroke-width:0.47757003" />
  <ellipse
     fill-opacity="null"
     cx="49.671646"
     cy="81.387611"
     id="ellipse3917"
     style="fill:#02019a;stroke-width:0.47757003"
     rx="0.95522386"
     ry="0.95505613" />
  <ellipse
     fill-opacity="null"
     cx="66.8657"
     cy="81.387611"
     id="ellipse3919"
     style="fill:#02019a;stroke-width:0.47757003"
     rx="0.95522386"
     ry="0.95505613" />
  <ellipse
     fill-opacity="null"
     cx="84.011963"
     cy="81.387611"
     id="ellipse3921"
     style="fill:#02019a;stroke-width:0.47757003"
     rx="0.95522386"
     ry="0.95505613" />
  <path
     d="m 109.85074,46.814606 c -0.19104,0.286518 -0.0955,1.241573 0.23881,2.101123 0.95522,2.721912 0,3.629215 -5.73134,5.109554 -2.62687,0.76404 -3.10448,1.432582 -2.00597,3.103932 0.47761,0.716287 0.95522,0.620785 3.82089,-0.811801 4.39403,-2.053366 5.63582,-2.053366 6.49553,0.191012 0.62089,1.910112 2.62686,2.387642 2.14925,0.620789 L 114.3403,55.2191 c -0.23881,-0.668538 0.33432,-1.098315 2.05373,-1.575841 2.86567,-0.859554 10.50746,-0.859554 14.5194,0 2.67463,0.620789 3.15224,0.477526 3.62985,-0.286518 1.24179,-2.244382 6.35224,-0.477526 5.73135,1.910115 -0.47762,1.719096 0.95522,2.96067 2.38806,2.005618 0.62089,-0.334271 2.19701,-1.241574 3.72537,-1.910115 2.53134,-1.241574 2.62686,-1.289323 1.43283,-2.19663 -2.00597,-1.575841 -6.92537,-3.629215 -10.98507,-4.775279 -4.87164,-1.193821 -16.71642,-0.764044 -20.87164,0.716291 -3.00896,1.146068 -4.0597,0.955056 -4.29851,-0.955056 -0.2388,-1.432585 -1.33731,-2.148876 -1.91045,-1.19382 z"
     id="path3923"
     inkscape:connector-curvature="0"
     style="fill:#ed134f;stroke-width:0.47757003" />
  <path
     d="m 109.85074,46.814606 c -0.19104,0.286518 -0.0955,1.241573 0.23881,2.101123 0.95522,2.721912 0,3.629215 -5.73134,5.109554 -2.62687,0.76404 -3.10448,1.432582 -2.00597,3.103932 0.47761,0.716287 0.95522,0.620785 3.82089,-0.811801 4.39403,-2.053366 5.63582,-2.053366 6.49553,0.191012 0.62089,1.910112 2.62686,2.387642 2.14925,0.620789 L 114.3403,55.2191 c -0.23881,-0.668538 0.33432,-1.098315 2.05373,-1.575841 2.86567,-0.859554 10.50746,-0.859554 14.5194,0 2.67463,0.620789 3.15224,0.477526 3.62985,-0.286518 1.24179,-2.244382 6.35224,-0.477526 5.73135,1.910115 -0.47762,1.719096 0.95522,2.96067 2.38806,2.005618 0.62089,-0.334271 2.19701,-1.241574 3.72537,-1.910115 2.53134,-1.241574 2.62686,-1.289323 1.43283,-2.19663 -2.00597,-1.575841 -6.92537,-3.629215 -10.98507,-4.775279 -4.87164,-1.193821 -16.71642,-0.764044 -20.87164,0.716291 -3.00896,1.146068 -4.0597,0.955056 -4.29851,-0.955056 -0.2388,-1.432585 -1.33731,-2.148876 -1.91045,-1.19382 z"
     id="path3925"
     inkscape:connector-curvature="0"
     style="fill:none;stroke:#9a2f4d;stroke-width:0.47757003" />
  <path
     d="m 109.85074,73.460677 c -0.19104,0.286514 -0.0955,1.24157 0.23881,2.10112 0.95522,2.721908 0,3.629215 -5.73134,5.10955 -2.62687,0.573035 -3.10448,1.241573 -2.00597,2.865167 0.47761,0.764048 0.95522,0.716295 3.82089,-0.716287 4.39403,-2.101127 5.63582,-2.101127 6.49553,0.143259 0.62089,1.814606 2.62686,2.292132 2.14925,0.477526 l -0.47761,-1.814606 c -0.23881,-0.716294 0.33432,-1.146071 2.05373,-1.623597 2.86567,-0.811797 10.50746,-0.811797 14.5194,0 2.67463,0.620785 3.15224,0.477526 3.62985,-0.286514 1.24179,-2.19663 6.35224,-0.47753 5.73135,1.910111 -0.47762,1.719096 0.95522,2.960674 2.38806,2.005618 0.62089,-0.334271 2.19701,-1.241574 3.72537,-1.910116 2.53134,-1.241573 2.62686,-1.289322 1.43283,-2.196625 -2.00597,-1.528092 -6.92537,-3.629215 -10.98507,-4.775283 -4.87164,-1.193821 -16.71642,-0.764048 -20.87164,0.716295 -3.00896,1.193817 -4.0597,0.955052 -4.29851,-0.95506 -0.2388,-1.432582 -1.33731,-2.101123 -1.91045,-1.146068 z"
     id="path3927"
     inkscape:connector-curvature="0"
     style="fill:#ed134f;stroke-width:0.47757003" />
  <path
     d="m 109.85074,73.460677 c -0.19104,0.286514 -0.0955,1.24157 0.23881,2.10112 0.95522,2.721908 0,3.629215 -5.73134,5.10955 -2.62687,0.573035 -3.10448,1.241573 -2.00597,2.865167 0.47761,0.764048 0.95522,0.716295 3.82089,-0.716287 4.39403,-2.101127 5.63582,-2.101127 6.49553,0.143259 0.62089,1.814606 2.62686,2.292132 2.14925,0.477526 l -0.47761,-1.814606 c -0.23881,-0.716294 0.33432,-1.146071 2.05373,-1.623597 2.86567,-0.811797 10.50746,-0.811797 14.5194,0 2.67463,0.620785 3.15224,0.477526 3.62985,-0.286514 1.24179,-2.19663 6.35224,-0.47753 5.73135,1.910111 -0.47762,1.719096 0.95522,2.960674 2.38806,2.005618 0.62089,-0.334271 2.19701,-1.241574 3.72537,-1.910116 2.53134,-1.241573 2.62686,-1.289322 1.43283,-2.196625 -2.00597,-1.528092 -6.92537,-3.629215 -10.98507,-4.775283 -4.87164,-1.193821 -16.71642,-0.764048 -20.87164,0.716295 -3.00896,1.193817 -4.0597,0.955052 -4.29851,-0.95506 -0.2388,-1.432582 -1.33731,-2.101123 -1.91045,-1.146068 z"
     id="path3929"
     inkscape:connector-curvature="0"
     style="fill:none;stroke:#9a2f4d;stroke-width:0.47757003" />
  <path
     d="M 26.173134,147.0955 H 165.63582 v 12.89326 H 26.173134 Z"
     id="path3931"
     inkscape:connector-curvature="0"
     style="fill:#b7cbe4;stroke-width:0.47757003" />
  <path
     d="M 25.791045,144.70786 H 166.20895 v 2.38764 H 25.791045 Z m 3.820895,15.2809 h 132.77612 v 2.38765 H 29.61194 Z m 116.0597,-19.57865 h 16.23881 v 0.47753 H 145.67164 Z M 9.5522389,136.11236 H 45.850747 V 138.5 H 9.5522389 Z m 136.5970111,0 h 36.29851 V 138.5 h -36.29851 z"
     id="path3933"
     inkscape:connector-curvature="0"
     style="fill:#863b35;stroke-width:0.47757003" />
  <path
     d="m 141.37313,138.5 h 4.77612 v 2.38764 h -4.77612 z"
     id="path3935"
     inkscape:connector-curvature="0"
     style="fill:#b7cbe4;stroke-width:0.47757003" />
  <ellipse
     ry="1.9101123"
     rx="2.8656716"
     cy="142.79773"
     cx="163.34331"
     fill-opacity="null"
     id="ellipse3937"
     style="fill:#b7cbe4;stroke-width:0.47757003" />
  <path
     d="m 141.85075,140.88764 h 21.49253 v 3.82022 h -21.49253 z"
     id="path3939"
     inkscape:connector-curvature="0"
     style="fill:#b7cbe4;stroke-width:0.47757003" />
  <path
     d="m 141.37313,138.5 h 0.47762 v 6.20786 h -0.47762 z m -91.223877,0 h 0.477615 v 6.20786 h -0.477615 z"
     id="path3941"
     inkscape:connector-curvature="0"
     style="fill:#863b35;stroke-width:0.47757003" />
  <ellipse
     ry="2.3876405"
     rx="4.7761192"
     cy="138.49997"
     cx="146.14928"
     fill-opacity="null"
     id="ellipse3943"
     style="fill:#863b35;stroke-width:0.47757003" />
  <path
     d="m 145.19403,138.5 h 30.56716 v 1.91011 h -30.56716 z"
     id="path3945"
     inkscape:connector-curvature="0"
     style="fill:#c1c9de;stroke-width:0.47757003" />
  <path
     d="M 9.5522389,149.00562 H 25.313433 v 2.38764 H 9.5522389 Z"
     id="path3947"
     inkscape:connector-curvature="0"
     style="fill:#863b35;stroke-width:0.47757003" />
  <ellipse
     ry="0.95505613"
     rx="1.9104477"
     cy="139.45503"
     cx="145.19406"
     fill-opacity="null"
     id="ellipse3949"
     style="fill:#c1c9de;stroke-width:0.47757003" />
  <path
     d="m 166.68657,149.00562 h 15.76119 v 2.38764 h -15.76119 z m -156.561197,-12.55899 15.904478,5.25281 -0.76418,2.29213 -15.9999993,-5.25281 z m 19.486567,3.96348 h 16.238808 v 0.47753 H 29.61194 Z"
     id="path3951"
     inkscape:connector-curvature="0"
     style="fill:#863b35;stroke-width:0.47757003" />
  <path
     d="m 10.889552,148.43259 14.997015,-5.01405 0.716418,2.29214 -14.997015,5.06179 z M 1.4328358,136.11236 h 6.4955226 l 5.2537316,3.82023 z"
     id="path3953"
     inkscape:connector-curvature="0"
     style="fill:#863b35;stroke-width:0.47757003" />
  <path
     d="m 7.8328357,136.11236 h 2.1970153 v 1.43258 H 7.8328357 Z m 5.5402993,11.46068 -5.2537321,3.82022 H 1.719403 l 11.749254,-3.82022 z"
     id="path3955"
     inkscape:connector-curvature="0"
     style="fill:#863b35;stroke-width:0.47757003" />
  <path
     d="m 7.6417909,149.96068 h 2.3880601 v 1.43258 H 7.6417909 Z m 171.2716391,-10.02809 5.25373,-3.82023 h 6.49553 z m 11.55821,11.46067 h -6.49552 l -5.25373,-3.82022 z"
     id="path3957"
     inkscape:connector-curvature="0"
     style="fill:#863b35;stroke-width:0.47757003" />
  <path
     d="m 165.92239,141.65169 15.95223,-5.25281 0.71642,2.38763 -15.95223,5.10956 z"
     id="path3959"
     inkscape:connector-curvature="0"
     style="fill:#863b35;stroke-width:0.47757003" />
  <path
     d="m 180.34627,150.62922 -14.99702,-4.87079 0.71642,-2.24438 14.99702,4.87078 z m 1.62388,-14.51686 h 2.19701 v 1.43258 h -2.19701 z m 0,13.84832 h 2.38806 v 1.43258 h -2.38806 z"
     id="path3961"
     inkscape:connector-curvature="0"
     style="fill:#863b35;stroke-width:0.47757003" />
  <text
     font-size="17"
     y="156.65979"
     x="50.861206"
     stroke-opacity="null"
     id="text3963"
     style="font-size:8.11869049px;line-height:0%;font-family:Georgia, Times, 'Times New Roman', serif;fill:#863b35;stroke:#000000;stroke-width:0"
     transform="scale(1.0000878,0.9999122)">DELAPSUS RESURGAM</text>
  <title
     id="title3965">Layer 2</title>
  <g
     stroke="null"
     id="g3967"
     transform="matrix(0.47761193,0,0,0.47752809,0.47761193,11.47753)">
    <path
       d="m 133.4,128.7 c -4.4,-1.3 -8,-4.2 -9.7,-8 -1.3,-3 -1.3,-3.5 0.3,-4.4 0.7,-0.3 1.7,-1 2,-1.3 0.7,-0.5 1,-0.3 4.4,2.3 3.3,2.6 7,4.8 8.2,4.8 1,0 5,-2 8.2,-4.6 l 3.6,-2.8 1.4,1 2.2,1.4 c 0.7,0.3 0.7,0.5 0.2,2 -1.4,4 -4.7,7.5 -9,9.2 -2.8,1.2 -8.7,1.4 -11.8,0.5 z m 9,-1.2 c 3.2,-0.8 5.6,-2 7.6,-4.4 1.2,-1.2 1.2,-1.2 0.2,-0.3 -3.6,3.2 -7.3,4.6 -11.6,4.6 -4.3,0 -8,-1.4 -11.6,-4.6 -1,-1 -1,-1 0.2,0.5 2,2.4 4.4,3.8 7.5,4.4 3.4,0.8 4.2,0.8 7.6,0 z m -6,-7 c -2.5,-1.2 -7.2,-4.4 -8.5,-6 -1.8,-2 -5.5,-14 -5.8,-18 0,-3 0,-3.3 0.5,-3.3 0.4,0 1,0.4 1.2,1 0.6,1.4 4.4,5.4 6.2,6.5 1.8,1.2 7,3 8.3,3 1.4,0 6.5,-1.8 8.3,-3 1.7,-1 5.4,-5 6.2,-6.6 0.3,-0.3 0.8,-0.7 1.2,-0.7 0.6,0 0.6,0.4 0.4,3.3 -0.2,4 -4,16 -5.5,18 -1.2,1.6 -6,4.8 -8.5,5.8 -2,1 -2,1 -4.2,0 z m 1,-15.8 c -0.3,-0.2 -1.4,-0.7 -2.6,-1 -4.2,-1.5 -9,-5 -11,-8.3 -0.4,-0.8 -1,-1.3 -1,-1.2 -0.4,0.3 1.5,3 3.2,4.7 2.4,2 4.7,3.4 8.2,5 3.5,1 3.7,1 3,0.6 z m 10.4,-3.2 c 3.3,-2 7.3,-6.6 6.6,-7.3 0,0 -0.6,0.4 -1,1.2 -2,3.2 -6.8,6.8 -11,8.2 -1.2,0.4 -2.3,1 -2.6,1 -0.7,1 6.3,-2 8,-3 z m -17,-2.6 c -2.3,-0.7 -2.8,-1 -4.8,-3 -2,-2.4 -2.2,-2.8 -2,-4 0.4,-2.4 2,-5 3.7,-7 2.2,-2.3 8,-5.3 9,-4.6 0.5,0.4 0.5,0.4 0.2,0 -0.6,-1 -0.5,-2.2 0,-3 0.3,-0.3 0.4,-0.7 0.3,-1 -0.6,-0.8 0.2,-2 1.2,-2 1,0 1.7,1.2 1.2,2 0,0.3 0,0.7 0.2,1 0.5,0.8 0.6,2 0.2,3 -0.3,0.4 -0.3,0.4 0.2,0 0.8,-0.7 6.8,2.3 9,4.6 1.8,2 3.3,4.7 3.6,7 0.3,1.3 0.2,1.7 -1.8,4 -2,2 -2.5,2.3 -5.2,3 -3.6,0.7 -11.5,0.7 -15,0 z m 9,-8.3 c 0.5,0 2.5,0.6 4.5,1 2,0.4 3.8,1 4,0.8 0.2,-0.3 -8.4,-2.5 -9.7,-2.5 -1.3,0 -10,2.3 -9.6,2.6 l 3.8,-0.7 4.7,-1.3 c 0.8,-0.2 1,0 1,2.7 V 96 l 0.2,-2.8 c 0,-2.7 0.2,-3 1,-2.7 z m -1,-8 c -0.3,-0.3 -0.3,0 -0.3,0.5 0,0.5 0,1 0.2,0.6 v -1.2 z m -1,-4.2 c 0,-0.3 -0.2,0 -0.2,0.5 0,0.5 0,1 0.2,0.6 v -1 z m 1.7,0 c 0,-0.3 -0.2,0 -0.2,0.5 0,0.5 0,1 0.2,0.6 v -1 z"
       id="path3969"
       inkscape:connector-curvature="0" />
    <path
       d="m 134.4,129 c -4.8,-1 -9.8,-5.2 -11,-9.5 -0.8,-2 -0.8,-2.2 0,-2.7 l 2,-1.4 1.4,-1 2.5,2 c 2.7,2.3 6.2,4.7 8,5.4 1,0.4 1.7,0.4 2.7,0 1.8,-1 6,-3.7 8.4,-5.7 l 2,-1.5 1.4,1 2,1.4 c 0.8,0.4 0.8,0.5 0,2.6 -2,7 -10.8,11.2 -19.4,9.4 z m 10.4,-2.2 c 1.4,-0.6 3,-1.7 4.5,-3 l 2,-2.2 -1.8,1.6 c -1,0.8 -3,2 -4.3,2.6 -2.2,1 -3,1.2 -6.6,1.2 -3.6,0 -4.4,0 -6.6,-1.2 -1.3,-0.6 -3.3,-1.8 -4.3,-2.7 l -2,-1.3 1.7,1.8 c 2,2 5,3.7 7.7,4.3 2.8,0.5 7,0 10,-1 z M 134,119 c -1.6,-1 -4,-2.5 -5,-3.6 -2,-2 -2.2,-2.3 -4.3,-8.8 -1.5,-5 -2.2,-7.7 -2.3,-10 -0.2,-3 -0.2,-3.4 0.4,-3.4 0.4,0 1,0.5 1.3,1.2 1.3,2 5.4,6 8,7.2 5.4,2.7 8,2.7 13.3,0 2.7,-1.2 6.8,-5 8,-7.2 0.2,-0.7 0.8,-1.2 1.2,-1.2 0.6,0 0.6,0.4 0.4,3.3 0,2.4 -1,5 -2.4,10 -2,6.6 -2.3,7 -4.2,9 -2.4,2.2 -8,5.4 -9.8,5.3 -0.6,0 -2.6,-0.8 -4.4,-1.7 z m 3.6,-14.3 c 0,-0.3 -0.4,-0.5 -0.8,-0.5 -1,0 -6,-2.3 -8,-3.8 -1.2,-0.7 -3,-2.5 -4,-4 -2,-2.6 -2.8,-3 -1.4,-0.5 2,3 6.3,6.2 11.2,8 3.2,1.2 3,1 3,0.6 z m 8,-2 c 3.3,-1.6 6.7,-4.5 8,-6.8 1.6,-2.7 0.8,-2.3 -1.2,0.4 -1,1.4 -2.8,3.2 -4,4 -2,1.4 -7,3.7 -8,3.7 -0.4,0 -0.8,0.3 -0.8,0.5 0,0.6 2.7,-0.2 6,-2 z m -12,-3.4 -3.2,-0.7 c -2.2,-0.4 -2.6,-0.7 -4.4,-2.8 -1.2,-1.3 -2,-2.8 -2,-3.3 0,-1.5 2.2,-6 4,-7.5 0.8,-1 3,-2.4 4.8,-3.3 3,-1.5 3.4,-1.6 3.8,-1 0.3,0.4 0.5,0.5 0.5,0.3 0,-0.3 0,-0.6 -0.2,-1 -0.2,0 0,-0.7 0.2,-1.5 0.3,-0.7 0.5,-1.6 0.3,-2.2 0,-0.5 0,-1 0.5,-1.5 1,-0.8 2,0 2,1.5 0,0.6 0,1.6 0.5,2.2 0.3,0.8 0.4,1.4 0,1.6 0,0.5 -0.3,0.8 -0.3,1 0,0.3 0.3,0 0.6,-0.2 0.4,-0.6 0.8,-0.5 3.8,1 1.8,1 4,2.4 5,3.3 1.6,1.7 4,6 4,7.6 0,0.5 -1,2 -2,3.3 -2,2 -2.5,2.3 -4.4,3 -2.2,0.3 -11.8,1 -13.4,0.4 z m 6.2,-8.3 c 1,0 5.7,1 9,2 0.8,0 0.8,0 0.3,-0.2 0,-0.2 -2.6,-1 -5.4,-1.7 l -5,-1 -5.2,1.3 c -3,0.8 -5.4,1.6 -5.6,1.7 h 0.5 c 2.3,-0.7 8.3,-2 9.2,-2 1,0 1,0.2 1,3 v 2.8 l 0.3,-3 c 0,-2.6 0.2,-2.8 1,-2.8 z M 139,82.2 v -0.8 c -0.3,1 -0.3,1 -0.6,0 -0.3,-0.7 -0.3,0.8 0,2.8 h 0.3 c 0,-0.3 0.3,-1 0.3,-2 z m -1.2,-3.4 c 0,-0.4 -0.2,-0.2 -0.2,0.5 0,0.7 0,1 0.2,0.8 0,0 0.2,-0.7 0,-1 z m 1.7,0 c 0,-0.4 -0.2,-0.2 -0.2,0.5 0,0.7 0,1 0.2,0.8 v -1 z"
       id="path3971"
       inkscape:connector-curvature="0" />
    <path
       d="m 134.4,129 c -4.8,-1 -9.8,-5.2 -11,-9.5 -0.8,-2 -0.8,-2.2 0,-2.7 l 2,-1.4 1.4,-1 2.5,2 c 2.7,2.3 6.2,4.7 8,5.4 1,0.4 1.7,0.4 2.7,0 1.8,-1 6,-3.7 8.4,-5.7 l 2,-1.5 1.4,1 2,1.4 c 0.8,0.4 0.8,0.5 0,2.6 -2,7 -10.8,11.2 -19.4,9.4 z m 10.4,-2.2 c 1.4,-0.6 3,-1.7 4.5,-3 l 2,-2.2 -1.8,1.6 c -1,0.8 -3,2 -4.3,2.6 -2.2,1 -3,1.2 -6.6,1.2 -3.6,0 -4.4,0 -6.6,-1.2 -1.3,-0.6 -3.3,-1.8 -4.3,-2.7 l -2,-1.3 1.7,1.8 c 2,2 5,3.7 7.7,4.3 2.8,0.5 7,0 10,-1 z M 134,119 c -1.6,-1 -4,-2.5 -5,-3.6 -2,-2 -2.2,-2.3 -4.3,-8.8 -1.5,-5 -2.2,-7.7 -2.3,-10 -0.2,-3 -0.2,-3.4 0.4,-3.4 0.4,0 1,0.5 1.3,1.2 1.3,2 5.4,6 8,7.2 5.4,2.7 8,2.7 13.3,0 2.7,-1.2 6.8,-5 8,-7.2 0.2,-0.7 0.8,-1.2 1.2,-1.2 0.6,0 0.6,0.4 0.4,3.3 0,2.4 -1,5 -2.4,10 -2,6.6 -2.3,7 -4.2,9 -2.4,2.2 -8,5.4 -9.8,5.3 -0.6,0 -2.6,-0.8 -4.4,-1.7 z m 3.6,-14.3 c 0,-0.3 -0.4,-0.5 -0.8,-0.5 -1,0 -6,-2.3 -8,-3.8 -1.2,-0.7 -3,-2.5 -4,-4 -2,-2.6 -2.8,-3 -1.4,-0.5 2,3 6.3,6.2 11.2,8 3.2,1.2 3,1 3,0.6 z m 8,-2 c 3.3,-1.6 6.7,-4.5 8,-6.8 1.6,-2.7 0.8,-2.3 -1.2,0.4 -1,1.4 -2.8,3.2 -4,4 -2,1.4 -7,3.7 -8,3.7 -0.4,0 -0.8,0.3 -0.8,0.5 0,0.6 2.7,-0.2 6,-2 z m -12,-3.4 -3.2,-0.7 c -2.2,-0.4 -2.6,-0.7 -4.4,-2.8 -1.2,-1.3 -2,-2.8 -2,-3.3 0,-1.5 2.2,-6 4,-7.5 0.8,-1 3,-2.4 4.8,-3.3 3,-1.5 3.4,-1.6 3.8,-1 0.3,0.4 0.5,0.5 0.5,0.3 0,-0.3 0,-0.6 -0.2,-1 -0.2,0 0,-0.7 0.2,-1.5 0.3,-0.7 0.5,-1.6 0.3,-2.2 0,-0.5 0,-1 0.5,-1.5 1,-0.8 2,0 2,1.5 0,0.6 0,1.6 0.5,2.2 0.3,0.8 0.4,1.4 0,1.6 0,0.5 -0.3,0.8 -0.3,1 0,0.3 0.3,0 0.6,-0.2 0.4,-0.6 0.8,-0.5 3.8,1 1.8,1 4,2.4 5,3.3 1.6,1.7 4,6 4,7.6 0,0.5 -1,2 -2,3.3 -2,2 -2.5,2.3 -4.4,3 -2.2,0.3 -11.8,1 -13.4,0.4 z m 6.2,-8.3 c 1,0 5.7,1 9,2 0.8,0 0.8,0 0.3,-0.2 0,-0.2 -2.6,-1 -5.4,-1.7 l -5,-1 -5.2,1.3 c -3,0.8 -5.4,1.6 -5.6,1.7 h 0.5 c 2.3,-0.7 8.3,-2 9.2,-2 1,0 1,0.2 1,3 v 2.8 l 0.3,-3 c 0,-2.6 0.2,-2.8 1,-2.8 z M 139,82.2 v -0.8 c -0.3,1 -0.3,1 -0.6,0 -0.3,-0.7 -0.3,0.8 0,2.8 h 0.3 c 0,-0.3 0.3,-1 0.3,-2 z m -1.2,-3.4 c 0,-0.4 -0.2,-0.2 -0.2,0.5 0,0.7 0,1 0.2,0.8 0,0 0.2,-0.7 0,-1 z m 1.7,0 c 0,-0.4 -0.2,-0.2 -0.2,0.5 0,0.7 0,1 0.2,0.8 v -1 z"
       id="path3973"
       inkscape:connector-curvature="0" />
    <path
       d="m 134.4,129 c -4.8,-1 -9.8,-5.2 -11,-9.5 -0.8,-2 -0.8,-2.2 0,-2.7 l 2,-1.4 1.4,-1 2.5,2 c 2.7,2.3 6.2,4.7 8,5.4 1,0.4 1.7,0.4 2.7,0 1.8,-1 6,-3.7 8.4,-5.7 l 2,-1.5 1.4,1 2,1.4 c 0.8,0.4 0.8,0.5 0,2.6 -2,7 -10.8,11.2 -19.4,9.4 z m 10.4,-2.2 c 1.4,-0.6 3,-1.7 4.5,-3 l 2,-2.2 -1.8,1.6 c -1,0.8 -3,2 -4.3,2.6 -2.2,1 -3,1.2 -6.6,1.2 -3.6,0 -4.4,0 -6.6,-1.2 -1.3,-0.6 -3.3,-1.8 -4.3,-2.7 l -2,-1.3 1.7,1.8 c 2,2 5,3.7 7.7,4.3 2.8,0.5 7,0 10,-1 z M 134,119 c -1.6,-1 -4,-2.5 -5,-3.6 -2,-2 -2.2,-2.3 -4.3,-8.8 -1.5,-5 -2.2,-7.7 -2.3,-10 -0.2,-3 -0.2,-3.4 0.4,-3.4 0.4,0 1,0.5 1.3,1.2 1.3,2 5.4,6 8,7.2 5.4,2.7 8,2.7 13.3,0 2.7,-1.2 6.8,-5 8,-7.2 0.2,-0.7 0.8,-1.2 1.2,-1.2 0.6,0 0.6,0.4 0.4,3.3 0,2.4 -1,5 -2.4,10 -2,6.6 -2.3,7 -4.2,9 -2.4,2.2 -8,5.4 -9.8,5.3 -0.6,0 -2.6,-0.8 -4.4,-1.7 z m 3.6,-14.3 c 0,-0.3 -0.4,-0.5 -0.8,-0.5 -1,0 -6,-2.3 -8,-3.8 -1.2,-0.7 -3,-2.5 -4,-4 -2,-2.6 -2.8,-3 -1.4,-0.5 2,3 6.3,6.2 11.2,8 3.2,1.2 3,1 3,0.6 z m 8,-2 c 3.3,-1.6 6.7,-4.5 8,-6.8 1.6,-2.7 0.8,-2.3 -1.2,0.4 -1,1.4 -2.8,3.2 -4,4 -2,1.4 -7,3.7 -8,3.7 -0.4,0 -0.8,0.3 -0.8,0.5 0,0.6 2.7,-0.2 6,-2 z m -12,-3.4 -3.2,-0.7 c -2.2,-0.4 -2.6,-0.7 -4.4,-2.8 -1.2,-1.3 -2,-2.8 -2,-3.3 0,-1.5 2.2,-6 4,-7.5 0.8,-1 3,-2.4 4.8,-3.3 3,-1.5 3.4,-1.6 3.8,-1 0.3,0.4 0.5,0.5 0.5,0.3 0,-0.3 0,-0.6 -0.2,-1 -0.2,0 0,-0.7 0.2,-1.5 0.3,-0.7 0.5,-1.6 0.3,-2.2 0,-0.5 0,-1 0.5,-1.5 1,-0.8 2,0 2,1.5 0,0.6 0,1.6 0.5,2.2 0.3,0.8 0.4,1.4 0,1.6 0,0.5 -0.3,0.8 -0.3,1 0,0.3 0.3,0 0.6,-0.2 0.4,-0.6 0.8,-0.5 3.8,1 1.8,1 4,2.4 5,3.3 1.6,1.7 4,6 4,7.6 0,0.5 -1,2 -2,3.3 -2,2 -2.5,2.3 -4.4,3 -2.2,0.3 -11.8,1 -13.4,0.4 z m 6.2,-8.3 c 1,0 5.7,1 9,2 0.8,0 0.8,0 0.3,-0.2 0,-0.2 -2.6,-1 -5.4,-1.7 l -5,-1 -5.2,1.3 c -3,0.8 -5.4,1.6 -5.6,1.7 h 0.5 c 2.3,-0.7 8.3,-2 9.2,-2 1,0 1,0.2 1,3 v 2.8 l 0.3,-3 c 0,-2.6 0.2,-2.8 1,-2.8 z M 139,82.2 v -0.8 c -0.3,1 -0.3,1 -0.6,0 -0.3,-0.7 -0.3,0.8 0,2.8 h 0.3 c 0,-0.3 0.3,-1 0.3,-2 z m -1.2,-3.4 c 0,-0.4 -0.2,-0.2 -0.2,0.5 0,0.7 0,1 0.2,0.8 0,0 0.2,-0.7 0,-1 z m 1.7,0 c 0,-0.4 -0.2,-0.2 -0.2,0.5 0,0.7 0,1 0.2,0.8 v -1 z"
       id="path3975"
       inkscape:connector-curvature="0" />
  </g>
  <g
     id="g3977"
     transform="matrix(0.47761193,0,0,0.47752809,0.47761193,11.47753)">
    <title
       id="title3979">Layer 3</title>
    <g
       stroke="null"
       id="g3981">
      <path
         d="m 196.6,255.2 c -1.7,-2 -4.7,-8 -7.6,-15.2 -0.2,-0.3 0.8,0.5 2,1.8 1.2,1.3 2.6,2.3 2.7,2.3 0.4,0 -3,-8.7 -4,-10 -1.6,-1.7 -0.8,-1.7 1.2,0 1,1.3 2,2 2,2 0.5,-0.4 -2.5,-8 -3.4,-9.3 -1.7,-2 -0.7,-1.8 1.7,0.4 1.5,1.4 2.6,2.3 2.6,2 l -2,-5 -2.6,-5.6 c 0,-0.4 0.7,0 1.8,1 1,1 2.2,1.8 2.4,1.8 0.4,0 -2.6,-7.4 -3.8,-9.4 -1.4,-2 -0.6,-2.3 1,-0.4 0.5,0.7 1.5,1.5 2,2 1,0.4 1,0.2 -0.2,-2.8 -0.6,-1.8 -1.6,-4.2 -2.2,-5.4 -0.7,-1 -1,-2.4 -1,-2.8 0,-0.4 0,-0.2 0.4,0.3 0.5,1 5.7,5.2 5.7,4.7 l -1,-2.6 c 0,0 -1.3,-3.7 -1.3,-5.3 0,-1.6 -0.2,-4 -0.5,-5.7 -0.3,-1.7 -0.4,-3 -0.2,-3 0.2,0 1,1.8 2,4 l 1.6,3.8 1,-2.8 2,-8 1,-5.3 v 3.2 c 0.7,5 2.8,12.2 3.5,11.5 l 2,-3.6 1.2,-3 -0.3,4.3 c -0.3,5.5 -1.2,10 -2.2,11 -0.4,0.2 -0.8,1 -0.8,1 0,0.7 2.7,-1 5,-3.5 1.8,-1.8 2.6,-1.7 1,0.2 -1,1.4 -4.3,10 -3.8,10 0.2,0 1.3,-0.8 2.3,-2 1,-1 2,-1.7 2,-1.7 l -1.8,3.8 c -3.3,6.5 -3.3,8.4 0,5 0.8,-1 1.4,-1.5 1.3,-1 -0.3,0.2 -1,2.2 -2,4.2 -3,7.4 -3,8.2 0.5,4.3 1,-1.2 2,-2 2,-2 0,0 -1,2.7 -2.5,5.7 -1.4,3 -2.5,5.7 -2.3,6 0,0 1.2,-0.6 2.3,-1.5 1.1,-0.9 2,-1.4 2,-1 0,0.3 -0.3,0.6 -0.5,0.6 -0.3,0 -1.3,2 -2,4.4 -1,2.3 -2,4.6 -2.3,5 -0.8,1.2 0.2,0.7 3,-1.5 1,-1 1.8,-1.3 1.8,-1 0,0.3 -0.3,1 -0.6,1 -0.8,0.5 -3.5,7 -3.5,8 0,0.3 -1,2 -2,4 -3,5 -4.3,5 -7.4,1.3 z"
         id="path3983"
         inkscape:connector-curvature="0"
         style="fill:#fcf646" />
      <path
         d="m 196.6,255.2 c -1.7,-2 -4.7,-8 -7.6,-15.2 -0.2,-0.3 0.8,0.5 2,1.8 1.2,1.3 2.6,2.3 2.7,2.3 0.4,0 -3,-8.7 -4,-10 -1.6,-1.7 -0.8,-1.7 1.2,0 1,1.3 2,2 2,2 0.5,-0.4 -2.5,-8 -3.4,-9.3 -1.7,-2 -0.7,-1.8 1.7,0.4 1.5,1.4 2.6,2.3 2.6,2 l -2,-5 -2.6,-5.6 c 0,-0.4 0.7,0 1.8,1 1,1 2.2,1.8 2.4,1.8 0.4,0 -2.6,-7.4 -3.8,-9.4 -1.4,-2 -0.6,-2.3 1,-0.4 0.5,0.7 1.5,1.5 2,2 1,0.4 1,0.2 -0.2,-2.8 -0.6,-1.8 -1.6,-4.2 -2.2,-5.4 -0.7,-1 -1,-2.4 -1,-2.8 0,-0.4 0,-0.2 0.4,0.3 0.5,1 5.7,5.2 5.7,4.7 l -1,-2.6 c 0,0 -1.3,-3.7 -1.3,-5.3 0,-1.6 -0.2,-4 -0.5,-5.7 -0.3,-1.7 -0.4,-3 -0.2,-3 0.2,0 1,1.8 2,4 l 1.6,3.8 1,-2.8 2,-8 1,-5.3 v 3.2 c 0.7,5 2.8,12.2 3.5,11.5 l 2,-3.6 1.2,-3 -0.3,4.3 c -0.3,5.5 -1.2,10 -2.2,11 -0.4,0.2 -0.8,1 -0.8,1 0,0.7 2.7,-1 5,-3.5 1.8,-1.8 2.6,-1.7 1,0.2 -1,1.4 -4.3,10 -3.8,10 0.2,0 1.3,-0.8 2.3,-2 1,-1 2,-1.7 2,-1.7 l -1.8,3.8 c -3.3,6.5 -3.3,8.4 0,5 0.8,-1 1.4,-1.5 1.3,-1 -0.3,0.2 -1,2.2 -2,4.2 -3,7.4 -3,8.2 0.5,4.3 1,-1.2 2,-2 2,-2 0,0 -1,2.7 -2.5,5.7 -1.4,3 -2.5,5.7 -2.3,6 0,0 1.2,-0.6 2.3,-1.5 1.1,-0.9 2,-1.4 2,-1 0,0.3 -0.3,0.6 -0.5,0.6 -0.3,0 -1.3,2 -2,4.4 -1,2.3 -2,4.6 -2.3,5 -0.8,1.2 0.2,0.7 3,-1.5 1,-1 1.8,-1.3 1.8,-1 0,0.3 -0.3,1 -0.6,1 -0.8,0.5 -3.5,7 -3.5,8 0,0.3 -1,2 -2,4 -3,5 -4.3,5 -7.4,1.3 z m 2,-0.7 -0.3,-3.4 c -0.4,-1.6 -3,-5 -5,-6 l -1.5,-1 1.5,4 c 1,2 2.5,5 3.6,6.2 l 2,2.5 -0.4,-2 z m 6.8,-6 c 1,-2.2 1.6,-4.2 1.4,-4.3 -0.4,-0.5 -4.5,3.3 -5.5,5.2 -0.5,1 -1,3 -1.2,4.4 v 2.7 l 2,-2 c 1,-1.2 2.5,-4 3.5,-6 z M 199,246 c -0.7,-4 -1.8,-6 -4.7,-8 -3,-2.3 -2.8,-2.3 -0.5,3.3 1,2.2 4.7,7.7 5.3,7.8 0.3,0 0,-1.2 0,-3 z m 6.4,-5.2 c 1,-2 1.5,-4 1.4,-4 0,-0.2 -1.2,0.5 -2.5,1.5 -2.6,2 -3.7,4.2 -4.2,8 v 2.7 l 2,-2.2 c 1,-1.2 2.6,-4 3.5,-6 z m -6.6,-2.2 c -0.5,-4 -1.6,-6 -4.5,-8.2 l -2.5,-2 1.5,4 c 1,3 4.6,8.7 5.7,9 z m 6.6,-4.6 1,-3 1.2,-2.6 -1.5,1 c -3.7,2.8 -5.6,6 -5.6,9.7 v 2 l 2.5,-3 c 1.4,-2 2.5,-3.6 2.5,-4 z m -6.8,-4.6 c -0.5,-2.7 -1,-3.8 -3,-5.5 -1.3,-1.4 -2.6,-2.4 -2.8,-2.4 -0.5,0 0.7,4 1.8,6.3 1,2 4.2,6 4.5,5.2 0.3,-0.3 0,-2 -0.3,-4 z m 7,-4.2 c 1,-2 1.5,-3.7 1.5,-4 l -2,1.5 c -2.6,2 -4.6,6 -4.6,8.8 v 2 l 2,-2.4 c 1,-1 2.6,-4 3.4,-5.7 z m -6.8,-2.4 c -0.3,-2.8 -0.7,-3.7 -3,-6 -1.2,-1.4 -2.6,-2.6 -3,-2.6 -1.2,0 2.4,8.4 4,9.3 0.6,0.4 1.3,1.3 1.5,2 0.7,2.2 1,0.7 0.5,-2.7 z m 7,-4.7 1.5,-3.6 c 1,-1.3 -2.8,1.2 -4.5,3 -1.4,1.4 -2.5,4.8 -2.5,7.3 0,1.2 0.2,1 2.2,-1 1.2,-1.5 2.7,-4 3.2,-5.5 z m -7,-2.6 c -0.3,-3.6 -2,-6.4 -4.7,-8 l -1.6,-1.2 0.8,2.6 1.6,4 c 0.7,1.3 4,5.8 4.5,6 0.2,0 0,-1.5 0,-3.3 z m 7.2,-5.4 c 1,-2.2 1.5,-4 1.4,-4 -0.2,0 -1.3,1 -2.6,1.8 -2.7,2 -3.8,4 -4.3,8 l -0.4,3 2.4,-2.6 c 1,-1.4 2.8,-4.3 3.7,-6.3 z m -8,-8 c -0.6,-1.3 -1.8,-3.2 -2.6,-4.2 l -1.5,-2 0.2,3.5 c 0.2,2 1,4.5 1.7,6 l 2,4.2 c 0.7,1.7 1,1.7 1,-1.7 0,-2.5 0,-4 -1,-5.8 z m 6.2,2 c 0.7,-1.4 1.2,-3.6 1.2,-5 v -2.5 l -2,2.5 c -2.2,2.8 -3,5.6 -3,9.6 v 2.8 l 1.3,-2.5 2.5,-5 z m -2.3,-7.4 -1.3,-5 -0.7,-2.8 -1,3.2 c -1.6,5.8 -1.7,6.5 -0.4,9 l 1.3,2 1,-2.2 c 1,-1.8 1.2,-2.7 1,-4.2 z"
         id="path3985"
         inkscape:connector-curvature="0" />
    </g>
    <g
       stroke="null"
       id="g3987">
      <path
         d="m 235,255.2 c -1.8,-2 -4.8,-8 -7.7,-15.2 -0.2,-0.3 0.8,0.5 2,1.8 1.2,1.3 2.6,2.3 2.7,2.3 0.5,0 -3,-8.7 -4,-10 -1.6,-1.7 -0.8,-1.7 1.3,0 1,1.3 2,2 2.3,2 0.3,-0.4 -2.7,-8 -3.6,-9.3 -1.6,-2 -0.7,-1.8 1.8,0.4 1.4,1.4 2.5,2.3 2.5,2 l -2,-5 -2.4,-5.6 c -0.4,-0.4 0.4,0 1.5,1 1.2,1 2.2,1.8 2.4,1.8 0.4,0 -2.6,-7.4 -4,-9.4 -1,-2 -0.4,-2.3 1,-0.4 l 2,2 c 1,0.4 1,0.2 0,-2.8 l -2,-5.6 c -0.7,-1 -1.2,-2.4 -1.2,-2.8 0,-0.4 0.3,-0.2 0.6,0.3 0.5,1 5.7,5.2 5.7,4.7 l -1,-2.6 c 0,0 -1,-3.7 -1.2,-5.3 l -0.4,-5.7 c 0,0 -0.3,-3 0,-3 0,0 1,1.8 1.8,4 l 1.7,3.8 1,-2.8 1.6,-8 1,-5.3 0.4,3.2 c 0.5,5 2.6,12.2 3.3,11.5 0.4,-0.4 1.3,-2 2,-3.6 l 1.3,-3 -0.2,4.3 c -0.3,5.6 -1.2,10 -2.2,11 -0.4,0.3 -0.8,1 -0.8,1.2 0,0.5 2.7,-1.3 5,-3.7 2,-1.8 2.6,-1.7 1,0.2 -1,1.4 -4.3,10 -3.7,10 0.2,0 1.3,-0.8 2.3,-2 1,-1 2,-1.7 2,-1.7 0.2,0 -0.6,1.6 -1.7,3.8 -3.3,6.5 -3.3,8.4 0,5 0.8,-1 1.4,-1.5 1.2,-1 l -1.8,4.2 c -3.2,7.4 -3,8.2 0.5,4.3 l 2,-2 -2.7,5.8 c -1.4,3 -2.4,5.7 -2.3,6 0.2,0 1.2,-0.6 2.3,-1.5 1.1,-0.9 2,-1.4 2,-1 0,0.3 -0.2,0.6 -0.5,0.6 -0.3,0 -1.2,2 -2,4.2 -1,2.3 -2,4.6 -2.3,5 -0.8,1.2 0.2,0.7 3,-1.5 1,-0.8 1.8,-1.2 1.8,-1 0,0.4 -0.3,1 -0.6,1 -0.7,0.6 -3.5,7 -3.5,8 0,0.4 -1,2.2 -2,4 -3,5 -4.3,5 -7.4,1.4 z"
         id="path3989"
         inkscape:connector-curvature="0"
         style="fill:#fcf646" />
      <path
         d="m 235,255.2 c -1.8,-2 -4.8,-8 -7.7,-15.2 -0.2,-0.3 0.8,0.5 2,1.8 1.2,1.3 2.6,2.3 2.7,2.3 0.5,0 -3,-8.7 -4,-10 -1.6,-1.7 -0.8,-1.7 1.3,0 1,1.3 2,2 2.3,2 0.3,-0.4 -2.7,-8 -3.6,-9.3 -1.6,-2 -0.7,-1.8 1.8,0.4 1.4,1.4 2.5,2.3 2.5,2 l -2,-5 -2.4,-5.6 c -0.4,-0.4 0.4,0 1.5,1 1.2,1 2.2,1.8 2.4,1.8 0.4,0 -2.6,-7.4 -4,-9.4 -1,-2 -0.4,-2.3 1,-0.4 l 2,2 c 1,0.4 1,0.2 0,-2.8 l -2,-5.6 c -0.7,-1 -1.2,-2.4 -1.2,-2.8 0,-0.4 0.3,-0.2 0.6,0.3 0.5,1 5.7,5.2 5.7,4.7 l -1,-2.6 c 0,0 -1,-3.7 -1.2,-5.3 l -0.4,-5.7 c 0,0 -0.3,-3 0,-3 0,0 1,1.8 1.8,4 l 1.7,3.8 1,-2.8 1.6,-8 1,-5.3 0.4,3.2 c 0.5,5 2.6,12.2 3.3,11.5 0.4,-0.4 1.3,-2 2,-3.6 l 1.3,-3 -0.2,4.3 c -0.3,5.6 -1.2,10 -2.2,11 -0.4,0.3 -0.8,1 -0.8,1.2 0,0.5 2.7,-1.3 5,-3.7 2,-1.8 2.6,-1.7 1,0.2 -1,1.4 -4.3,10 -3.7,10 0.2,0 1.3,-0.8 2.3,-2 1,-1 2,-1.7 2,-1.7 0.2,0 -0.6,1.6 -1.7,3.8 -3.3,6.5 -3.3,8.4 0,5 0.8,-1 1.4,-1.5 1.2,-1 l -1.8,4.2 c -3.2,7.4 -3,8.2 0.5,4.3 l 2,-2 -2.7,5.8 c -1.4,3 -2.4,5.7 -2.3,6 0.2,0 1.2,-0.6 2.3,-1.5 1.1,-0.9 2,-1.4 2,-1 0,0.3 -0.2,0.6 -0.5,0.6 -0.3,0 -1.2,2 -2,4.2 -1,2.3 -2,4.6 -2.3,5 -0.8,1.2 0.2,0.7 3,-1.5 1,-0.8 1.8,-1.2 1.8,-1 0,0.4 -0.3,1 -0.6,1 -0.7,0.6 -3.5,7 -3.5,8 0,0.4 -1,2.2 -2,4 -3,5 -4.3,5 -7.4,1.4 z m 2,-0.7 c 0,-1 -0.3,-2.6 -0.4,-3.4 -0.4,-1.6 -3,-5 -5,-6 l -1.5,-1 1.8,4 c 0.8,2 2.4,5 3.5,6.2 l 2,2.5 v -2 z m 6.7,-6 c 1,-2.2 1.6,-4.2 1.5,-4.3 -0.5,-0.5 -4.5,3.3 -5.5,5.2 -0.5,1 -1,3 -1.2,4.4 l -0.3,2.7 2,-2 c 1,-1.2 2.6,-4 3.5,-6 z m -6.5,-2.4 c -0.6,-4 -1.6,-6 -4.6,-8 -2.8,-2.2 -2.8,-2.2 -0.4,3.4 1,2.2 4.6,7.7 5.2,7.8 l -0.2,-3 z m 6.5,-5 c 1,-2 1.6,-4 1.4,-4 0,-0.3 -1,0.4 -2.2,1.4 -2.6,2 -3.8,4.2 -4.2,8 l -0.3,2.7 2,-2 c 1,-1.3 2.7,-4 3.5,-6 z m -6.6,-2.3 c -0.3,-4 -1.3,-6 -4.2,-8.2 l -2.6,-2 1.6,4 c 1,3 4.7,8.7 5.7,9 l -0.2,-2.8 z m 6.8,-4.6 c 0,-0.2 0.5,-1.6 1.2,-3 l 1,-2.5 -1.6,1 c -4,2.8 -5.8,6 -5.8,9.7 v 2 l 2.6,-3.2 c 1.4,-1.8 2.5,-3.5 2.5,-3.8 z m -6.8,-4.5 c -0.6,-2.7 -1.2,-3.8 -3,-5.5 -1.4,-1.3 -2.6,-2.3 -3,-2.3 -0.3,0 0.8,4 2,6.3 1,2.2 4.2,6 4.4,5.3 0,-0.3 0,-2 -0.5,-4 z m 7,-4.2 c 0.8,-2 1.5,-3.7 1.5,-4 l -2.3,1.5 c -2.6,2 -4.6,6 -4.6,8.8 v 2 l 2,-2.4 c 1,-1.2 2.6,-4 3.4,-5.8 z m -6.8,-2.4 c -0.4,-3 -0.8,-3.8 -3,-6 -1.3,-1.5 -2.7,-2.7 -3,-2.7 -1.2,0 2.3,8.4 4,9.3 0.6,0.4 1.2,1.3 1.4,2 0.7,2.2 1,0.7 0.6,-2.7 z m 6.8,-4.8 c 0.6,-1.5 1.3,-3.2 1.7,-3.7 1,-1.3 -3,1.2 -4.6,3 -1,1.4 -2.3,4.8 -2.3,7.3 0,1.2 0.3,1 2.2,-1 1,-1.5 2.6,-4 3,-5.5 z m -6.8,-2.7 c -0.4,-3.6 -2,-6.4 -4.8,-8 l -1.7,-1.2 0.8,2.6 c 0.4,1.2 1,3 1.5,4 0.6,1.2 4,5.7 4.4,6 z m 7.2,-5.4 c 0.8,-2 1.5,-4 1.3,-4 l -2.7,2 c -2.6,2 -3.7,4 -4.2,8 l -0.4,3 2.2,-2.6 c 1.2,-1.4 3,-4.3 3.8,-6.3 z m -8,-8 -2.7,-4 -1.5,-2 0.4,3.4 c 0.2,2 1,4.5 1.8,6 0.7,1.3 1.7,3.2 2,4.2 0.8,1.7 0.8,1.7 1,-1.7 0,-2.6 -0.2,-4 -1,-6 z m 6.2,2 c 0.6,-1.3 1,-3.5 1,-5 v -2.4 l -2,2.5 c -2,3 -3,5.7 -3,9.7 v 2.8 l 1.4,-2.5 2.6,-5 z m -2.3,-7.3 -1.2,-5 -0.5,-2.8 -1,3 c -1.7,6 -1.7,6.6 -0.4,9 l 1.3,2 1.3,-2 c 1,-2 1,-2.8 0.8,-4.3 z"
         id="path3991"
         inkscape:connector-curvature="0" />
    </g>
    <g
       stroke="null"
       id="g3993">
      <path
         d="m 273.2,255.2 c -1.6,-2 -4.7,-8 -7.6,-15.2 0,-0.3 0.8,0.5 2,1.8 1.2,1.3 2.6,2.3 2.8,2.3 0.4,0 -3,-8.7 -4,-10 -1.6,-1.7 -0.8,-1.7 1.2,0 1,1.3 2.2,2 2.3,2 0,-0.4 -2.8,-8 -3.7,-9.3 -1.7,-2 -0.8,-1.8 1.7,0.4 1.5,1.4 2.7,2.3 2.7,2 l -2,-5 -2.5,-5.6 c 0,-0.4 0.7,0 1.8,1 1,1 2.2,1.8 2.3,1.8 0.5,0 -2.5,-7.4 -3.8,-9.4 -1.2,-2 -0.5,-2.3 1,-0.4 l 2.2,2 c 1,0.4 1,0.2 -0.2,-2.8 -0.6,-1.8 -1.7,-4.2 -2.3,-5.4 -0.6,-1 -1,-2.4 -1,-2.8 0,-0.4 0.2,-0.2 0.5,0.3 0.5,1 5.7,5.2 5.7,4.7 l -1,-2.6 c 0,0 -1.3,-3.7 -1.3,-5.3 0,-1.6 0,-4 -0.3,-5.7 -0.3,-1.7 -0.3,-3 0,-3 l 2,4 1.5,3.8 1,-2.8 1.8,-8 1,-5.3 0.3,3.2 c 0.6,5 2.8,12.2 3.5,11.5 l 2,-3.6 1.2,-3 -0.3,4.3 c -0.3,5.5 -1.2,10 -2.2,11 -0.5,0.2 -0.8,1 -0.8,1 0,0.7 2.7,-1 5,-3.5 1.8,-1.8 2.6,-1.7 1,0.2 -1,1.4 -4.4,10 -3.8,10 0.2,0 1.2,-0.8 2.2,-2 1,-1 2,-1.7 2,-1.7 l -1.7,3.8 c -3.3,6.5 -3.3,8.4 0,5 0.8,-1 1.4,-1.5 1.3,-1 l -2,4.2 c -3,7.4 -3,8.2 0.6,4.3 1,-1.2 2,-2 2,-2 0,0 -1,2.7 -2.5,5.7 -1.5,3 -2.6,5.7 -2.4,6 l 2.2,-1.5 c 0,0 2,-1.4 2,-1 0,0.3 -0.2,0.6 -0.5,0.6 l -2,4.4 c -0.8,2.3 -1.8,4.6 -2.2,5 -0.6,1.2 0.3,0.7 3,-1.5 1,-1 2,-1.3 2,-1 0,0.3 -0.3,1 -0.7,1 -0.6,0.5 -3.4,7 -3.4,8 0,0.3 -1,2 -2,4 -3,5 -4.4,5 -7.5,1.3 z"
         id="path3995"
         inkscape:connector-curvature="0"
         style="fill:#fcf646" />
      <path
         d="m 273.2,255.2 c -1.6,-2 -4.7,-8 -7.6,-15.2 0,-0.3 0.8,0.5 2,1.8 1.2,1.3 2.6,2.3 2.8,2.3 0.4,0 -3,-8.7 -4,-10 -1.6,-1.7 -0.8,-1.7 1.2,0 1,1.3 2.2,2 2.3,2 0,-0.4 -2.8,-8 -3.7,-9.3 -1.7,-2 -0.8,-1.8 1.7,0.4 1.5,1.4 2.7,2.3 2.7,2 l -2,-5 -2.5,-5.6 c 0,-0.4 0.7,0 1.8,1 1,1 2.2,1.8 2.3,1.8 0.5,0 -2.5,-7.4 -3.8,-9.4 -1.2,-2 -0.5,-2.3 1,-0.4 l 2.2,2 c 1,0.4 1,0.2 -0.2,-2.8 -0.6,-1.8 -1.7,-4.2 -2.3,-5.4 -0.6,-1 -1,-2.4 -1,-2.8 0,-0.4 0.2,-0.2 0.5,0.3 0.5,1 5.7,5.2 5.7,4.7 l -1,-2.6 c 0,0 -1.3,-3.7 -1.3,-5.3 0,-1.6 0,-4 -0.3,-5.7 -0.3,-1.7 -0.3,-3 0,-3 l 2,4 1.5,3.8 1,-2.8 1.8,-8 1,-5.3 0.3,3.2 c 0.6,5 2.8,12.2 3.5,11.5 l 2,-3.6 1.2,-3 -0.3,4.3 c -0.3,5.5 -1.2,10 -2.2,11 -0.5,0.2 -0.8,1 -0.8,1 0,0.7 2.7,-1 5,-3.5 1.8,-1.8 2.6,-1.7 1,0.2 -1,1.4 -4.4,10 -3.8,10 0.2,0 1.2,-0.8 2.2,-2 1,-1 2,-1.7 2,-1.7 l -1.7,3.8 c -3.3,6.5 -3.3,8.4 0,5 0.8,-1 1.4,-1.5 1.3,-1 l -2,4.2 c -3,7.4 -3,8.2 0.6,4.3 1,-1.2 2,-2 2,-2 0,0 -1,2.7 -2.5,5.7 -1.5,3 -2.6,5.7 -2.4,6 l 2.2,-1.5 c 0,0 2,-1.4 2,-1 0,0.3 -0.2,0.6 -0.5,0.6 l -2,4.4 c -0.8,2.3 -1.8,4.6 -2.2,5 -0.6,1.2 0.3,0.7 3,-1.5 1,-1 2,-1.3 2,-1 0,0.3 -0.3,1 -0.7,1 -0.6,0.5 -3.4,7 -3.4,8 0,0.3 -1,2 -2,4 -3,5 -4.4,5 -7.5,1.3 z m 2.2,-0.7 c 0,-1 -0.3,-2.6 -0.5,-3.4 -0.5,-1.6 -3,-5 -5,-6 l -1.6,-1 1.5,4 c 0.7,2 2.3,5 3.4,6.2 l 2,2.5 v -2 z m 6.6,-6 c 1,-2.2 1.6,-4.2 1.5,-4.3 -0.5,-0.5 -4.5,3.3 -5.5,5.2 -0.5,1 -1,3 -1.2,4.4 l -0.3,2.7 2,-2 c 1,-1.2 2.6,-4 3.5,-6 z m -6.5,-2.4 c -0.5,-4 -1.6,-6 -4.5,-8 -3,-2.2 -3,-2.2 -0.5,3.4 1,2.2 4.6,7.7 5.2,7.8 l -0.2,-3 z m 6.6,-5 c 1,-2 1.7,-4 1.6,-4 0,-0.3 -1.2,0.4 -2.5,1.4 -2.5,2 -3.7,4.2 -4,8 l -0.4,2.7 2,-2 c 1,-1.3 2.7,-4 3.6,-6 z m -6.5,-2.3 c -0.5,-4 -1.5,-6 -4.4,-8.2 l -2.4,-2 1.4,4 c 1,3 4.6,8.7 5.7,9 0,0.2 0,-1 -0.3,-2.8 z m 6.7,-4.6 1.2,-3 1,-2.5 -1.4,1 c -4,2.8 -5.8,6 -5.8,9.7 v 2 l 2.5,-3.2 c 1.4,-1.8 2.6,-3.5 2.6,-3.8 z m -6.7,-4.5 c -0.6,-2.7 -1.2,-3.8 -3,-5.5 -1.3,-1.3 -2.6,-2.3 -2.8,-2.3 -0.5,0 0.6,4 1.8,6.3 1,2.2 4.2,6 4.4,5.3 0,-0.3 0,-2 -0.5,-4 z m 7,-4.2 c 0.8,-2 1.5,-3.7 1.5,-4 l -2.3,1.5 c -2.6,2 -4.5,6 -4.5,8.8 v 2 l 2,-2.4 c 1,-1.2 2.6,-4 3.4,-5.8 z m -6.8,-2.4 c -0.3,-3 -0.8,-3.8 -3,-6 -1.3,-1.5 -2.6,-2.7 -3,-2.7 -1.2,0 2.3,8.4 4,9.3 0.6,0.4 1.3,1.3 1.5,2 0.6,2.2 1,0.7 0.5,-2.7 z m 7,-4.8 c 0.4,-1.5 1.2,-3.2 1.5,-3.7 1,-1.3 -3,1.2 -4.5,3 -1.4,1.4 -2.5,4.8 -2.5,7.3 0,1.2 0.2,1 2.2,-1 1.2,-1.5 2.6,-4 3.2,-5.5 z m -7,-2.7 c -0.4,-3.6 -2,-6.4 -4.7,-8 l -2,-1.5 0.8,2.6 c 0.5,1.3 1,3 1.5,4 0.7,1.3 4,5.8 4.4,6 0.2,0 0,-1.5 0,-3.3 z m 7.2,-5.4 c 1,-2 1.4,-4 1.2,-4 l -2.5,2 c -2.7,2 -4,4 -4.4,8 l -0.2,3 2,-2.7 c 1.4,-1.4 3,-4.3 4,-6.3 z m -8,-8 -2.7,-4 -1.4,-2 0.3,3.4 c 0.2,2 1,4.5 1.7,6 0.8,1.3 1.7,3.2 2,4.2 0.8,1.7 0.8,1.7 1,-1.7 0,-2.6 0,-4 -1,-6 z m 6,2 c 0.6,-1.3 1,-3.5 1,-5 v -2.4 l -2,2.5 c -2,3 -3,5.7 -3,9.7 v 2.8 l 1.5,-2.5 c 0.7,-1.4 2,-3.7 2.5,-5 z m -2.3,-7.3 c -0.3,-1 -0.8,-3.3 -1,-5 l -0.8,-2.8 -1,3 c -2,6 -2,6.6 -0.6,9 l 1.2,2 1.3,-2 c 1,-2 1,-2.8 0.7,-4.3 z"
         id="path3997"
         inkscape:connector-curvature="0" />
    </g>
    <g
       stroke="null"
       id="g3999">
      <path
         d="m 158.2,255.2 c -1.7,-2 -4.7,-8 -7.6,-15.2 0,-0.3 0.8,0.5 2,1.8 1.2,1.3 2.6,2.3 2.8,2.3 0.4,0 -3,-8.7 -4,-10 -1.6,-1.7 -0.8,-1.7 1.2,0 1,1.3 2.2,2 2.3,2 0,-0.4 -2.8,-8 -3.8,-9.3 -1.6,-2 -0.7,-1.8 1.8,0.4 1.5,1.4 2.7,2.3 2.7,2 l -2,-5 -2.5,-5.6 c -0.2,-0.4 0.7,0 1.8,1 1,1 2.2,1.8 2.3,1.8 0.5,0 -2.5,-7.4 -3.8,-9.4 -1.2,-2 -0.5,-2.3 1,-0.4 l 2.2,2 c 1,0.4 1,0.2 -0.2,-2.8 l -2.3,-5.4 c -0.6,-1 -1,-2.4 -1,-2.8 0,-0.4 0.2,-0.2 0.5,0.3 0.5,1 5.7,5.2 5.7,4.7 l -1.2,-2.6 c 0,0 -1,-3.7 -1,-5.3 0,-1.6 -0.4,-4 -0.6,-5.7 -0.2,-1.7 -0.3,-3 0,-3 0,0 1,1.8 1.8,4 l 1.7,3.8 1,-2.8 1.8,-8 1,-5.3 0.4,3.2 c 0.6,5 2.8,12.2 3.5,11.5 l 2,-3.6 1.2,-3 -0.4,4.3 c -0.3,5.5 -1.2,10 -2.2,11 -0.5,0.2 -0.8,1 -0.8,1 0,0.7 2.6,-1 5,-3.5 1.8,-1.8 2.5,-1.7 1,0.2 -1,1.4 -4.4,10 -3.8,10 0.3,0 1.3,-0.8 2.3,-2 1,-1 2,-1.7 2,-1.7 l -1.6,3.8 c -3.3,6.5 -3.3,8.4 0,5 0.8,-1 1.4,-1.5 1.2,-1 l -1.8,4.2 c -3.2,7.4 -3,8.2 0.5,4.3 1,-1.2 2,-2 2,-2 l -2.6,5.7 c -1.4,3 -2.4,5.7 -2.2,6 l 2.2,-1.5 c 0,0 2,-1.4 2,-1 0,0.3 -0.2,0.6 -0.5,0.6 -0.2,0 -1,2 -2,4.4 -1,2.4 -1.8,4.6 -2.2,5 -0.7,1.2 0.2,0.7 3,-1.5 1,-1 1.8,-1.3 1.8,-1 0,0.3 -0.2,1 -0.6,1 -0.6,0.5 -3.4,7 -3.4,8 0,0.3 -0.8,2 -2,4 -3,5 -4.3,5 -7.4,1.3 z"
         id="path4001"
         inkscape:connector-curvature="0"
         style="fill:#fcf646" />
      <path
         d="m 158.2,255.2 c -1.7,-2 -4.7,-8 -7.6,-15.2 0,-0.3 0.8,0.5 2,1.8 1.2,1.3 2.6,2.3 2.8,2.3 0.4,0 -3,-8.7 -4,-10 -1.6,-1.7 -0.8,-1.7 1.2,0 1,1.3 2.2,2 2.3,2 0,-0.4 -2.8,-8 -3.8,-9.3 -1.6,-2 -0.7,-1.8 1.8,0.4 1.5,1.4 2.7,2.3 2.7,2 l -2,-5 -2.5,-5.6 c -0.2,-0.4 0.7,0 1.8,1 1,1 2.2,1.8 2.3,1.8 0.5,0 -2.5,-7.4 -3.8,-9.4 -1.2,-2 -0.5,-2.3 1,-0.4 l 2.2,2 c 1,0.4 1,0.2 -0.2,-2.8 l -2.3,-5.4 c -0.6,-1 -1,-2.4 -1,-2.8 0,-0.4 0.2,-0.2 0.5,0.3 0.5,1 5.7,5.2 5.7,4.7 l -1.2,-2.6 c 0,0 -1,-3.7 -1,-5.3 0,-1.6 -0.4,-4 -0.6,-5.7 -0.2,-1.7 -0.3,-3 0,-3 0,0 1,1.8 1.8,4 l 1.7,3.8 1,-2.8 1.8,-8 1,-5.3 0.4,3.2 c 0.6,5 2.8,12.2 3.5,11.5 l 2,-3.6 1.2,-3 -0.4,4.3 c -0.3,5.5 -1.2,10 -2.2,11 -0.5,0.2 -0.8,1 -0.8,1 0,0.7 2.6,-1 5,-3.5 1.8,-1.8 2.5,-1.7 1,0.2 -1,1.4 -4.4,10 -3.8,10 0.3,0 1.3,-0.8 2.3,-2 1,-1 2,-1.7 2,-1.7 l -1.6,3.8 c -3.3,6.5 -3.3,8.4 0,5 0.8,-1 1.4,-1.5 1.2,-1 l -1.8,4.2 c -3.2,7.4 -3,8.2 0.5,4.3 1,-1.2 2,-2 2,-2 l -2.6,5.7 c -1.4,3 -2.4,5.7 -2.2,6 l 2.2,-1.5 c 0,0 2,-1.4 2,-1 0,0.3 -0.2,0.6 -0.5,0.6 -0.2,0 -1,2 -2,4.4 -1,2.4 -1.8,4.6 -2.2,5 -0.7,1.2 0.2,0.7 3,-1.5 1,-1 1.8,-1.3 1.8,-1 0,0.3 -0.2,1 -0.6,1 -0.6,0.5 -3.4,7 -3.4,8 0,0.3 -0.8,2 -2,4 -3,5 -4.3,5 -7.4,1.3 z m 2.2,-0.7 c 0,-1 -0.3,-2.6 -0.5,-3.4 -0.5,-1.6 -3,-5 -5,-6 l -1.7,-1 1.6,4 c 0.7,2 2.3,5 3.4,6.2 l 2,2.5 v -2 z m 6.6,-6 c 1,-2.2 1.6,-4.2 1.5,-4.3 -0.5,-0.5 -4.5,3.3 -5.5,5.2 -0.5,1 -1,3 -1.2,4.4 l -0.3,2.7 2,-2 c 1,-1.2 2.6,-4 3.5,-6 z m -6.5,-2.4 c -0.5,-4 -1.6,-6 -4.5,-8 -3,-2.2 -3,-2.2 -0.5,3.4 1,2.2 4.6,7.7 5.2,7.8 l -0.2,-3 z m 6.6,-5 c 1,-2 1.7,-4 1.6,-4 0,-0.3 -1.3,0.4 -2.5,1.4 -2.5,2 -3.7,4.2 -4,8 l -0.4,2.7 2,-2 c 1,-1.3 2.7,-4 3.6,-6 z m -6.5,-2.3 c -0.5,-4 -1.5,-6 -4.4,-8.2 l -2.4,-2 1.4,4 c 1,3 4.6,8.7 5.7,9 0,0.2 0,-1 -0.3,-2.8 z m 6.7,-4.6 1.2,-3 1,-2.5 -1.4,1 c -4,2.8 -6,6 -6,9.7 v 2 l 2.7,-3.2 c 1.4,-1.8 2.6,-3.5 2.6,-3.8 z m -6.7,-4.5 c -0.6,-2.7 -1.2,-3.8 -3,-5.5 -1.3,-1.3 -2.6,-2.3 -2.8,-2.3 -0.5,0 0.6,4 1.8,6.3 1,2.2 4.2,6 4.4,5.3 0,-0.3 0,-2 -0.5,-4 z m 7,-4.2 c 0.8,-2 1.5,-3.7 1.5,-4 l -2.3,1.5 c -2.6,2 -4.6,6 -4.6,8.8 v 2 l 2,-2.4 c 1,-1.2 2.7,-4 3.5,-5.8 z m -6.8,-2.4 c -0.3,-3 -0.8,-3.8 -3,-6 -1.3,-1.5 -2.7,-2.7 -3,-2.7 -1.2,0 2.3,8.4 4,9.3 0.6,0.4 1.3,1.3 1.5,2 0.6,2.2 1,0.7 0.5,-2.7 z m 7,-4.8 c 0.4,-1.5 1.2,-3.2 1.5,-3.7 1,-1.3 -3,1.2 -4.5,3 -1.4,1.4 -2.5,4.8 -2.6,7.3 0,1.2 0.3,1 2.3,-1 1.2,-1.5 2.6,-4 3.2,-5.5 z m -7,-2.7 c -0.4,-3.6 -2,-6.4 -4.7,-8 l -2,-1.5 0.8,2.6 c 0.4,1.3 1,3 1.5,4 0.7,1.3 4,5.8 4.4,6 0.2,0 0,-1.5 0,-3.3 z m 7.2,-5.4 c 1,-2 1.4,-4 1.2,-4 l -2.5,2 c -2.7,2 -4,4 -4.4,8 l -0.2,3 2,-2.7 c 1.4,-1.4 3,-4.3 4,-6.3 z m -8,-8 -2.7,-4 -1.4,-2 0.2,3.4 c 0.2,2 1,4.5 1.7,6 l 2,4.2 c 0.7,1.7 0.7,1.7 1,-1.7 0,-2.6 0,-4 -1,-6 z m 6,2 c 0.6,-1.3 1,-3.5 1,-5 v -2.4 l -2,2.5 c -2,3 -3,5.7 -3,9.7 v 2.8 l 1.5,-2.5 c 0.7,-1.4 2,-3.7 2.5,-5 z m -2.3,-7.3 -1.2,-5 -0.6,-2.8 -1,3 c -2,6 -2,6.6 -0.6,9 l 1.2,2 1.3,-2 c 1,-2 1,-2.8 0.7,-4.3 z"
         id="path4003"
         inkscape:connector-curvature="0" />
    </g>
    <g
       stroke="null"
       id="g4005">
      <path
         d="m 120,255.2 c -1.8,-2 -4.8,-8 -7.7,-15.2 -0.2,-0.3 0.8,0.5 2,1.8 1.2,1.3 2.6,2.3 2.7,2.3 0.5,0 -3,-8.7 -4,-10 -1.6,-1.7 -0.8,-1.7 1.3,0 1,1.3 2,2 2.2,2 0.4,-0.4 -2.6,-8 -3.5,-9.3 -1.6,-2 -0.7,-1.8 1.8,0.4 1.4,1.4 2.5,2.3 2.5,2 l -2,-5 -2.4,-5.6 c -0.4,-0.4 0.4,0 1.5,1 1.2,1 2.2,1.8 2.4,1.8 0.4,0 -2.6,-7.4 -4,-9.4 -1.2,-2 -0.4,-2.3 1,-0.4 l 2,2 c 1,0.4 1,0.2 0,-2.8 l -2,-5.6 c -0.7,-1 -1.2,-2.4 -1.2,-2.8 0,-0.4 0.3,-0.2 0.6,0.3 0.4,1 5.6,5.2 5.6,4.7 l -1,-2.6 c 0,0 -1.2,-3.7 -1.3,-5.3 l -0.4,-5.7 -0.2,-3 c 0.4,0 1.3,1.8 2,4 l 1.8,3.8 1,-2.8 c 0.3,-1.6 1,-5.2 1.7,-8 l 1,-5.3 0.4,3.2 c 0.4,5 2.5,12.2 3.2,11.5 0.4,-0.4 1.3,-2 2,-3.6 l 1.3,-3 -0.2,4.3 c -0.3,5.6 -1.2,10 -2.2,11 -0.3,0.3 -0.7,1 -0.7,1.2 0,0.5 2.7,-1.3 5,-3.7 1.8,-1.8 2.6,-1.7 1,0.2 -1,1.4 -4.3,10 -3.7,10 0.2,0 1.3,-0.8 2.3,-2 1,-1 2,-1.7 2,-1.7 0,0 -0.7,1.6 -1.8,3.8 -3.3,6.5 -3.3,8.4 0,5 0.8,-1 1.4,-1.5 1.2,-1 l -1.8,4.2 c -3.2,7.4 -3,8.2 0.5,4.3 l 2,-2 -2.6,5.8 c -1.4,3 -2.4,5.7 -2.3,6 0.3,0 1.3,-0.6 2.4,-1.5 1.1,-0.9 2,-1.4 2,-1 0,0.3 -0.2,0.6 -0.5,0.6 -0.3,0 -1.3,2 -2,4.2 -1,2.3 -2,4.6 -2.4,5 -0.8,1.2 0.2,0.7 3,-1.5 1,-0.8 1.8,-1.2 1.8,-1 0,0.4 -0.3,1 -0.6,1 -0.6,0.6 -3.4,7 -3.4,8 0,0.4 -1,2.2 -2,4 -3,5 -4.3,5 -7.4,1.4 z"
         id="path4007"
         inkscape:connector-curvature="0"
         style="fill:#fcf646" />
      <path
         d="m 120,255.2 c -1.8,-2 -4.8,-8 -7.7,-15.2 -0.2,-0.3 0.8,0.5 2,1.8 1.2,1.3 2.6,2.3 2.7,2.3 0.5,0 -3,-8.7 -4,-10 -1.6,-1.7 -0.8,-1.7 1.3,0 1,1.3 2,2 2.2,2 0.4,-0.4 -2.6,-8 -3.5,-9.3 -1.6,-2 -0.7,-1.8 1.8,0.4 1.4,1.4 2.5,2.3 2.5,2 l -2,-5 -2.4,-5.6 c -0.4,-0.4 0.4,0 1.5,1 1.2,1 2.2,1.8 2.4,1.8 0.4,0 -2.6,-7.4 -4,-9.4 -1.2,-2 -0.4,-2.3 1,-0.4 l 2,2 c 1,0.4 1,0.2 0,-2.8 l -2,-5.6 c -0.7,-1 -1.2,-2.4 -1.2,-2.8 0,-0.4 0.3,-0.2 0.6,0.3 0.4,1 5.6,5.2 5.6,4.7 l -1,-2.6 c 0,0 -1.2,-3.7 -1.3,-5.3 l -0.4,-5.7 -0.2,-3 c 0.4,0 1.3,1.8 2,4 l 1.8,3.8 1,-2.8 c 0.3,-1.6 1,-5.2 1.7,-8 l 1,-5.3 0.4,3.2 c 0.4,5 2.5,12.2 3.2,11.5 0.4,-0.4 1.3,-2 2,-3.6 l 1.3,-3 -0.2,4.3 c -0.3,5.6 -1.2,10 -2.2,11 -0.3,0.3 -0.7,1 -0.7,1.2 0,0.5 2.7,-1.3 5,-3.7 1.8,-1.8 2.6,-1.7 1,0.2 -1,1.4 -4.3,10 -3.7,10 0.2,0 1.3,-0.8 2.3,-2 1,-1 2,-1.7 2,-1.7 0,0 -0.7,1.6 -1.8,3.8 -3.3,6.5 -3.3,8.4 0,5 0.8,-1 1.4,-1.5 1.2,-1 l -1.8,4.2 c -3.2,7.4 -3,8.2 0.5,4.3 l 2,-2 -2.6,5.8 c -1.4,3 -2.4,5.7 -2.3,6 0.3,0 1.3,-0.6 2.4,-1.5 1.1,-0.9 2,-1.4 2,-1 0,0.3 -0.2,0.6 -0.5,0.6 -0.3,0 -1.3,2 -2,4.2 -1,2.3 -2,4.6 -2.4,5 -0.8,1.2 0.2,0.7 3,-1.5 1,-0.8 1.8,-1.2 1.8,-1 0,0.4 -0.3,1 -0.6,1 -0.6,0.6 -3.4,7 -3.4,8 0,0.4 -1,2.2 -2,4 -3,5 -4.3,5 -7.4,1.4 z m 2,-0.7 c 0,-1 -0.3,-2.6 -0.4,-3.4 -0.4,-1.6 -3,-5 -5,-6 l -1.5,-1 1.8,4 c 0.8,2 2.4,5 3.5,6.2 l 2,2.5 v -2 z m 6.7,-6 c 1,-2.2 1.6,-4.2 1.4,-4.3 -0.2,-0.5 -4.2,3.3 -5.2,5.2 -0.5,1 -1,3 -1.3,4.4 l -0.2,2.7 2,-2 c 1,-1.2 2.5,-4 3.5,-6 z m -6.5,-2.4 c -0.6,-4 -1.6,-6 -4.6,-8 -2.8,-2.2 -2.8,-2.2 -0.5,3.4 1,2.2 5,7.7 5.5,7.8 l -0.2,-3 z m 6.5,-5 c 1,-2 1.6,-4 1.4,-4 0,-0.3 -1,0.4 -2.3,1.4 -2.5,2 -3.7,4.2 -4,8 l -0.4,2.7 2,-2 c 1,-1.3 2.6,-4 3.5,-6 z m -6.6,-2.3 c -0.3,-4 -1.3,-6 -4.2,-8.2 l -2.6,-2 1.6,4 c 1,3 4.7,8.7 5.7,9 l -0.2,-2.8 z m 6.8,-4.6 1,-3 1.3,-2.5 -1.5,1 c -4,2.8 -5.8,6 -5.8,9.7 v 2 l 2.6,-3.2 c 1.4,-1.8 2.5,-3.5 2.5,-3.8 z m -6.8,-4.5 c -0.6,-2.7 -1.2,-3.8 -3,-5.5 -1.4,-1.3 -2.6,-2.3 -3,-2.3 -0.3,0 0.8,4 2,6.3 1,2.2 4.2,6 4.4,5.3 0,-0.3 0,-2 -0.5,-4 z m 7,-4.2 1.4,-4 -2.2,1.5 c -2.6,2 -4.6,6 -4.6,8.8 v 2 l 2,-2.4 c 1,-1.2 2.6,-4 3.4,-5.8 z m -6.8,-2.4 c -0.4,-3 -0.8,-3.8 -3,-6 -1.3,-1.5 -2.7,-2.7 -3,-2.7 -1.2,0 2.3,8.4 4,9.3 0.6,0.4 1.2,1.3 1.4,2 0.7,2.2 1,0.7 0.6,-2.7 z m 6.8,-4.8 c 0.6,-1.5 1.3,-3.2 1.7,-3.7 1,-1.3 -3,1.2 -4.6,3 -1,1.4 -2.3,4.8 -2.3,7.3 0,1.2 0.3,1 2.2,-1 1,-1.5 2.6,-4 3,-5.5 z m -6.8,-2.7 c -0.4,-3.6 -2,-6.4 -4.8,-8 l -1.7,-1.2 0.8,2.6 c 0.4,1.2 1,3 1.5,4 0.6,1.2 4,5.7 4.4,6 z m 7.2,-5.4 1.3,-4 c -0.2,0 -1.3,1 -2.6,2 -2.5,2 -3.6,4 -4,8 l -0.5,3 2.2,-2.7 c 1.2,-1.4 3,-4.3 3.8,-6.3 z m -8,-8 -2.7,-4 -1.5,-2 0.4,3.4 c 0.2,2 1,4.5 1.8,6 0.7,1.3 1.7,3.2 2,4.2 0.8,1.7 0.8,1.7 1,-1.7 0,-2.6 -0.2,-4 -1,-6 z m 6.2,2 c 0.6,-1.3 1,-3.5 1,-5 v -2.4 l -2,2.5 c -2,3 -3,5.7 -3,9.7 v 2.8 l 1.4,-2.5 2.6,-5 z m -2.3,-7.3 -1.2,-5 -0.5,-2.8 -1,3 c -1.7,6 -1.7,6.6 -0.4,9 l 1.3,2 1.3,-2 c 1,-2 1,-2.8 0.8,-4.3 z"
         id="path4009"
         inkscape:connector-curvature="0" />
    </g>
  </g>
</svg>
