<?xml version="1.0" encoding="UTF-8" standalone="no"?>
<svg
   xmlns:dc="http://purl.org/dc/elements/1.1/"
   xmlns:cc="http://creativecommons.org/ns#"
   xmlns:rdf="http://www.w3.org/1999/02/22-rdf-syntax-ns#"
   xmlns:svg="http://www.w3.org/2000/svg"
   xmlns="http://www.w3.org/2000/svg"
   xmlns:sodipodi="http://sodipodi.sourceforge.net/DTD/sodipodi-0.dtd"
   xmlns:inkscape="http://www.inkscape.org/namespaces/inkscape"
   width="512"
   height="512"
   id="svg3821"
   version="1.1"
   inkscape:version="0.92.4 (5da689c313, 2019-01-14)"
   sodipodi:docname="club-logo-512.svg">
  <metadata
     id="metadata4015">
    <rdf:RDF>
      <cc:Work
         rdf:about="">
        <dc:format>image/svg+xml</dc:format>
        <dc:type
           rdf:resource="http://purl.org/dc/dcmitype/StillImage" />
        <dc:title>background</dc:title>
      </cc:Work>
    </rdf:RDF>
  </metadata>
  <defs
     id="defs4013" />
  <sodipodi:namedview
     pagecolor="#ffffff"
     bordercolor="#666666"
     borderopacity="1"
     objecttolerance="10"
     gridtolerance="10"
     guidetolerance="10"
     inkscape:pageopacity="0"
     inkscape:pageshadow="2"
     inkscape:window-width="1680"
     inkscape:window-height="987"
     id="namedview4011"
     showgrid="false"
     inkscape:zoom="1.8856181"
     inkscape:cx="173.81731"
     inkscape:cy="331.15157"
     inkscape:window-x="1432"
     inkscape:window-y="-8"
     inkscape:window-maximized="1"
     inkscape:current-layer="svg3821" />
  <title
     id="title3823">background</title>
  <path
     d="M 101.25373,112.0837 H 410.10945 V 238.93382 H 101.12637 Z"
     id="path3825"
     inkscape:connector-curvature="0"
     style="fill:#ffffff;stroke-width:1.27361369" />
  <path
     d="M 0,29.3 H 512 V 482.7 H 0 Z"
     id="path3827"
     inkscape:connector-curvature="0"
     style="fill:none;stroke-width:1.27361369" />
  <title
     id="title3829">Layer 1</title>
  <path
     d="m 445.00697,398.26062 v -11.08028 l 25.72736,11.08028 z M 66.738308,398.0059 H 41.265672 l 25.472636,-8.91517 z"
     fill-opacity="null"
     id="path3831"
     inkscape:connector-curvature="0"
     style="fill:#b7cbe4;stroke-width:1.27361369" />
  <g
     id="g3833"
     style="fill:#35cc01"
     transform="matrix(1.2736318,0,0,1.2735955,1.2736318,30.573596)">
    <path
       d="M 84,169 H 316 V 280.6 H 84 Z"
       id="path3835"
       inkscape:connector-curvature="0" />
    <path
       d="m 171,289.5 116.5,-67.2 30,52 -116.5,67.2 z"
       id="path3837"
       inkscape:connector-curvature="0" />
    <path
       d="m 114,222.3 117,67.5 -30,52 -117,-67.5 z"
       id="path3839"
       inkscape:connector-curvature="0" />
  </g>
  <path
     d="M 96.79602,371.89719 263.64179,468.18101 256,481.42641 89.154229,385.26994 Z"
     id="path3841"
     inkscape:connector-curvature="0"
     style="fill:#f9c50d;stroke-width:1.27361369" />
  <path
     d="m 248.35821,468.30837 166.46368,-96.15646 7.64179,13.2454 L 256,481.42641 Z"
     id="path3843"
     inkscape:connector-curvature="0"
     style="fill:#f9c50d;stroke-width:1.27361369" />
  <path
     fill-opacity="null"
     d="M 92.975124,30.573596 H 108.25871 V 362.98202 H 92.975124 Z"
     id="path3845"
     inkscape:connector-curvature="0"
     style="fill:#f9c50d;stroke-width:1.27361369" />
  <path
     d="m 439.40299,380.81236 h 6.36815 v 45.84944 h -6.36815 z"
     id="path3847"
     inkscape:connector-curvature="0"
     style="fill:#863b35;stroke-width:1.27361369" />
  <path
     d="m 434.30846,374.44438 h 19.10448 v 3.82079 h -19.10448 z"
     id="path3849"
     inkscape:connector-curvature="0"
     style="fill:#c1c9de;stroke-width:1.27361369" />
  <ellipse
     ry="6.3679776"
     rx="12.736319"
     cy="380.81232"
     cx="433.03491"
     fill-opacity="null"
     id="ellipse3851"
     style="fill:#863b35;stroke-width:1.27361369" />
  <path
     d="m 66.228856,380.81236 h 6.368159 v 45.84944 h -6.368159 z"
     id="path3853"
     inkscape:connector-curvature="0"
     style="fill:#863b35;stroke-width:1.27361369" />
  <path
     d="m 122.26866,369.35 h 12.73632 v 6.36798 h -12.73632 z"
     id="path3855"
     inkscape:connector-curvature="0"
     style="fill:#b7cbe4;stroke-width:1.27361369" />
  <ellipse
     ry="6.3679776"
     rx="12.736319"
     cy="369.34991"
     cx="122.26864"
     fill-opacity="null"
     id="ellipse3857"
     style="fill:#863b35;stroke-width:1.27361369" />
  <path
     d="m 43.303483,369.35 h 81.512437 v 5.09438 H 43.303483 Z m 15.665671,5.09438 h 19.104478 v 3.82079 H 58.969154 Z"
     id="path3859"
     inkscape:connector-curvature="0"
     style="fill:#c1c9de;stroke-width:1.27361369" />
  <ellipse
     ry="6.3679776"
     rx="12.736319"
     cy="380.81232"
     cx="78.965157"
     fill-opacity="null"
     id="ellipse3861"
     style="fill:#863b35;stroke-width:1.27361369" />
  <path
     d="m 76.41791,375.71798 h 57.31343 v 10.18876 H 76.41791 Z"
     id="path3863"
     inkscape:connector-curvature="0"
     style="fill:#b7cbe4;stroke-width:1.27361369" />
  <ellipse
     ry="5.0943818"
     rx="7.6417909"
     cy="380.81232"
     cx="76.417892"
     fill-opacity="null"
     id="ellipse3865"
     style="fill:#b7cbe4;stroke-width:1.27361369" />
  <ellipse
     ry="2.5471909"
     rx="5.0945272"
     cy="371.89713"
     cx="124.8159"
     fill-opacity="null"
     id="ellipse3867"
     style="fill:#c1c9de;stroke-width:1.27361369" />
  <ellipse
     ry="6.3679776"
     rx="12.736319"
     cy="426.66174"
     cx="433.03491"
     fill-opacity="null"
     id="ellipse3869"
     style="fill:#863b35;stroke-width:1.27361369" />
  <ellipse
     ry="6.3679776"
     rx="12.736319"
     cy="426.66174"
     cx="78.965157"
     fill-opacity="null"
     id="ellipse3871"
     style="fill:#863b35;stroke-width:1.27361369" />
  <path
     d="M 92.975124,30.573596 H 419.02488 V 45.856742 H 92.975124 Z"
     id="path3873"
     inkscape:connector-curvature="0"
     style="fill:#f9c50d;stroke-width:1.27361369" />
  <path
     fill-opacity="null"
     d="m 403.74129,30.573596 h 15.28359 V 362.98202 h -15.28359 z"
     id="path3875"
     inkscape:connector-curvature="0"
     style="fill:#f9c50d;stroke-width:1.27361369" />
  <path
     fill-opacity="null"
     d="M 92.975124,104.44213 H 419.02488 v 15.28316 H 92.975124 Z"
     id="path3877"
     inkscape:connector-curvature="0"
     style="fill:#f9c50d;stroke-width:1.27361369" />
  <path
     fill-opacity="null"
     d="m 248.35821,104.44213 h 15.28358 v 141.3691 h -15.28358 z"
     id="path3879"
     inkscape:connector-curvature="0"
     style="fill:#f9c50d;stroke-width:1.27361369" />
  <path
     fill-opacity="null"
     d="M 92.975124,230.52809 H 419.02488 v 15.28314 H 92.975124 Z"
     id="path3881"
     inkscape:connector-curvature="0"
     style="fill:#f9c50d;stroke-width:1.27361369" />
  <path
     d="M 108.25871,45.856742 H 403.74129 V 104.44213 H 108.25871 Z"
     id="path3883"
     inkscape:connector-curvature="0"
     style="fill:#b7cde5;stroke-width:1.27361369" />
  <text
     stroke-opacity="null"
     x="295.47845"
     y="71.329605"
     font-size="14"
     font-weight="bold"
     id="text3885"
     style="font-weight:bold;font-size:17.83059311px;line-height:0%;font-family:Helvetica, Arial, sans-serif;fill:#7f1734;stroke:#f9c50d;stroke-width:0"
     transform="scale(1.0000143,0.99998571)">OVERS</text>
  <text
     stroke-opacity="null"
     x="280.1951"
     y="71.329605"
     font-size="18"
     font-weight="bold"
     id="text3887"
     style="font-weight:bold;font-size:22.92504501px;line-height:0%;font-family:Helvetica, Arial, sans-serif;fill:#7f1734;stroke:#f9c50d;stroke-width:0"
     transform="scale(1.0000143,0.99998571)">R</text>
  <path
     d="m 108.25871,199.9618 h 140.0995 v 30.56629 h -140.0995 z"
     id="path3889"
     inkscape:connector-curvature="0"
     style="fill:#02019a;stroke-width:1.27361369" />
  <path
     d="m 165.57214,212.44303 h 9.80696 l 2.92936,-9.16989 2.92935,9.16989 h 9.6796 l -8.02388,5.73118 2.92936,9.16989 -7.6418,-5.73118 -7.64179,5.73118 2.80199,-9.16989 -7.64179,-5.73118 z"
     id="path3891"
     inkscape:connector-curvature="0"
     style="fill:#d41632;stroke-width:1.27361369" />
  <g
     stroke-opacity="null"
     font-weight="bold"
     id="g3893"
     style="font-weight:bold;font-family:Helvetica, Arial, sans-serif;fill:#7f1734;stroke:#f9c50d;stroke-width:0"
     transform="matrix(1.2736318,0,0,1.2735955,1.2736318,30.573596)">
    <text
       x="140.89999"
       y="32"
       font-size="14"
       id="text3895"
       style="font-size:14px;line-height:0%">RADFIELD</text>
    <text
       x="128.60001"
       y="32"
       font-size="18"
       id="text3897"
       style="font-size:18px;line-height:0%">B</text>
  </g>
  <g
     stroke-opacity="null"
     font-weight="bold"
     id="g3899"
     style="font-weight:bold;font-family:Helvetica, Arial, sans-serif;fill:#7f1734;stroke:#f9c50d;stroke-width:0"
     transform="matrix(1.2736318,0,0,1.2735955,1.2736318,30.573596)">
    <text
       x="223.89999"
       y="51"
       font-size="18"
       id="text3901"
       style="font-size:18px;line-height:0%">C</text>
    <text
       x="235.89999"
       y="51"
       font-size="14"
       id="text3903"
       style="font-size:14px;line-height:0%">LUB</text>
  </g>
  <g
     stroke-opacity="null"
     font-weight="bold"
     id="g3905"
     style="font-weight:bold;font-family:Helvetica, Arial, sans-serif;fill:#7f1734;stroke:#f9c50d;stroke-width:0"
     transform="matrix(1.2736318,0,0,1.2735955,1.2736318,30.573596)">
    <text
       x="140"
       y="51"
       font-size="18"
       id="text3907"
       style="font-size:18px;line-height:0%">F</text>
    <text
       x="149.5"
       y="51"
       font-size="14"
       id="text3909"
       style="font-size:14px;line-height:0%">OOTBALL</text>
  </g>
  <path
     d="m 211.42289,212.44303 h 9.80696 l 2.92935,-9.16989 2.92936,9.16989 h 9.6796 l -8.02388,5.60383 2.92935,9.16988 -7.64179,-5.60382 -7.64179,5.60382 2.80199,-9.16988 -7.64179,-5.60383 z m -91.7015,0.50944 h 9.80697 l 2.92935,-9.16989 2.92935,9.16989 h 9.67961 l -8.02388,5.73118 2.92935,9.16989 -7.64179,-5.9859 -7.64179,5.73118 2.80199,-9.29725 -7.64179,-5.73117 z"
     id="path3911"
     inkscape:connector-curvature="0"
     style="fill:#d41632;stroke-width:1.27361369" />
  <path
     d="m 292.93532,160.48034 c -0.50945,0.76415 -0.25472,3.31134 0.63682,5.60381 2.54726,7.2595 0,9.67933 -15.28358,13.62748 -7.00498,2.03775 -8.27861,3.82079 -5.34926,8.27837 1.27364,1.9104 2.54727,1.65567 10.18906,-2.16511 11.71741,-5.47646 15.02885,-5.47646 17.32139,0.50944 1.65572,5.09437 7.00498,6.36798 5.73134,1.65567 l -1.27363,-5.09438 c -0.63681,-1.78304 0.89154,-2.92927 5.47662,-4.20286 7.64179,-2.29247 28.0199,-2.29247 38.71841,0 7.13234,1.65567 8.40597,1.27359 9.6796,-0.76417 3.31144,-5.9859 16.9393,-1.27359 15.28358,5.09439 -1.27363,4.58494 2.54727,7.89629 6.36816,5.3491 1.65572,-0.89152 5.85871,-3.31135 9.93433,-5.09439 6.75025,-3.31134 7.00497,-3.4387 3.82089,-5.85854 -5.34925,-4.20285 -18.46766,-9.67932 -29.29353,-12.73595 -12.99104,-3.18399 -44.57711,-2.03775 -55.65771,1.91039 -8.02388,3.05663 -10.82587,2.5472 -11.46269,-2.54718 -0.63681,-3.82079 -3.56616,-5.73119 -5.09452,-3.18399 z"
     id="path3913"
     inkscape:connector-curvature="0"
     style="fill:#ed134f;stroke-width:1.27361369" />
  <path
     d="m 292.93532,160.48034 c -0.50945,0.76415 -0.25472,3.31134 0.63682,5.60381 2.54726,7.2595 0,9.67933 -15.28358,13.62748 -7.00498,2.03775 -8.27861,3.82079 -5.34926,8.27837 1.27364,1.9104 2.54727,1.65567 10.18906,-2.16511 11.71741,-5.47646 15.02885,-5.47646 17.32139,0.50944 1.65572,5.09437 7.00498,6.36798 5.73134,1.65567 l -1.27363,-5.09438 c -0.63681,-1.78304 0.89154,-2.92927 5.47662,-4.20286 7.64179,-2.29247 28.0199,-2.29247 38.71841,0 7.13234,1.65567 8.40597,1.27359 9.6796,-0.76417 3.31144,-5.9859 16.9393,-1.27359 15.28358,5.09439 -1.27363,4.58494 2.54727,7.89629 6.36816,5.3491 1.65572,-0.89152 5.85871,-3.31135 9.93433,-5.09439 6.75025,-3.31134 7.00497,-3.4387 3.82089,-5.85854 -5.34925,-4.20285 -18.46766,-9.67932 -29.29353,-12.73595 -12.99104,-3.18399 -44.57711,-2.03775 -55.65771,1.91039 -8.02388,3.05663 -10.82587,2.5472 -11.46269,-2.54718 -0.63681,-3.82079 -3.56616,-5.73119 -5.09452,-3.18399 z"
     id="path3915"
     inkscape:connector-curvature="0"
     style="fill:none;stroke:#9a2f4d;stroke-width:1.27361369" />
  <ellipse
     fill-opacity="null"
     cx="132.45772"
     cy="217.02789"
     id="ellipse3917"
     style="fill:#02019a;stroke-width:1.27361369"
     rx="2.5472636"
     ry="2.5471909" />
  <ellipse
     fill-opacity="null"
     cx="178.30853"
     cy="217.02789"
     id="ellipse3919"
     style="fill:#02019a;stroke-width:1.27361369"
     rx="2.5472636"
     ry="2.5471909" />
  <ellipse
     fill-opacity="null"
     cx="224.03191"
     cy="217.02789"
     id="ellipse3921"
     style="fill:#02019a;stroke-width:1.27361369"
     rx="2.5472636"
     ry="2.5471909" />
  <path
     d="m 292.93532,124.81966 c -0.50945,0.76416 -0.25472,3.31135 0.63682,5.60382 2.54726,7.2595 0,9.67933 -15.28358,13.62748 -7.00498,2.03774 -8.27861,3.82078 -5.34926,8.27837 1.27364,1.91038 2.54727,1.65567 10.18906,-2.16512 11.71741,-5.47645 15.02885,-5.47645 17.32139,0.50944 1.65572,5.09438 7.00498,6.36798 5.73134,1.65568 l -1.27363,-5.09439 c -0.63681,-1.78303 0.89154,-2.92927 5.47662,-4.20286 7.64179,-2.29248 28.0199,-2.29248 38.71841,0 7.13234,1.65568 8.40597,1.27359 9.6796,-0.76416 3.31144,-5.9859 16.9393,-1.27359 15.28358,5.09439 -1.27363,4.58493 2.54727,7.89628 6.36816,5.3491 1.65572,-0.89152 5.85871,-3.31135 9.93433,-5.09439 6.75025,-3.31135 7.00497,-3.4387 3.82089,-5.85854 -5.34925,-4.20286 -18.46766,-9.67933 -29.29353,-12.73595 -12.99104,-3.18399 -44.57711,-2.03775 -55.65771,1.91039 -8.02388,3.05663 -10.82587,2.54719 -11.46269,-2.54719 -0.63681,-3.82079 -3.56616,-5.73118 -5.09452,-3.18399 z"
     id="path3923"
     inkscape:connector-curvature="0"
     style="fill:#ed134f;stroke-width:1.27361369" />
  <path
     d="m 292.93532,124.81966 c -0.50945,0.76416 -0.25472,3.31135 0.63682,5.60382 2.54726,7.2595 0,9.67933 -15.28358,13.62748 -7.00498,2.03774 -8.27861,3.82078 -5.34926,8.27837 1.27364,1.91038 2.54727,1.65567 10.18906,-2.16512 11.71741,-5.47645 15.02885,-5.47645 17.32139,0.50944 1.65572,5.09438 7.00498,6.36798 5.73134,1.65568 l -1.27363,-5.09439 c -0.63681,-1.78303 0.89154,-2.92927 5.47662,-4.20286 7.64179,-2.29248 28.0199,-2.29248 38.71841,0 7.13234,1.65568 8.40597,1.27359 9.6796,-0.76416 3.31144,-5.9859 16.9393,-1.27359 15.28358,5.09439 -1.27363,4.58493 2.54727,7.89628 6.36816,5.3491 1.65572,-0.89152 5.85871,-3.31135 9.93433,-5.09439 6.75025,-3.31135 7.00497,-3.4387 3.82089,-5.85854 -5.34925,-4.20286 -18.46766,-9.67933 -29.29353,-12.73595 -12.99104,-3.18399 -44.57711,-2.03775 -55.65771,1.91039 -8.02388,3.05663 -10.82587,2.54719 -11.46269,-2.54719 -0.63681,-3.82079 -3.56616,-5.73118 -5.09452,-3.18399 z"
     id="path3925"
     inkscape:connector-curvature="0"
     style="fill:none;stroke:#9a2f4d;stroke-width:1.27361369" />
  <path
     d="m 292.93532,195.8863 c -0.50945,0.76415 -0.25472,3.31134 0.63682,5.60381 2.54726,7.25949 0,9.67933 -15.28358,13.62747 -7.00498,1.52832 -8.27861,3.31135 -5.34926,7.64157 1.27364,2.03776 2.54727,1.9104 10.18906,-1.91038 11.71741,-5.60383 15.02885,-5.60383 17.32139,0.38208 1.65572,4.83966 7.00498,6.11325 5.73134,1.27359 l -1.27363,-4.83966 c -0.63681,-1.9104 0.89154,-3.05664 5.47662,-4.33023 7.64179,-2.16511 28.0199,-2.16511 38.71841,0 7.13234,1.65567 8.40597,1.27359 9.6796,-0.76415 3.31144,-5.85854 16.9393,-1.2736 15.28358,5.09438 -1.27363,4.58493 2.54727,7.89629 6.36816,5.3491 1.65572,-0.89152 5.85871,-3.31135 9.93433,-5.09439 6.75025,-3.31135 7.00497,-3.4387 3.82089,-5.85853 -5.34925,-4.07551 -18.46766,-9.67933 -29.29353,-12.73596 -12.99104,-3.18399 -44.57711,-2.03776 -55.65771,1.9104 -8.02388,3.18398 -10.82587,2.54718 -11.46269,-2.5472 -0.63681,-3.82078 -3.56616,-5.60382 -5.09452,-3.05663 z"
     id="path3927"
     inkscape:connector-curvature="0"
     style="fill:#ed134f;stroke-width:1.27361369" />
  <path
     d="m 292.93532,195.8863 c -0.50945,0.76415 -0.25472,3.31134 0.63682,5.60381 2.54726,7.25949 0,9.67933 -15.28358,13.62747 -7.00498,1.52832 -8.27861,3.31135 -5.34926,7.64157 1.27364,2.03776 2.54727,1.9104 10.18906,-1.91038 11.71741,-5.60383 15.02885,-5.60383 17.32139,0.38208 1.65572,4.83966 7.00498,6.11325 5.73134,1.27359 l -1.27363,-4.83966 c -0.63681,-1.9104 0.89154,-3.05664 5.47662,-4.33023 7.64179,-2.16511 28.0199,-2.16511 38.71841,0 7.13234,1.65567 8.40597,1.27359 9.6796,-0.76415 3.31144,-5.85854 16.9393,-1.2736 15.28358,5.09438 -1.27363,4.58493 2.54727,7.89629 6.36816,5.3491 1.65572,-0.89152 5.85871,-3.31135 9.93433,-5.09439 6.75025,-3.31135 7.00497,-3.4387 3.82089,-5.85853 -5.34925,-4.07551 -18.46766,-9.67933 -29.29353,-12.73596 -12.99104,-3.18399 -44.57711,-2.03776 -55.65771,1.9104 -8.02388,3.18398 -10.82587,2.54718 -11.46269,-2.5472 -0.63681,-3.82078 -3.56616,-5.60382 -5.09452,-3.05663 z"
     id="path3929"
     inkscape:connector-curvature="0"
     style="fill:none;stroke:#9a2f4d;stroke-width:1.27361369" />
  <path
     d="M 69.795025,392.27471 H 441.69552 V 426.6618 H 69.795025 Z"
     id="path3931"
     inkscape:connector-curvature="0"
     style="fill:#b7cbe4;stroke-width:1.27361369" />
  <path
     d="M 68.776119,385.90674 H 443.22388 v 6.36797 H 68.776119 Z M 78.965174,426.6618 H 433.03483 v 6.36798 H 78.965174 Z M 388.45771,374.44438 h 43.30348 v 1.2736 H 388.45771 Z M 25.472637,362.98202 H 122.26866 V 369.35 H 25.472637 Z m 364.258703,0 h 96.79602 V 369.35 h -96.79602 z"
     id="path3933"
     inkscape:connector-curvature="0"
     style="fill:#863b35;stroke-width:1.27361369" />
  <path
     d="m 376.99502,369.35 h 12.73632 v 6.36798 h -12.73632 z"
     id="path3935"
     inkscape:connector-curvature="0"
     style="fill:#b7cbe4;stroke-width:1.27361369" />
  <ellipse
     ry="5.0943818"
     rx="7.6417909"
     cy="380.81232"
     cx="435.58215"
     fill-opacity="null"
     id="ellipse3937"
     style="fill:#b7cbe4;stroke-width:1.27361369" />
  <path
     d="m 378.26866,375.71798 h 57.31343 v 10.18876 h -57.31343 z"
     id="path3939"
     inkscape:connector-curvature="0"
     style="fill:#b7cbe4;stroke-width:1.27361369" />
  <path
     d="m 376.99502,369.35 h 1.27364 v 16.55674 h -1.27364 z m -243.26368,0 h 1.27364 v 16.55674 h -1.27364 z"
     id="path3941"
     inkscape:connector-curvature="0"
     style="fill:#863b35;stroke-width:1.27361369" />
  <ellipse
     ry="6.3679776"
     rx="12.736319"
     cy="369.34991"
     cx="389.73141"
     fill-opacity="null"
     id="ellipse3943"
     style="fill:#863b35;stroke-width:1.27361369" />
  <path
     d="m 387.18408,369.35 h 81.51244 v 5.09438 h -81.51244 z"
     id="path3945"
     inkscape:connector-curvature="0"
     style="fill:#c1c9de;stroke-width:1.27361369" />
  <path
     d="m 25.472637,397.3691 h 42.029851 v 6.36798 H 25.472637 Z"
     id="path3947"
     inkscape:connector-curvature="0"
     style="fill:#863b35;stroke-width:1.27361369" />
  <ellipse
     ry="2.5471909"
     rx="5.0945272"
     cy="371.89713"
     cx="387.18414"
     fill-opacity="null"
     id="ellipse3949"
     style="fill:#c1c9de;stroke-width:1.27361369" />
  <path
     d="m 444.49751,397.3691 h 42.02985 v 6.36798 h -42.02985 z m -417.496515,-33.49556 42.41194,14.00955 -2.037811,6.11326 -42.666666,-14.00955 z m 51.964179,10.57084 h 43.303486 v 1.2736 H 78.965174 Z"
     id="path3951"
     inkscape:connector-curvature="0"
     style="fill:#863b35;stroke-width:1.27361369" />
  <path
     d="m 29.038806,395.84079 39.99204,-13.37276 1.910448,6.11327 -39.99204,13.50011 z M 3.8208955,362.98202 H 21.142289 l 14.00995,10.18877 z"
     id="path3953"
     inkscape:connector-curvature="0"
     style="fill:#863b35;stroke-width:1.27361369" />
  <path
     d="m 20.887562,362.98202 h 5.858707 v 3.82079 h -5.858707 z m 14.77413,30.5663 -14.009951,10.18876 H 4.5850746 L 35.916418,393.54832 Z"
     id="path3955"
     inkscape:connector-curvature="0"
     style="fill:#863b35;stroke-width:1.27361369" />
  <path
     d="m 20.378109,399.9163 h 6.36816 v 3.82078 h -6.36816 z m 456.724381,-26.74551 14.00995,-10.18877 h 17.32139 z m 30.82189,30.56629 h -17.32139 l -14.00996,-10.18876 z"
     id="path3957"
     inkscape:connector-curvature="0"
     style="fill:#863b35;stroke-width:1.27361369" />
  <path
     d="m 442.4597,377.75573 42.5393,-14.00955 1.91045,6.36797 -42.5393,13.62748 z"
     id="path3959"
     inkscape:connector-curvature="0"
     style="fill:#863b35;stroke-width:1.27361369" />
  <path
     d="m 480.92338,401.69933 -39.99204,-12.99068 1.91045,-5.98589 39.99204,12.99067 z m 4.33035,-38.71731 h 5.85871 v 3.82079 h -5.85871 z m 0,36.93428 h 6.36816 v 3.82078 h -6.36816 z"
     id="path3961"
     inkscape:connector-curvature="0"
     style="fill:#863b35;stroke-width:1.27361369" />
  <text
     font-size="17"
     y="417.75253"
     x="135.63986"
     stroke-opacity="null"
     id="text3963"
     style="font-size:21.65143204px;line-height:0%;font-family:Georgia, Times, 'Times New Roman', serif;fill:#863b35;stroke:#000000;stroke-width:0"
     transform="scale(1.0000143,0.99998571)">DELAPSUS RESURGAM</text>
  <title
     id="title3965">Layer 2</title>
  <g
     stroke="null"
     id="g3967"
     transform="matrix(1.2736318,0,0,1.2735955,1.2736318,30.573596)">
    <path
       d="m 133.4,128.7 c -4.4,-1.3 -8,-4.2 -9.7,-8 -1.3,-3 -1.3,-3.5 0.3,-4.4 0.7,-0.3 1.7,-1 2,-1.3 0.7,-0.5 1,-0.3 4.4,2.3 3.3,2.6 7,4.8 8.2,4.8 1,0 5,-2 8.2,-4.6 l 3.6,-2.8 1.4,1 2.2,1.4 c 0.7,0.3 0.7,0.5 0.2,2 -1.4,4 -4.7,7.5 -9,9.2 -2.8,1.2 -8.7,1.4 -11.8,0.5 z m 9,-1.2 c 3.2,-0.8 5.6,-2 7.6,-4.4 1.2,-1.2 1.2,-1.2 0.2,-0.3 -3.6,3.2 -7.3,4.6 -11.6,4.6 -4.3,0 -8,-1.4 -11.6,-4.6 -1,-1 -1,-1 0.2,0.5 2,2.4 4.4,3.8 7.5,4.4 3.4,0.8 4.2,0.8 7.6,0 z m -6,-7 c -2.5,-1.2 -7.2,-4.4 -8.5,-6 -1.8,-2 -5.5,-14 -5.8,-18 0,-3 0,-3.3 0.5,-3.3 0.4,0 1,0.4 1.2,1 0.6,1.4 4.4,5.4 6.2,6.5 1.8,1.2 7,3 8.3,3 1.4,0 6.5,-1.8 8.3,-3 1.7,-1 5.4,-5 6.2,-6.6 0.3,-0.3 0.8,-0.7 1.2,-0.7 0.6,0 0.6,0.4 0.4,3.3 -0.2,4 -4,16 -5.5,18 -1.2,1.6 -6,4.8 -8.5,5.8 -2,1 -2,1 -4.2,0 z m 1,-15.8 c -0.3,-0.2 -1.4,-0.7 -2.6,-1 -4.2,-1.5 -9,-5 -11,-8.3 -0.4,-0.8 -1,-1.3 -1,-1.2 -0.4,0.3 1.5,3 3.2,4.7 2.4,2 4.7,3.4 8.2,5 3.5,1 3.7,1 3,0.6 z m 10.4,-3.2 c 3.3,-2 7.3,-6.6 6.6,-7.3 0,0 -0.6,0.4 -1,1.2 -2,3.2 -6.8,6.8 -11,8.2 -1.2,0.4 -2.3,1 -2.6,1 -0.7,1 6.3,-2 8,-3 z m -17,-2.6 c -2.3,-0.7 -2.8,-1 -4.8,-3 -2,-2.4 -2.2,-2.8 -2,-4 0.4,-2.4 2,-5 3.7,-7 2.2,-2.3 8,-5.3 9,-4.6 0.5,0.4 0.5,0.4 0.2,0 -0.6,-1 -0.5,-2.2 0,-3 0.3,-0.3 0.4,-0.7 0.3,-1 -0.6,-0.8 0.2,-2 1.2,-2 1,0 1.7,1.2 1.2,2 0,0.3 0,0.7 0.2,1 0.5,0.8 0.6,2 0.2,3 -0.3,0.4 -0.3,0.4 0.2,0 0.8,-0.7 6.8,2.3 9,4.6 1.8,2 3.3,4.7 3.6,7 0.3,1.3 0.2,1.7 -1.8,4 -2,2 -2.5,2.3 -5.2,3 -3.6,0.7 -11.5,0.7 -15,0 z m 9,-8.3 c 0.5,0 2.5,0.6 4.5,1 2,0.4 3.8,1 4,0.8 0.2,-0.3 -8.4,-2.5 -9.7,-2.5 -1.3,0 -10,2.3 -9.6,2.6 l 3.8,-0.7 4.7,-1.3 c 0.8,-0.2 1,0 1,2.7 V 96 l 0.2,-2.8 c 0,-2.7 0.2,-3 1,-2.7 z m -1,-8 c -0.3,-0.3 -0.3,0 -0.3,0.5 0,0.5 0,1 0.2,0.6 v -1.2 z m -1,-4.2 c 0,-0.3 -0.2,0 -0.2,0.5 0,0.5 0,1 0.2,0.6 v -1 z m 1.7,0 c 0,-0.3 -0.2,0 -0.2,0.5 0,0.5 0,1 0.2,0.6 v -1 z"
       id="path3969"
       inkscape:connector-curvature="0" />
    <path
       d="m 134.4,129 c -4.8,-1 -9.8,-5.2 -11,-9.5 -0.8,-2 -0.8,-2.2 0,-2.7 l 2,-1.4 1.4,-1 2.5,2 c 2.7,2.3 6.2,4.7 8,5.4 1,0.4 1.7,0.4 2.7,0 1.8,-1 6,-3.7 8.4,-5.7 l 2,-1.5 1.4,1 2,1.4 c 0.8,0.4 0.8,0.5 0,2.6 -2,7 -10.8,11.2 -19.4,9.4 z m 10.4,-2.2 c 1.4,-0.6 3,-1.7 4.5,-3 l 2,-2.2 -1.8,1.6 c -1,0.8 -3,2 -4.3,2.6 -2.2,1 -3,1.2 -6.6,1.2 -3.6,0 -4.4,0 -6.6,-1.2 -1.3,-0.6 -3.3,-1.8 -4.3,-2.7 l -2,-1.3 1.7,1.8 c 2,2 5,3.7 7.7,4.3 2.8,0.5 7,0 10,-1 z M 134,119 c -1.6,-1 -4,-2.5 -5,-3.6 -2,-2 -2.2,-2.3 -4.3,-8.8 -1.5,-5 -2.2,-7.7 -2.3,-10 -0.2,-3 -0.2,-3.4 0.4,-3.4 0.4,0 1,0.5 1.3,1.2 1.3,2 5.4,6 8,7.2 5.4,2.7 8,2.7 13.3,0 2.7,-1.2 6.8,-5 8,-7.2 0.2,-0.7 0.8,-1.2 1.2,-1.2 0.6,0 0.6,0.4 0.4,3.3 0,2.4 -1,5 -2.4,10 -2,6.6 -2.3,7 -4.2,9 -2.4,2.2 -8,5.4 -9.8,5.3 -0.6,0 -2.6,-0.8 -4.4,-1.7 z m 3.6,-14.3 c 0,-0.3 -0.4,-0.5 -0.8,-0.5 -1,0 -6,-2.3 -8,-3.8 -1.2,-0.7 -3,-2.5 -4,-4 -2,-2.6 -2.8,-3 -1.4,-0.5 2,3 6.3,6.2 11.2,8 3.2,1.2 3,1 3,0.6 z m 8,-2 c 3.3,-1.6 6.7,-4.5 8,-6.8 1.6,-2.7 0.8,-2.3 -1.2,0.4 -1,1.4 -2.8,3.2 -4,4 -2,1.4 -7,3.7 -8,3.7 -0.4,0 -0.8,0.3 -0.8,0.5 0,0.6 2.7,-0.2 6,-2 z m -12,-3.4 -3.2,-0.7 c -2.2,-0.4 -2.6,-0.7 -4.4,-2.8 -1.2,-1.3 -2,-2.8 -2,-3.3 0,-1.5 2.2,-6 4,-7.5 0.8,-1 3,-2.4 4.8,-3.3 3,-1.5 3.4,-1.6 3.8,-1 0.3,0.4 0.5,0.5 0.5,0.3 0,-0.3 0,-0.6 -0.2,-1 -0.2,0 0,-0.7 0.2,-1.5 0.3,-0.7 0.5,-1.6 0.3,-2.2 0,-0.5 0,-1 0.5,-1.5 1,-0.8 2,0 2,1.5 0,0.6 0,1.6 0.5,2.2 0.3,0.8 0.4,1.4 0,1.6 0,0.5 -0.3,0.8 -0.3,1 0,0.3 0.3,0 0.6,-0.2 0.4,-0.6 0.8,-0.5 3.8,1 1.8,1 4,2.4 5,3.3 1.6,1.7 4,6 4,7.6 0,0.5 -1,2 -2,3.3 -2,2 -2.5,2.3 -4.4,3 -2.2,0.3 -11.8,1 -13.4,0.4 z m 6.2,-8.3 c 1,0 5.7,1 9,2 0.8,0 0.8,0 0.3,-0.2 0,-0.2 -2.6,-1 -5.4,-1.7 l -5,-1 -5.2,1.3 c -3,0.8 -5.4,1.6 -5.6,1.7 h 0.5 c 2.3,-0.7 8.3,-2 9.2,-2 1,0 1,0.2 1,3 v 2.8 l 0.3,-3 c 0,-2.6 0.2,-2.8 1,-2.8 z M 139,82.2 v -0.8 c -0.3,1 -0.3,1 -0.6,0 -0.3,-0.7 -0.3,0.8 0,2.8 h 0.3 c 0,-0.3 0.3,-1 0.3,-2 z m -1.2,-3.4 c 0,-0.4 -0.2,-0.2 -0.2,0.5 0,0.7 0,1 0.2,0.8 0,0 0.2,-0.7 0,-1 z m 1.7,0 c 0,-0.4 -0.2,-0.2 -0.2,0.5 0,0.7 0,1 0.2,0.8 v -1 z"
       id="path3971"
       inkscape:connector-curvature="0" />
    <path
       d="m 134.4,129 c -4.8,-1 -9.8,-5.2 -11,-9.5 -0.8,-2 -0.8,-2.2 0,-2.7 l 2,-1.4 1.4,-1 2.5,2 c 2.7,2.3 6.2,4.7 8,5.4 1,0.4 1.7,0.4 2.7,0 1.8,-1 6,-3.7 8.4,-5.7 l 2,-1.5 1.4,1 2,1.4 c 0.8,0.4 0.8,0.5 0,2.6 -2,7 -10.8,11.2 -19.4,9.4 z m 10.4,-2.2 c 1.4,-0.6 3,-1.7 4.5,-3 l 2,-2.2 -1.8,1.6 c -1,0.8 -3,2 -4.3,2.6 -2.2,1 -3,1.2 -6.6,1.2 -3.6,0 -4.4,0 -6.6,-1.2 -1.3,-0.6 -3.3,-1.8 -4.3,-2.7 l -2,-1.3 1.7,1.8 c 2,2 5,3.7 7.7,4.3 2.8,0.5 7,0 10,-1 z M 134,119 c -1.6,-1 -4,-2.5 -5,-3.6 -2,-2 -2.2,-2.3 -4.3,-8.8 -1.5,-5 -2.2,-7.7 -2.3,-10 -0.2,-3 -0.2,-3.4 0.4,-3.4 0.4,0 1,0.5 1.3,1.2 1.3,2 5.4,6 8,7.2 5.4,2.7 8,2.7 13.3,0 2.7,-1.2 6.8,-5 8,-7.2 0.2,-0.7 0.8,-1.2 1.2,-1.2 0.6,0 0.6,0.4 0.4,3.3 0,2.4 -1,5 -2.4,10 -2,6.6 -2.3,7 -4.2,9 -2.4,2.2 -8,5.4 -9.8,5.3 -0.6,0 -2.6,-0.8 -4.4,-1.7 z m 3.6,-14.3 c 0,-0.3 -0.4,-0.5 -0.8,-0.5 -1,0 -6,-2.3 -8,-3.8 -1.2,-0.7 -3,-2.5 -4,-4 -2,-2.6 -2.8,-3 -1.4,-0.5 2,3 6.3,6.2 11.2,8 3.2,1.2 3,1 3,0.6 z m 8,-2 c 3.3,-1.6 6.7,-4.5 8,-6.8 1.6,-2.7 0.8,-2.3 -1.2,0.4 -1,1.4 -2.8,3.2 -4,4 -2,1.4 -7,3.7 -8,3.7 -0.4,0 -0.8,0.3 -0.8,0.5 0,0.6 2.7,-0.2 6,-2 z m -12,-3.4 -3.2,-0.7 c -2.2,-0.4 -2.6,-0.7 -4.4,-2.8 -1.2,-1.3 -2,-2.8 -2,-3.3 0,-1.5 2.2,-6 4,-7.5 0.8,-1 3,-2.4 4.8,-3.3 3,-1.5 3.4,-1.6 3.8,-1 0.3,0.4 0.5,0.5 0.5,0.3 0,-0.3 0,-0.6 -0.2,-1 -0.2,0 0,-0.7 0.2,-1.5 0.3,-0.7 0.5,-1.6 0.3,-2.2 0,-0.5 0,-1 0.5,-1.5 1,-0.8 2,0 2,1.5 0,0.6 0,1.6 0.5,2.2 0.3,0.8 0.4,1.4 0,1.6 0,0.5 -0.3,0.8 -0.3,1 0,0.3 0.3,0 0.6,-0.2 0.4,-0.6 0.8,-0.5 3.8,1 1.8,1 4,2.4 5,3.3 1.6,1.7 4,6 4,7.6 0,0.5 -1,2 -2,3.3 -2,2 -2.5,2.3 -4.4,3 -2.2,0.3 -11.8,1 -13.4,0.4 z m 6.2,-8.3 c 1,0 5.7,1 9,2 0.8,0 0.8,0 0.3,-0.2 0,-0.2 -2.6,-1 -5.4,-1.7 l -5,-1 -5.2,1.3 c -3,0.8 -5.4,1.6 -5.6,1.7 h 0.5 c 2.3,-0.7 8.3,-2 9.2,-2 1,0 1,0.2 1,3 v 2.8 l 0.3,-3 c 0,-2.6 0.2,-2.8 1,-2.8 z M 139,82.2 v -0.8 c -0.3,1 -0.3,1 -0.6,0 -0.3,-0.7 -0.3,0.8 0,2.8 h 0.3 c 0,-0.3 0.3,-1 0.3,-2 z m -1.2,-3.4 c 0,-0.4 -0.2,-0.2 -0.2,0.5 0,0.7 0,1 0.2,0.8 0,0 0.2,-0.7 0,-1 z m 1.7,0 c 0,-0.4 -0.2,-0.2 -0.2,0.5 0,0.7 0,1 0.2,0.8 v -1 z"
       id="path3973"
       inkscape:connector-curvature="0" />
    <path
       d="m 134.4,129 c -4.8,-1 -9.8,-5.2 -11,-9.5 -0.8,-2 -0.8,-2.2 0,-2.7 l 2,-1.4 1.4,-1 2.5,2 c 2.7,2.3 6.2,4.7 8,5.4 1,0.4 1.7,0.4 2.7,0 1.8,-1 6,-3.7 8.4,-5.7 l 2,-1.5 1.4,1 2,1.4 c 0.8,0.4 0.8,0.5 0,2.6 -2,7 -10.8,11.2 -19.4,9.4 z m 10.4,-2.2 c 1.4,-0.6 3,-1.7 4.5,-3 l 2,-2.2 -1.8,1.6 c -1,0.8 -3,2 -4.3,2.6 -2.2,1 -3,1.2 -6.6,1.2 -3.6,0 -4.4,0 -6.6,-1.2 -1.3,-0.6 -3.3,-1.8 -4.3,-2.7 l -2,-1.3 1.7,1.8 c 2,2 5,3.7 7.7,4.3 2.8,0.5 7,0 10,-1 z M 134,119 c -1.6,-1 -4,-2.5 -5,-3.6 -2,-2 -2.2,-2.3 -4.3,-8.8 -1.5,-5 -2.2,-7.7 -2.3,-10 -0.2,-3 -0.2,-3.4 0.4,-3.4 0.4,0 1,0.5 1.3,1.2 1.3,2 5.4,6 8,7.2 5.4,2.7 8,2.7 13.3,0 2.7,-1.2 6.8,-5 8,-7.2 0.2,-0.7 0.8,-1.2 1.2,-1.2 0.6,0 0.6,0.4 0.4,3.3 0,2.4 -1,5 -2.4,10 -2,6.6 -2.3,7 -4.2,9 -2.4,2.2 -8,5.4 -9.8,5.3 -0.6,0 -2.6,-0.8 -4.4,-1.7 z m 3.6,-14.3 c 0,-0.3 -0.4,-0.5 -0.8,-0.5 -1,0 -6,-2.3 -8,-3.8 -1.2,-0.7 -3,-2.5 -4,-4 -2,-2.6 -2.8,-3 -1.4,-0.5 2,3 6.3,6.2 11.2,8 3.2,1.2 3,1 3,0.6 z m 8,-2 c 3.3,-1.6 6.7,-4.5 8,-6.8 1.6,-2.7 0.8,-2.3 -1.2,0.4 -1,1.4 -2.8,3.2 -4,4 -2,1.4 -7,3.7 -8,3.7 -0.4,0 -0.8,0.3 -0.8,0.5 0,0.6 2.7,-0.2 6,-2 z m -12,-3.4 -3.2,-0.7 c -2.2,-0.4 -2.6,-0.7 -4.4,-2.8 -1.2,-1.3 -2,-2.8 -2,-3.3 0,-1.5 2.2,-6 4,-7.5 0.8,-1 3,-2.4 4.8,-3.3 3,-1.5 3.4,-1.6 3.8,-1 0.3,0.4 0.5,0.5 0.5,0.3 0,-0.3 0,-0.6 -0.2,-1 -0.2,0 0,-0.7 0.2,-1.5 0.3,-0.7 0.5,-1.6 0.3,-2.2 0,-0.5 0,-1 0.5,-1.5 1,-0.8 2,0 2,1.5 0,0.6 0,1.6 0.5,2.2 0.3,0.8 0.4,1.4 0,1.6 0,0.5 -0.3,0.8 -0.3,1 0,0.3 0.3,0 0.6,-0.2 0.4,-0.6 0.8,-0.5 3.8,1 1.8,1 4,2.4 5,3.3 1.6,1.7 4,6 4,7.6 0,0.5 -1,2 -2,3.3 -2,2 -2.5,2.3 -4.4,3 -2.2,0.3 -11.8,1 -13.4,0.4 z m 6.2,-8.3 c 1,0 5.7,1 9,2 0.8,0 0.8,0 0.3,-0.2 0,-0.2 -2.6,-1 -5.4,-1.7 l -5,-1 -5.2,1.3 c -3,0.8 -5.4,1.6 -5.6,1.7 h 0.5 c 2.3,-0.7 8.3,-2 9.2,-2 1,0 1,0.2 1,3 v 2.8 l 0.3,-3 c 0,-2.6 0.2,-2.8 1,-2.8 z M 139,82.2 v -0.8 c -0.3,1 -0.3,1 -0.6,0 -0.3,-0.7 -0.3,0.8 0,2.8 h 0.3 c 0,-0.3 0.3,-1 0.3,-2 z m -1.2,-3.4 c 0,-0.4 -0.2,-0.2 -0.2,0.5 0,0.7 0,1 0.2,0.8 0,0 0.2,-0.7 0,-1 z m 1.7,0 c 0,-0.4 -0.2,-0.2 -0.2,0.5 0,0.7 0,1 0.2,0.8 v -1 z"
       id="path3975"
       inkscape:connector-curvature="0" />
  </g>
  <g
     id="g3977"
     transform="matrix(1.2736318,0,0,1.2735955,1.2736318,30.573596)">
    <title
       id="title3979">Layer 3</title>
    <g
       stroke="null"
       id="g3981">
      <path
         d="m 196.6,255.2 c -1.7,-2 -4.7,-8 -7.6,-15.2 -0.2,-0.3 0.8,0.5 2,1.8 1.2,1.3 2.6,2.3 2.7,2.3 0.4,0 -3,-8.7 -4,-10 -1.6,-1.7 -0.8,-1.7 1.2,0 1,1.3 2,2 2,2 0.5,-0.4 -2.5,-8 -3.4,-9.3 -1.7,-2 -0.7,-1.8 1.7,0.4 1.5,1.4 2.6,2.3 2.6,2 l -2,-5 -2.6,-5.6 c 0,-0.4 0.7,0 1.8,1 1,1 2.2,1.8 2.4,1.8 0.4,0 -2.6,-7.4 -3.8,-9.4 -1.4,-2 -0.6,-2.3 1,-0.4 0.5,0.7 1.5,1.5 2,2 1,0.4 1,0.2 -0.2,-2.8 -0.6,-1.8 -1.6,-4.2 -2.2,-5.4 -0.7,-1 -1,-2.4 -1,-2.8 0,-0.4 0,-0.2 0.4,0.3 0.5,1 5.7,5.2 5.7,4.7 l -1,-2.6 c 0,0 -1.3,-3.7 -1.3,-5.3 0,-1.6 -0.2,-4 -0.5,-5.7 -0.3,-1.7 -0.4,-3 -0.2,-3 0.2,0 1,1.8 2,4 l 1.6,3.8 1,-2.8 2,-8 1,-5.3 v 3.2 c 0.7,5 2.8,12.2 3.5,11.5 l 2,-3.6 1.2,-3 -0.3,4.3 c -0.3,5.5 -1.2,10 -2.2,11 -0.4,0.2 -0.8,1 -0.8,1 0,0.7 2.7,-1 5,-3.5 1.8,-1.8 2.6,-1.7 1,0.2 -1,1.4 -4.3,10 -3.8,10 0.2,0 1.3,-0.8 2.3,-2 1,-1 2,-1.7 2,-1.7 l -1.8,3.8 c -3.3,6.5 -3.3,8.4 0,5 0.8,-1 1.4,-1.5 1.3,-1 -0.3,0.2 -1,2.2 -2,4.2 -3,7.4 -3,8.2 0.5,4.3 1,-1.2 2,-2 2,-2 0,0 -1,2.7 -2.5,5.7 -1.4,3 -2.5,5.7 -2.3,6 0,0 1.2,-0.6 2.3,-1.5 1.1,-0.9 2,-1.4 2,-1 0,0.3 -0.3,0.6 -0.5,0.6 -0.3,0 -1.3,2 -2,4.4 -1,2.3 -2,4.6 -2.3,5 -0.8,1.2 0.2,0.7 3,-1.5 1,-1 1.8,-1.3 1.8,-1 0,0.3 -0.3,1 -0.6,1 -0.8,0.5 -3.5,7 -3.5,8 0,0.3 -1,2 -2,4 -3,5 -4.3,5 -7.4,1.3 z"
         id="path3983"
         inkscape:connector-curvature="0"
         style="fill:#fcf646" />
      <path
         d="m 196.6,255.2 c -1.7,-2 -4.7,-8 -7.6,-15.2 -0.2,-0.3 0.8,0.5 2,1.8 1.2,1.3 2.6,2.3 2.7,2.3 0.4,0 -3,-8.7 -4,-10 -1.6,-1.7 -0.8,-1.7 1.2,0 1,1.3 2,2 2,2 0.5,-0.4 -2.5,-8 -3.4,-9.3 -1.7,-2 -0.7,-1.8 1.7,0.4 1.5,1.4 2.6,2.3 2.6,2 l -2,-5 -2.6,-5.6 c 0,-0.4 0.7,0 1.8,1 1,1 2.2,1.8 2.4,1.8 0.4,0 -2.6,-7.4 -3.8,-9.4 -1.4,-2 -0.6,-2.3 1,-0.4 0.5,0.7 1.5,1.5 2,2 1,0.4 1,0.2 -0.2,-2.8 -0.6,-1.8 -1.6,-4.2 -2.2,-5.4 -0.7,-1 -1,-2.4 -1,-2.8 0,-0.4 0,-0.2 0.4,0.3 0.5,1 5.7,5.2 5.7,4.7 l -1,-2.6 c 0,0 -1.3,-3.7 -1.3,-5.3 0,-1.6 -0.2,-4 -0.5,-5.7 -0.3,-1.7 -0.4,-3 -0.2,-3 0.2,0 1,1.8 2,4 l 1.6,3.8 1,-2.8 2,-8 1,-5.3 v 3.2 c 0.7,5 2.8,12.2 3.5,11.5 l 2,-3.6 1.2,-3 -0.3,4.3 c -0.3,5.5 -1.2,10 -2.2,11 -0.4,0.2 -0.8,1 -0.8,1 0,0.7 2.7,-1 5,-3.5 1.8,-1.8 2.6,-1.7 1,0.2 -1,1.4 -4.3,10 -3.8,10 0.2,0 1.3,-0.8 2.3,-2 1,-1 2,-1.7 2,-1.7 l -1.8,3.8 c -3.3,6.5 -3.3,8.4 0,5 0.8,-1 1.4,-1.5 1.3,-1 -0.3,0.2 -1,2.2 -2,4.2 -3,7.4 -3,8.2 0.5,4.3 1,-1.2 2,-2 2,-2 0,0 -1,2.7 -2.5,5.7 -1.4,3 -2.5,5.7 -2.3,6 0,0 1.2,-0.6 2.3,-1.5 1.1,-0.9 2,-1.4 2,-1 0,0.3 -0.3,0.6 -0.5,0.6 -0.3,0 -1.3,2 -2,4.4 -1,2.3 -2,4.6 -2.3,5 -0.8,1.2 0.2,0.7 3,-1.5 1,-1 1.8,-1.3 1.8,-1 0,0.3 -0.3,1 -0.6,1 -0.8,0.5 -3.5,7 -3.5,8 0,0.3 -1,2 -2,4 -3,5 -4.3,5 -7.4,1.3 z m 2,-0.7 -0.3,-3.4 c -0.4,-1.6 -3,-5 -5,-6 l -1.5,-1 1.5,4 c 1,2 2.5,5 3.6,6.2 l 2,2.5 -0.4,-2 z m 6.8,-6 c 1,-2.2 1.6,-4.2 1.4,-4.3 -0.4,-0.5 -4.5,3.3 -5.5,5.2 -0.5,1 -1,3 -1.2,4.4 v 2.7 l 2,-2 c 1,-1.2 2.5,-4 3.5,-6 z M 199,246 c -0.7,-4 -1.8,-6 -4.7,-8 -3,-2.3 -2.8,-2.3 -0.5,3.3 1,2.2 4.7,7.7 5.3,7.8 0.3,0 0,-1.2 0,-3 z m 6.4,-5.2 c 1,-2 1.5,-4 1.4,-4 0,-0.2 -1.2,0.5 -2.5,1.5 -2.6,2 -3.7,4.2 -4.2,8 v 2.7 l 2,-2.2 c 1,-1.2 2.6,-4 3.5,-6 z m -6.6,-2.2 c -0.5,-4 -1.6,-6 -4.5,-8.2 l -2.5,-2 1.5,4 c 1,3 4.6,8.7 5.7,9 z m 6.6,-4.6 1,-3 1.2,-2.6 -1.5,1 c -3.7,2.8 -5.6,6 -5.6,9.7 v 2 l 2.5,-3 c 1.4,-2 2.5,-3.6 2.5,-4 z m -6.8,-4.6 c -0.5,-2.7 -1,-3.8 -3,-5.5 -1.3,-1.4 -2.6,-2.4 -2.8,-2.4 -0.5,0 0.7,4 1.8,6.3 1,2 4.2,6 4.5,5.2 0.3,-0.3 0,-2 -0.3,-4 z m 7,-4.2 c 1,-2 1.5,-3.7 1.5,-4 l -2,1.5 c -2.6,2 -4.6,6 -4.6,8.8 v 2 l 2,-2.4 c 1,-1 2.6,-4 3.4,-5.7 z m -6.8,-2.4 c -0.3,-2.8 -0.7,-3.7 -3,-6 -1.2,-1.4 -2.6,-2.6 -3,-2.6 -1.2,0 2.4,8.4 4,9.3 0.6,0.4 1.3,1.3 1.5,2 0.7,2.2 1,0.7 0.5,-2.7 z m 7,-4.7 1.5,-3.6 c 1,-1.3 -2.8,1.2 -4.5,3 -1.4,1.4 -2.5,4.8 -2.5,7.3 0,1.2 0.2,1 2.2,-1 1.2,-1.5 2.7,-4 3.2,-5.5 z m -7,-2.6 c -0.3,-3.6 -2,-6.4 -4.7,-8 l -1.6,-1.2 0.8,2.6 1.6,4 c 0.7,1.3 4,5.8 4.5,6 0.2,0 0,-1.5 0,-3.3 z m 7.2,-5.4 c 1,-2.2 1.5,-4 1.4,-4 -0.2,0 -1.3,1 -2.6,1.8 -2.7,2 -3.8,4 -4.3,8 l -0.4,3 2.4,-2.6 c 1,-1.4 2.8,-4.3 3.7,-6.3 z m -8,-8 c -0.6,-1.3 -1.8,-3.2 -2.6,-4.2 l -1.5,-2 0.2,3.5 c 0.2,2 1,4.5 1.7,6 l 2,4.2 c 0.7,1.7 1,1.7 1,-1.7 0,-2.5 0,-4 -1,-5.8 z m 6.2,2 c 0.7,-1.4 1.2,-3.6 1.2,-5 v -2.5 l -2,2.5 c -2.2,2.8 -3,5.6 -3,9.6 v 2.8 l 1.3,-2.5 2.5,-5 z m -2.3,-7.4 -1.3,-5 -0.7,-2.8 -1,3.2 c -1.6,5.8 -1.7,6.5 -0.4,9 l 1.3,2 1,-2.2 c 1,-1.8 1.2,-2.7 1,-4.2 z"
         id="path3985"
         inkscape:connector-curvature="0" />
    </g>
    <g
       stroke="null"
       id="g3987">
      <path
         d="m 235,255.2 c -1.8,-2 -4.8,-8 -7.7,-15.2 -0.2,-0.3 0.8,0.5 2,1.8 1.2,1.3 2.6,2.3 2.7,2.3 0.5,0 -3,-8.7 -4,-10 -1.6,-1.7 -0.8,-1.7 1.3,0 1,1.3 2,2 2.3,2 0.3,-0.4 -2.7,-8 -3.6,-9.3 -1.6,-2 -0.7,-1.8 1.8,0.4 1.4,1.4 2.5,2.3 2.5,2 l -2,-5 -2.4,-5.6 c -0.4,-0.4 0.4,0 1.5,1 1.2,1 2.2,1.8 2.4,1.8 0.4,0 -2.6,-7.4 -4,-9.4 -1,-2 -0.4,-2.3 1,-0.4 l 2,2 c 1,0.4 1,0.2 0,-2.8 l -2,-5.6 c -0.7,-1 -1.2,-2.4 -1.2,-2.8 0,-0.4 0.3,-0.2 0.6,0.3 0.5,1 5.7,5.2 5.7,4.7 l -1,-2.6 c 0,0 -1,-3.7 -1.2,-5.3 l -0.4,-5.7 c 0,0 -0.3,-3 0,-3 0,0 1,1.8 1.8,4 l 1.7,3.8 1,-2.8 1.6,-8 1,-5.3 0.4,3.2 c 0.5,5 2.6,12.2 3.3,11.5 0.4,-0.4 1.3,-2 2,-3.6 l 1.3,-3 -0.2,4.3 c -0.3,5.6 -1.2,10 -2.2,11 -0.4,0.3 -0.8,1 -0.8,1.2 0,0.5 2.7,-1.3 5,-3.7 2,-1.8 2.6,-1.7 1,0.2 -1,1.4 -4.3,10 -3.7,10 0.2,0 1.3,-0.8 2.3,-2 1,-1 2,-1.7 2,-1.7 0.2,0 -0.6,1.6 -1.7,3.8 -3.3,6.5 -3.3,8.4 0,5 0.8,-1 1.4,-1.5 1.2,-1 l -1.8,4.2 c -3.2,7.4 -3,8.2 0.5,4.3 l 2,-2 -2.7,5.8 c -1.4,3 -2.4,5.7 -2.3,6 0.2,0 1.2,-0.6 2.3,-1.5 1.1,-0.9 2,-1.4 2,-1 0,0.3 -0.2,0.6 -0.5,0.6 -0.3,0 -1.2,2 -2,4.2 -1,2.3 -2,4.6 -2.3,5 -0.8,1.2 0.2,0.7 3,-1.5 1,-0.8 1.8,-1.2 1.8,-1 0,0.4 -0.3,1 -0.6,1 -0.7,0.6 -3.5,7 -3.5,8 0,0.4 -1,2.2 -2,4 -3,5 -4.3,5 -7.4,1.4 z"
         id="path3989"
         inkscape:connector-curvature="0"
         style="fill:#fcf646" />
      <path
         d="m 235,255.2 c -1.8,-2 -4.8,-8 -7.7,-15.2 -0.2,-0.3 0.8,0.5 2,1.8 1.2,1.3 2.6,2.3 2.7,2.3 0.5,0 -3,-8.7 -4,-10 -1.6,-1.7 -0.8,-1.7 1.3,0 1,1.3 2,2 2.3,2 0.3,-0.4 -2.7,-8 -3.6,-9.3 -1.6,-2 -0.7,-1.8 1.8,0.4 1.4,1.4 2.5,2.3 2.5,2 l -2,-5 -2.4,-5.6 c -0.4,-0.4 0.4,0 1.5,1 1.2,1 2.2,1.8 2.4,1.8 0.4,0 -2.6,-7.4 -4,-9.4 -1,-2 -0.4,-2.3 1,-0.4 l 2,2 c 1,0.4 1,0.2 0,-2.8 l -2,-5.6 c -0.7,-1 -1.2,-2.4 -1.2,-2.8 0,-0.4 0.3,-0.2 0.6,0.3 0.5,1 5.7,5.2 5.7,4.7 l -1,-2.6 c 0,0 -1,-3.7 -1.2,-5.3 l -0.4,-5.7 c 0,0 -0.3,-3 0,-3 0,0 1,1.8 1.8,4 l 1.7,3.8 1,-2.8 1.6,-8 1,-5.3 0.4,3.2 c 0.5,5 2.6,12.2 3.3,11.5 0.4,-0.4 1.3,-2 2,-3.6 l 1.3,-3 -0.2,4.3 c -0.3,5.6 -1.2,10 -2.2,11 -0.4,0.3 -0.8,1 -0.8,1.2 0,0.5 2.7,-1.3 5,-3.7 2,-1.8 2.6,-1.7 1,0.2 -1,1.4 -4.3,10 -3.7,10 0.2,0 1.3,-0.8 2.3,-2 1,-1 2,-1.7 2,-1.7 0.2,0 -0.6,1.6 -1.7,3.8 -3.3,6.5 -3.3,8.4 0,5 0.8,-1 1.4,-1.5 1.2,-1 l -1.8,4.2 c -3.2,7.4 -3,8.2 0.5,4.3 l 2,-2 -2.7,5.8 c -1.4,3 -2.4,5.7 -2.3,6 0.2,0 1.2,-0.6 2.3,-1.5 1.1,-0.9 2,-1.4 2,-1 0,0.3 -0.2,0.6 -0.5,0.6 -0.3,0 -1.2,2 -2,4.2 -1,2.3 -2,4.6 -2.3,5 -0.8,1.2 0.2,0.7 3,-1.5 1,-0.8 1.8,-1.2 1.8,-1 0,0.4 -0.3,1 -0.6,1 -0.7,0.6 -3.5,7 -3.5,8 0,0.4 -1,2.2 -2,4 -3,5 -4.3,5 -7.4,1.4 z m 2,-0.7 c 0,-1 -0.3,-2.6 -0.4,-3.4 -0.4,-1.6 -3,-5 -5,-6 l -1.5,-1 1.8,4 c 0.8,2 2.4,5 3.5,6.2 l 2,2.5 v -2 z m 6.7,-6 c 1,-2.2 1.6,-4.2 1.5,-4.3 -0.5,-0.5 -4.5,3.3 -5.5,5.2 -0.5,1 -1,3 -1.2,4.4 l -0.3,2.7 2,-2 c 1,-1.2 2.6,-4 3.5,-6 z m -6.5,-2.4 c -0.6,-4 -1.6,-6 -4.6,-8 -2.8,-2.2 -2.8,-2.2 -0.4,3.4 1,2.2 4.6,7.7 5.2,7.8 l -0.2,-3 z m 6.5,-5 c 1,-2 1.6,-4 1.4,-4 0,-0.3 -1,0.4 -2.2,1.4 -2.6,2 -3.8,4.2 -4.2,8 l -0.3,2.7 2,-2 c 1,-1.3 2.7,-4 3.5,-6 z m -6.6,-2.3 c -0.3,-4 -1.3,-6 -4.2,-8.2 l -2.6,-2 1.6,4 c 1,3 4.7,8.7 5.7,9 l -0.2,-2.8 z m 6.8,-4.6 c 0,-0.2 0.5,-1.6 1.2,-3 l 1,-2.5 -1.6,1 c -4,2.8 -5.8,6 -5.8,9.7 v 2 l 2.6,-3.2 c 1.4,-1.8 2.5,-3.5 2.5,-3.8 z m -6.8,-4.5 c -0.6,-2.7 -1.2,-3.8 -3,-5.5 -1.4,-1.3 -2.6,-2.3 -3,-2.3 -0.3,0 0.8,4 2,6.3 1,2.2 4.2,6 4.4,5.3 0,-0.3 0,-2 -0.5,-4 z m 7,-4.2 c 0.8,-2 1.5,-3.7 1.5,-4 l -2.3,1.5 c -2.6,2 -4.6,6 -4.6,8.8 v 2 l 2,-2.4 c 1,-1.2 2.6,-4 3.4,-5.8 z m -6.8,-2.4 c -0.4,-3 -0.8,-3.8 -3,-6 -1.3,-1.5 -2.7,-2.7 -3,-2.7 -1.2,0 2.3,8.4 4,9.3 0.6,0.4 1.2,1.3 1.4,2 0.7,2.2 1,0.7 0.6,-2.7 z m 6.8,-4.8 c 0.6,-1.5 1.3,-3.2 1.7,-3.7 1,-1.3 -3,1.2 -4.6,3 -1,1.4 -2.3,4.8 -2.3,7.3 0,1.2 0.3,1 2.2,-1 1,-1.5 2.6,-4 3,-5.5 z m -6.8,-2.7 c -0.4,-3.6 -2,-6.4 -4.8,-8 l -1.7,-1.2 0.8,2.6 c 0.4,1.2 1,3 1.5,4 0.6,1.2 4,5.7 4.4,6 z m 7.2,-5.4 c 0.8,-2 1.5,-4 1.3,-4 l -2.7,2 c -2.6,2 -3.7,4 -4.2,8 l -0.4,3 2.2,-2.6 c 1.2,-1.4 3,-4.3 3.8,-6.3 z m -8,-8 -2.7,-4 -1.5,-2 0.4,3.4 c 0.2,2 1,4.5 1.8,6 0.7,1.3 1.7,3.2 2,4.2 0.8,1.7 0.8,1.7 1,-1.7 0,-2.6 -0.2,-4 -1,-6 z m 6.2,2 c 0.6,-1.3 1,-3.5 1,-5 v -2.4 l -2,2.5 c -2,3 -3,5.7 -3,9.7 v 2.8 l 1.4,-2.5 2.6,-5 z m -2.3,-7.3 -1.2,-5 -0.5,-2.8 -1,3 c -1.7,6 -1.7,6.6 -0.4,9 l 1.3,2 1.3,-2 c 1,-2 1,-2.8 0.8,-4.3 z"
         id="path3991"
         inkscape:connector-curvature="0" />
    </g>
    <g
       stroke="null"
       id="g3993">
      <path
         d="m 273.2,255.2 c -1.6,-2 -4.7,-8 -7.6,-15.2 0,-0.3 0.8,0.5 2,1.8 1.2,1.3 2.6,2.3 2.8,2.3 0.4,0 -3,-8.7 -4,-10 -1.6,-1.7 -0.8,-1.7 1.2,0 1,1.3 2.2,2 2.3,2 0,-0.4 -2.8,-8 -3.7,-9.3 -1.7,-2 -0.8,-1.8 1.7,0.4 1.5,1.4 2.7,2.3 2.7,2 l -2,-5 -2.5,-5.6 c 0,-0.4 0.7,0 1.8,1 1,1 2.2,1.8 2.3,1.8 0.5,0 -2.5,-7.4 -3.8,-9.4 -1.2,-2 -0.5,-2.3 1,-0.4 l 2.2,2 c 1,0.4 1,0.2 -0.2,-2.8 -0.6,-1.8 -1.7,-4.2 -2.3,-5.4 -0.6,-1 -1,-2.4 -1,-2.8 0,-0.4 0.2,-0.2 0.5,0.3 0.5,1 5.7,5.2 5.7,4.7 l -1,-2.6 c 0,0 -1.3,-3.7 -1.3,-5.3 0,-1.6 0,-4 -0.3,-5.7 -0.3,-1.7 -0.3,-3 0,-3 l 2,4 1.5,3.8 1,-2.8 1.8,-8 1,-5.3 0.3,3.2 c 0.6,5 2.8,12.2 3.5,11.5 l 2,-3.6 1.2,-3 -0.3,4.3 c -0.3,5.5 -1.2,10 -2.2,11 -0.5,0.2 -0.8,1 -0.8,1 0,0.7 2.7,-1 5,-3.5 1.8,-1.8 2.6,-1.7 1,0.2 -1,1.4 -4.4,10 -3.8,10 0.2,0 1.2,-0.8 2.2,-2 1,-1 2,-1.7 2,-1.7 l -1.7,3.8 c -3.3,6.5 -3.3,8.4 0,5 0.8,-1 1.4,-1.5 1.3,-1 l -2,4.2 c -3,7.4 -3,8.2 0.6,4.3 1,-1.2 2,-2 2,-2 0,0 -1,2.7 -2.5,5.7 -1.5,3 -2.6,5.7 -2.4,6 l 2.2,-1.5 c 0,0 2,-1.4 2,-1 0,0.3 -0.2,0.6 -0.5,0.6 l -2,4.4 c -0.8,2.3 -1.8,4.6 -2.2,5 -0.6,1.2 0.3,0.7 3,-1.5 1,-1 2,-1.3 2,-1 0,0.3 -0.3,1 -0.7,1 -0.6,0.5 -3.4,7 -3.4,8 0,0.3 -1,2 -2,4 -3,5 -4.4,5 -7.5,1.3 z"
         id="path3995"
         inkscape:connector-curvature="0"
         style="fill:#fcf646" />
      <path
         d="m 273.2,255.2 c -1.6,-2 -4.7,-8 -7.6,-15.2 0,-0.3 0.8,0.5 2,1.8 1.2,1.3 2.6,2.3 2.8,2.3 0.4,0 -3,-8.7 -4,-10 -1.6,-1.7 -0.8,-1.7 1.2,0 1,1.3 2.2,2 2.3,2 0,-0.4 -2.8,-8 -3.7,-9.3 -1.7,-2 -0.8,-1.8 1.7,0.4 1.5,1.4 2.7,2.3 2.7,2 l -2,-5 -2.5,-5.6 c 0,-0.4 0.7,0 1.8,1 1,1 2.2,1.8 2.3,1.8 0.5,0 -2.5,-7.4 -3.8,-9.4 -1.2,-2 -0.5,-2.3 1,-0.4 l 2.2,2 c 1,0.4 1,0.2 -0.2,-2.8 -0.6,-1.8 -1.7,-4.2 -2.3,-5.4 -0.6,-1 -1,-2.4 -1,-2.8 0,-0.4 0.2,-0.2 0.5,0.3 0.5,1 5.7,5.2 5.7,4.7 l -1,-2.6 c 0,0 -1.3,-3.7 -1.3,-5.3 0,-1.6 0,-4 -0.3,-5.7 -0.3,-1.7 -0.3,-3 0,-3 l 2,4 1.5,3.8 1,-2.8 1.8,-8 1,-5.3 0.3,3.2 c 0.6,5 2.8,12.2 3.5,11.5 l 2,-3.6 1.2,-3 -0.3,4.3 c -0.3,5.5 -1.2,10 -2.2,11 -0.5,0.2 -0.8,1 -0.8,1 0,0.7 2.7,-1 5,-3.5 1.8,-1.8 2.6,-1.7 1,0.2 -1,1.4 -4.4,10 -3.8,10 0.2,0 1.2,-0.8 2.2,-2 1,-1 2,-1.7 2,-1.7 l -1.7,3.8 c -3.3,6.5 -3.3,8.4 0,5 0.8,-1 1.4,-1.5 1.3,-1 l -2,4.2 c -3,7.4 -3,8.2 0.6,4.3 1,-1.2 2,-2 2,-2 0,0 -1,2.7 -2.5,5.7 -1.5,3 -2.6,5.7 -2.4,6 l 2.2,-1.5 c 0,0 2,-1.4 2,-1 0,0.3 -0.2,0.6 -0.5,0.6 l -2,4.4 c -0.8,2.3 -1.8,4.6 -2.2,5 -0.6,1.2 0.3,0.7 3,-1.5 1,-1 2,-1.3 2,-1 0,0.3 -0.3,1 -0.7,1 -0.6,0.5 -3.4,7 -3.4,8 0,0.3 -1,2 -2,4 -3,5 -4.4,5 -7.5,1.3 z m 2.2,-0.7 c 0,-1 -0.3,-2.6 -0.5,-3.4 -0.5,-1.6 -3,-5 -5,-6 l -1.6,-1 1.5,4 c 0.7,2 2.3,5 3.4,6.2 l 2,2.5 v -2 z m 6.6,-6 c 1,-2.2 1.6,-4.2 1.5,-4.3 -0.5,-0.5 -4.5,3.3 -5.5,5.2 -0.5,1 -1,3 -1.2,4.4 l -0.3,2.7 2,-2 c 1,-1.2 2.6,-4 3.5,-6 z m -6.5,-2.4 c -0.5,-4 -1.6,-6 -4.5,-8 -3,-2.2 -3,-2.2 -0.5,3.4 1,2.2 4.6,7.7 5.2,7.8 l -0.2,-3 z m 6.6,-5 c 1,-2 1.7,-4 1.6,-4 0,-0.3 -1.2,0.4 -2.5,1.4 -2.5,2 -3.7,4.2 -4,8 l -0.4,2.7 2,-2 c 1,-1.3 2.7,-4 3.6,-6 z m -6.5,-2.3 c -0.5,-4 -1.5,-6 -4.4,-8.2 l -2.4,-2 1.4,4 c 1,3 4.6,8.7 5.7,9 0,0.2 0,-1 -0.3,-2.8 z m 6.7,-4.6 1.2,-3 1,-2.5 -1.4,1 c -4,2.8 -5.8,6 -5.8,9.7 v 2 l 2.5,-3.2 c 1.4,-1.8 2.6,-3.5 2.6,-3.8 z m -6.7,-4.5 c -0.6,-2.7 -1.2,-3.8 -3,-5.5 -1.3,-1.3 -2.6,-2.3 -2.8,-2.3 -0.5,0 0.6,4 1.8,6.3 1,2.2 4.2,6 4.4,5.3 0,-0.3 0,-2 -0.5,-4 z m 7,-4.2 c 0.8,-2 1.5,-3.7 1.5,-4 l -2.3,1.5 c -2.6,2 -4.5,6 -4.5,8.8 v 2 l 2,-2.4 c 1,-1.2 2.6,-4 3.4,-5.8 z m -6.8,-2.4 c -0.3,-3 -0.8,-3.8 -3,-6 -1.3,-1.5 -2.6,-2.7 -3,-2.7 -1.2,0 2.3,8.4 4,9.3 0.6,0.4 1.3,1.3 1.5,2 0.6,2.2 1,0.7 0.5,-2.7 z m 7,-4.8 c 0.4,-1.5 1.2,-3.2 1.5,-3.7 1,-1.3 -3,1.2 -4.5,3 -1.4,1.4 -2.5,4.8 -2.5,7.3 0,1.2 0.2,1 2.2,-1 1.2,-1.5 2.6,-4 3.2,-5.5 z m -7,-2.7 c -0.4,-3.6 -2,-6.4 -4.7,-8 l -2,-1.5 0.8,2.6 c 0.5,1.3 1,3 1.5,4 0.7,1.3 4,5.8 4.4,6 0.2,0 0,-1.5 0,-3.3 z m 7.2,-5.4 c 1,-2 1.4,-4 1.2,-4 l -2.5,2 c -2.7,2 -4,4 -4.4,8 l -0.2,3 2,-2.7 c 1.4,-1.4 3,-4.3 4,-6.3 z m -8,-8 -2.7,-4 -1.4,-2 0.3,3.4 c 0.2,2 1,4.5 1.7,6 0.8,1.3 1.7,3.2 2,4.2 0.8,1.7 0.8,1.7 1,-1.7 0,-2.6 0,-4 -1,-6 z m 6,2 c 0.6,-1.3 1,-3.5 1,-5 v -2.4 l -2,2.5 c -2,3 -3,5.7 -3,9.7 v 2.8 l 1.5,-2.5 c 0.7,-1.4 2,-3.7 2.5,-5 z m -2.3,-7.3 c -0.3,-1 -0.8,-3.3 -1,-5 l -0.8,-2.8 -1,3 c -2,6 -2,6.6 -0.6,9 l 1.2,2 1.3,-2 c 1,-2 1,-2.8 0.7,-4.3 z"
         id="path3997"
         inkscape:connector-curvature="0" />
    </g>
    <g
       stroke="null"
       id="g3999">
      <path
         d="m 158.2,255.2 c -1.7,-2 -4.7,-8 -7.6,-15.2 0,-0.3 0.8,0.5 2,1.8 1.2,1.3 2.6,2.3 2.8,2.3 0.4,0 -3,-8.7 -4,-10 -1.6,-1.7 -0.8,-1.7 1.2,0 1,1.3 2.2,2 2.3,2 0,-0.4 -2.8,-8 -3.8,-9.3 -1.6,-2 -0.7,-1.8 1.8,0.4 1.5,1.4 2.7,2.3 2.7,2 l -2,-5 -2.5,-5.6 c -0.2,-0.4 0.7,0 1.8,1 1,1 2.2,1.8 2.3,1.8 0.5,0 -2.5,-7.4 -3.8,-9.4 -1.2,-2 -0.5,-2.3 1,-0.4 l 2.2,2 c 1,0.4 1,0.2 -0.2,-2.8 l -2.3,-5.4 c -0.6,-1 -1,-2.4 -1,-2.8 0,-0.4 0.2,-0.2 0.5,0.3 0.5,1 5.7,5.2 5.7,4.7 l -1.2,-2.6 c 0,0 -1,-3.7 -1,-5.3 0,-1.6 -0.4,-4 -0.6,-5.7 -0.2,-1.7 -0.3,-3 0,-3 0,0 1,1.8 1.8,4 l 1.7,3.8 1,-2.8 1.8,-8 1,-5.3 0.4,3.2 c 0.6,5 2.8,12.2 3.5,11.5 l 2,-3.6 1.2,-3 -0.4,4.3 c -0.3,5.5 -1.2,10 -2.2,11 -0.5,0.2 -0.8,1 -0.8,1 0,0.7 2.6,-1 5,-3.5 1.8,-1.8 2.5,-1.7 1,0.2 -1,1.4 -4.4,10 -3.8,10 0.3,0 1.3,-0.8 2.3,-2 1,-1 2,-1.7 2,-1.7 l -1.6,3.8 c -3.3,6.5 -3.3,8.4 0,5 0.8,-1 1.4,-1.5 1.2,-1 l -1.8,4.2 c -3.2,7.4 -3,8.2 0.5,4.3 1,-1.2 2,-2 2,-2 l -2.6,5.7 c -1.4,3 -2.4,5.7 -2.2,6 l 2.2,-1.5 c 0,0 2,-1.4 2,-1 0,0.3 -0.2,0.6 -0.5,0.6 -0.2,0 -1,2 -2,4.4 -1,2.4 -1.8,4.6 -2.2,5 -0.7,1.2 0.2,0.7 3,-1.5 1,-1 1.8,-1.3 1.8,-1 0,0.3 -0.2,1 -0.6,1 -0.6,0.5 -3.4,7 -3.4,8 0,0.3 -0.8,2 -2,4 -3,5 -4.3,5 -7.4,1.3 z"
         id="path4001"
         inkscape:connector-curvature="0"
         style="fill:#fcf646" />
      <path
         d="m 158.2,255.2 c -1.7,-2 -4.7,-8 -7.6,-15.2 0,-0.3 0.8,0.5 2,1.8 1.2,1.3 2.6,2.3 2.8,2.3 0.4,0 -3,-8.7 -4,-10 -1.6,-1.7 -0.8,-1.7 1.2,0 1,1.3 2.2,2 2.3,2 0,-0.4 -2.8,-8 -3.8,-9.3 -1.6,-2 -0.7,-1.8 1.8,0.4 1.5,1.4 2.7,2.3 2.7,2 l -2,-5 -2.5,-5.6 c -0.2,-0.4 0.7,0 1.8,1 1,1 2.2,1.8 2.3,1.8 0.5,0 -2.5,-7.4 -3.8,-9.4 -1.2,-2 -0.5,-2.3 1,-0.4 l 2.2,2 c 1,0.4 1,0.2 -0.2,-2.8 l -2.3,-5.4 c -0.6,-1 -1,-2.4 -1,-2.8 0,-0.4 0.2,-0.2 0.5,0.3 0.5,1 5.7,5.2 5.7,4.7 l -1.2,-2.6 c 0,0 -1,-3.7 -1,-5.3 0,-1.6 -0.4,-4 -0.6,-5.7 -0.2,-1.7 -0.3,-3 0,-3 0,0 1,1.8 1.8,4 l 1.7,3.8 1,-2.8 1.8,-8 1,-5.3 0.4,3.2 c 0.6,5 2.8,12.2 3.5,11.5 l 2,-3.6 1.2,-3 -0.4,4.3 c -0.3,5.5 -1.2,10 -2.2,11 -0.5,0.2 -0.8,1 -0.8,1 0,0.7 2.6,-1 5,-3.5 1.8,-1.8 2.5,-1.7 1,0.2 -1,1.4 -4.4,10 -3.8,10 0.3,0 1.3,-0.8 2.3,-2 1,-1 2,-1.7 2,-1.7 l -1.6,3.8 c -3.3,6.5 -3.3,8.4 0,5 0.8,-1 1.4,-1.5 1.2,-1 l -1.8,4.2 c -3.2,7.4 -3,8.2 0.5,4.3 1,-1.2 2,-2 2,-2 l -2.6,5.7 c -1.4,3 -2.4,5.7 -2.2,6 l 2.2,-1.5 c 0,0 2,-1.4 2,-1 0,0.3 -0.2,0.6 -0.5,0.6 -0.2,0 -1,2 -2,4.4 -1,2.4 -1.8,4.6 -2.2,5 -0.7,1.2 0.2,0.7 3,-1.5 1,-1 1.8,-1.3 1.8,-1 0,0.3 -0.2,1 -0.6,1 -0.6,0.5 -3.4,7 -3.4,8 0,0.3 -0.8,2 -2,4 -3,5 -4.3,5 -7.4,1.3 z m 2.2,-0.7 c 0,-1 -0.3,-2.6 -0.5,-3.4 -0.5,-1.6 -3,-5 -5,-6 l -1.7,-1 1.6,4 c 0.7,2 2.3,5 3.4,6.2 l 2,2.5 v -2 z m 6.6,-6 c 1,-2.2 1.6,-4.2 1.5,-4.3 -0.5,-0.5 -4.5,3.3 -5.5,5.2 -0.5,1 -1,3 -1.2,4.4 l -0.3,2.7 2,-2 c 1,-1.2 2.6,-4 3.5,-6 z m -6.5,-2.4 c -0.5,-4 -1.6,-6 -4.5,-8 -3,-2.2 -3,-2.2 -0.5,3.4 1,2.2 4.6,7.7 5.2,7.8 l -0.2,-3 z m 6.6,-5 c 1,-2 1.7,-4 1.6,-4 0,-0.3 -1.3,0.4 -2.5,1.4 -2.5,2 -3.7,4.2 -4,8 l -0.4,2.7 2,-2 c 1,-1.3 2.7,-4 3.6,-6 z m -6.5,-2.3 c -0.5,-4 -1.5,-6 -4.4,-8.2 l -2.4,-2 1.4,4 c 1,3 4.6,8.7 5.7,9 0,0.2 0,-1 -0.3,-2.8 z m 6.7,-4.6 1.2,-3 1,-2.5 -1.4,1 c -4,2.8 -6,6 -6,9.7 v 2 l 2.7,-3.2 c 1.4,-1.8 2.6,-3.5 2.6,-3.8 z m -6.7,-4.5 c -0.6,-2.7 -1.2,-3.8 -3,-5.5 -1.3,-1.3 -2.6,-2.3 -2.8,-2.3 -0.5,0 0.6,4 1.8,6.3 1,2.2 4.2,6 4.4,5.3 0,-0.3 0,-2 -0.5,-4 z m 7,-4.2 c 0.8,-2 1.5,-3.7 1.5,-4 l -2.3,1.5 c -2.6,2 -4.6,6 -4.6,8.8 v 2 l 2,-2.4 c 1,-1.2 2.7,-4 3.5,-5.8 z m -6.8,-2.4 c -0.3,-3 -0.8,-3.8 -3,-6 -1.3,-1.5 -2.7,-2.7 -3,-2.7 -1.2,0 2.3,8.4 4,9.3 0.6,0.4 1.3,1.3 1.5,2 0.6,2.2 1,0.7 0.5,-2.7 z m 7,-4.8 c 0.4,-1.5 1.2,-3.2 1.5,-3.7 1,-1.3 -3,1.2 -4.5,3 -1.4,1.4 -2.5,4.8 -2.6,7.3 0,1.2 0.3,1 2.3,-1 1.2,-1.5 2.6,-4 3.2,-5.5 z m -7,-2.7 c -0.4,-3.6 -2,-6.4 -4.7,-8 l -2,-1.5 0.8,2.6 c 0.4,1.3 1,3 1.5,4 0.7,1.3 4,5.8 4.4,6 0.2,0 0,-1.5 0,-3.3 z m 7.2,-5.4 c 1,-2 1.4,-4 1.2,-4 l -2.5,2 c -2.7,2 -4,4 -4.4,8 l -0.2,3 2,-2.7 c 1.4,-1.4 3,-4.3 4,-6.3 z m -8,-8 -2.7,-4 -1.4,-2 0.2,3.4 c 0.2,2 1,4.5 1.7,6 l 2,4.2 c 0.7,1.7 0.7,1.7 1,-1.7 0,-2.6 0,-4 -1,-6 z m 6,2 c 0.6,-1.3 1,-3.5 1,-5 v -2.4 l -2,2.5 c -2,3 -3,5.7 -3,9.7 v 2.8 l 1.5,-2.5 c 0.7,-1.4 2,-3.7 2.5,-5 z m -2.3,-7.3 -1.2,-5 -0.6,-2.8 -1,3 c -2,6 -2,6.6 -0.6,9 l 1.2,2 1.3,-2 c 1,-2 1,-2.8 0.7,-4.3 z"
         id="path4003"
         inkscape:connector-curvature="0" />
    </g>
    <g
       stroke="null"
       id="g4005">
      <path
         d="m 120,255.2 c -1.8,-2 -4.8,-8 -7.7,-15.2 -0.2,-0.3 0.8,0.5 2,1.8 1.2,1.3 2.6,2.3 2.7,2.3 0.5,0 -3,-8.7 -4,-10 -1.6,-1.7 -0.8,-1.7 1.3,0 1,1.3 2,2 2.2,2 0.4,-0.4 -2.6,-8 -3.5,-9.3 -1.6,-2 -0.7,-1.8 1.8,0.4 1.4,1.4 2.5,2.3 2.5,2 l -2,-5 -2.4,-5.6 c -0.4,-0.4 0.4,0 1.5,1 1.2,1 2.2,1.8 2.4,1.8 0.4,0 -2.6,-7.4 -4,-9.4 -1.2,-2 -0.4,-2.3 1,-0.4 l 2,2 c 1,0.4 1,0.2 0,-2.8 l -2,-5.6 c -0.7,-1 -1.2,-2.4 -1.2,-2.8 0,-0.4 0.3,-0.2 0.6,0.3 0.4,1 5.6,5.2 5.6,4.7 l -1,-2.6 c 0,0 -1.2,-3.7 -1.3,-5.3 l -0.4,-5.7 -0.2,-3 c 0.4,0 1.3,1.8 2,4 l 1.8,3.8 1,-2.8 c 0.3,-1.6 1,-5.2 1.7,-8 l 1,-5.3 0.4,3.2 c 0.4,5 2.5,12.2 3.2,11.5 0.4,-0.4 1.3,-2 2,-3.6 l 1.3,-3 -0.2,4.3 c -0.3,5.6 -1.2,10 -2.2,11 -0.3,0.3 -0.7,1 -0.7,1.2 0,0.5 2.7,-1.3 5,-3.7 1.8,-1.8 2.6,-1.7 1,0.2 -1,1.4 -4.3,10 -3.7,10 0.2,0 1.3,-0.8 2.3,-2 1,-1 2,-1.7 2,-1.7 0,0 -0.7,1.6 -1.8,3.8 -3.3,6.5 -3.3,8.4 0,5 0.8,-1 1.4,-1.5 1.2,-1 l -1.8,4.2 c -3.2,7.4 -3,8.2 0.5,4.3 l 2,-2 -2.6,5.8 c -1.4,3 -2.4,5.7 -2.3,6 0.3,0 1.3,-0.6 2.4,-1.5 1.1,-0.9 2,-1.4 2,-1 0,0.3 -0.2,0.6 -0.5,0.6 -0.3,0 -1.3,2 -2,4.2 -1,2.3 -2,4.6 -2.4,5 -0.8,1.2 0.2,0.7 3,-1.5 1,-0.8 1.8,-1.2 1.8,-1 0,0.4 -0.3,1 -0.6,1 -0.6,0.6 -3.4,7 -3.4,8 0,0.4 -1,2.2 -2,4 -3,5 -4.3,5 -7.4,1.4 z"
         id="path4007"
         inkscape:connector-curvature="0"
         style="fill:#fcf646" />
      <path
         d="m 120,255.2 c -1.8,-2 -4.8,-8 -7.7,-15.2 -0.2,-0.3 0.8,0.5 2,1.8 1.2,1.3 2.6,2.3 2.7,2.3 0.5,0 -3,-8.7 -4,-10 -1.6,-1.7 -0.8,-1.7 1.3,0 1,1.3 2,2 2.2,2 0.4,-0.4 -2.6,-8 -3.5,-9.3 -1.6,-2 -0.7,-1.8 1.8,0.4 1.4,1.4 2.5,2.3 2.5,2 l -2,-5 -2.4,-5.6 c -0.4,-0.4 0.4,0 1.5,1 1.2,1 2.2,1.8 2.4,1.8 0.4,0 -2.6,-7.4 -4,-9.4 -1.2,-2 -0.4,-2.3 1,-0.4 l 2,2 c 1,0.4 1,0.2 0,-2.8 l -2,-5.6 c -0.7,-1 -1.2,-2.4 -1.2,-2.8 0,-0.4 0.3,-0.2 0.6,0.3 0.4,1 5.6,5.2 5.6,4.7 l -1,-2.6 c 0,0 -1.2,-3.7 -1.3,-5.3 l -0.4,-5.7 -0.2,-3 c 0.4,0 1.3,1.8 2,4 l 1.8,3.8 1,-2.8 c 0.3,-1.6 1,-5.2 1.7,-8 l 1,-5.3 0.4,3.2 c 0.4,5 2.5,12.2 3.2,11.5 0.4,-0.4 1.3,-2 2,-3.6 l 1.3,-3 -0.2,4.3 c -0.3,5.6 -1.2,10 -2.2,11 -0.3,0.3 -0.7,1 -0.7,1.2 0,0.5 2.7,-1.3 5,-3.7 1.8,-1.8 2.6,-1.7 1,0.2 -1,1.4 -4.3,10 -3.7,10 0.2,0 1.3,-0.8 2.3,-2 1,-1 2,-1.7 2,-1.7 0,0 -0.7,1.6 -1.8,3.8 -3.3,6.5 -3.3,8.4 0,5 0.8,-1 1.4,-1.5 1.2,-1 l -1.8,4.2 c -3.2,7.4 -3,8.2 0.5,4.3 l 2,-2 -2.6,5.8 c -1.4,3 -2.4,5.7 -2.3,6 0.3,0 1.3,-0.6 2.4,-1.5 1.1,-0.9 2,-1.4 2,-1 0,0.3 -0.2,0.6 -0.5,0.6 -0.3,0 -1.3,2 -2,4.2 -1,2.3 -2,4.6 -2.4,5 -0.8,1.2 0.2,0.7 3,-1.5 1,-0.8 1.8,-1.2 1.8,-1 0,0.4 -0.3,1 -0.6,1 -0.6,0.6 -3.4,7 -3.4,8 0,0.4 -1,2.2 -2,4 -3,5 -4.3,5 -7.4,1.4 z m 2,-0.7 c 0,-1 -0.3,-2.6 -0.4,-3.4 -0.4,-1.6 -3,-5 -5,-6 l -1.5,-1 1.8,4 c 0.8,2 2.4,5 3.5,6.2 l 2,2.5 v -2 z m 6.7,-6 c 1,-2.2 1.6,-4.2 1.4,-4.3 -0.2,-0.5 -4.2,3.3 -5.2,5.2 -0.5,1 -1,3 -1.3,4.4 l -0.2,2.7 2,-2 c 1,-1.2 2.5,-4 3.5,-6 z m -6.5,-2.4 c -0.6,-4 -1.6,-6 -4.6,-8 -2.8,-2.2 -2.8,-2.2 -0.5,3.4 1,2.2 5,7.7 5.5,7.8 l -0.2,-3 z m 6.5,-5 c 1,-2 1.6,-4 1.4,-4 0,-0.3 -1,0.4 -2.3,1.4 -2.5,2 -3.7,4.2 -4,8 l -0.4,2.7 2,-2 c 1,-1.3 2.6,-4 3.5,-6 z m -6.6,-2.3 c -0.3,-4 -1.3,-6 -4.2,-8.2 l -2.6,-2 1.6,4 c 1,3 4.7,8.7 5.7,9 l -0.2,-2.8 z m 6.8,-4.6 1,-3 1.3,-2.5 -1.5,1 c -4,2.8 -5.8,6 -5.8,9.7 v 2 l 2.6,-3.2 c 1.4,-1.8 2.5,-3.5 2.5,-3.8 z m -6.8,-4.5 c -0.6,-2.7 -1.2,-3.8 -3,-5.5 -1.4,-1.3 -2.6,-2.3 -3,-2.3 -0.3,0 0.8,4 2,6.3 1,2.2 4.2,6 4.4,5.3 0,-0.3 0,-2 -0.5,-4 z m 7,-4.2 1.4,-4 -2.2,1.5 c -2.6,2 -4.6,6 -4.6,8.8 v 2 l 2,-2.4 c 1,-1.2 2.6,-4 3.4,-5.8 z m -6.8,-2.4 c -0.4,-3 -0.8,-3.8 -3,-6 -1.3,-1.5 -2.7,-2.7 -3,-2.7 -1.2,0 2.3,8.4 4,9.3 0.6,0.4 1.2,1.3 1.4,2 0.7,2.2 1,0.7 0.6,-2.7 z m 6.8,-4.8 c 0.6,-1.5 1.3,-3.2 1.7,-3.7 1,-1.3 -3,1.2 -4.6,3 -1,1.4 -2.3,4.8 -2.3,7.3 0,1.2 0.3,1 2.2,-1 1,-1.5 2.6,-4 3,-5.5 z m -6.8,-2.7 c -0.4,-3.6 -2,-6.4 -4.8,-8 l -1.7,-1.2 0.8,2.6 c 0.4,1.2 1,3 1.5,4 0.6,1.2 4,5.7 4.4,6 z m 7.2,-5.4 1.3,-4 c -0.2,0 -1.3,1 -2.6,2 -2.5,2 -3.6,4 -4,8 l -0.5,3 2.2,-2.7 c 1.2,-1.4 3,-4.3 3.8,-6.3 z m -8,-8 -2.7,-4 -1.5,-2 0.4,3.4 c 0.2,2 1,4.5 1.8,6 0.7,1.3 1.7,3.2 2,4.2 0.8,1.7 0.8,1.7 1,-1.7 0,-2.6 -0.2,-4 -1,-6 z m 6.2,2 c 0.6,-1.3 1,-3.5 1,-5 v -2.4 l -2,2.5 c -2,3 -3,5.7 -3,9.7 v 2.8 l 1.4,-2.5 2.6,-5 z m -2.3,-7.3 -1.2,-5 -0.5,-2.8 -1,3 c -1.7,6 -1.7,6.6 -0.4,9 l 1.3,2 1.3,-2 c 1,-2 1,-2.8 0.8,-4.3 z"
         id="path4009"
         inkscape:connector-curvature="0" />
    </g>
  </g>
</svg>
