<?xml version="1.0" encoding="UTF-8" standalone="no"?>
<svg
   xmlns:dc="http://purl.org/dc/elements/1.1/"
   xmlns:cc="http://creativecommons.org/ns#"
   xmlns:rdf="http://www.w3.org/1999/02/22-rdf-syntax-ns#"
   xmlns:svg="http://www.w3.org/2000/svg"
   xmlns="http://www.w3.org/2000/svg"
   xmlns:sodipodi="http://sodipodi.sourceforge.net/DTD/sodipodi-0.dtd"
   xmlns:inkscape="http://www.inkscape.org/namespaces/inkscape"
   width="400"
   height="354"
   id="svg3821"
   version="1.1"
   inkscape:version="0.91 r13725"
   sodipodi:docname="logo.svg">
  <metadata
     id="metadata4015">
    <rdf:RDF>
      <cc:Work
         rdf:about="">
        <dc:format>image/svg+xml</dc:format>
        <dc:type
           rdf:resource="http://purl.org/dc/dcmitype/StillImage" />
      </cc:Work>
    </rdf:RDF>
  </metadata>
  <defs
     id="defs4013" />
  <sodipodi:namedview
     pagecolor="#ffffff"
     bordercolor="#666666"
     borderopacity="1"
     objecttolerance="10"
     gridtolerance="10"
     guidetolerance="10"
     inkscape:pageopacity="0"
     inkscape:pageshadow="2"
     inkscape:window-width="1440"
     inkscape:window-height="838"
     id="namedview4011"
     showgrid="false"
     inkscape:zoom="7.5424723"
     inkscape:cx="64.515272"
     inkscape:cy="81.540584"
     inkscape:window-x="1912"
     inkscape:window-y="-8"
     inkscape:window-maximized="1"
     inkscape:current-layer="svg3821" />
  <title
     id="title3823">background</title>
  <path
     fill="#fff"
     d="M78.5 64H321v99.6H78.4z"
     id="path3825" />
  <path
     fill="none"
     d="M-1-1h402v356H-1z"
     id="path3827" />
  <title
     id="title3829">Layer 1</title>
  <path
     d="M348.4 288.7V280l20.2 8.7h-20.2zm-297-.2h-20l20-7v7z"
     fill-opacity="null"
     fill="#b7cbe4"
     id="path3831" />
  <g
     fill="#35cc01"
     id="g3833">
    <path
       d="M84 169h232v111.6H84z"
       id="path3835" />
    <path
       d="M171 289.5l116.5-67.2 30 52L201 341.5z"
       id="path3837" />
    <path
       d="M114 222.3l117 67.5-30 52-117-67.5z"
       id="path3839" />
  </g>
  <path
     fill="#f9c50d"
     d="M75 268l131 75.6-6 10.4-131-75.5z"
     id="path3841" />
  <path
     fill="#f9c50d"
     d="M194 343.7l130.7-75.5 6 10.4L200 354z"
     id="path3843" />
  <path
     fill="#f9c50d"
     fill-opacity="null"
     d="M72 0h12v261H72z"
     id="path3845" />
  <path
     fill="#863b35"
     d="M344 275h5v36h-5z"
     id="path3847" />
  <path
     fill="#c1c9de"
     d="M340 270h15v3h-15z"
     id="path3849" />
  <ellipse
     ry="5"
     rx="10"
     cy="275"
     cx="339"
     fill-opacity="null"
     fill="#863b35"
     id="ellipse3851" />
  <path
     fill="#863b35"
     d="M51 275h5v36h-5z"
     id="path3853" />
  <path
     d="m 95,266 10,0 0,5 -10,0 z"
     id="path3855"
     inkscape:connector-curvature="0"
     style="fill:#b7cbe4" />
  <ellipse
     ry="5"
     rx="10"
     cy="266"
     cx="95"
     fill-opacity="null"
     fill="#863b35"
     id="ellipse3857" />
  <path
     fill="#c1c9de"
     d="M33 266h64v4H33zm12.3 4h15v3h-15z"
     id="path3859" />
  <ellipse
     ry="5"
     rx="10"
     cy="275"
     cx="61"
     fill-opacity="null"
     fill="#863b35"
     id="ellipse3861" />
  <path
     d="m 59,271 45,0 0,8 -45,0 z"
     id="path3863"
     inkscape:connector-curvature="0"
     style="fill:#b7cbe4" />
  <ellipse
     ry="4"
     rx="6"
     cy="275"
     cx="59"
     fill-opacity="null"
     id="ellipse3865"
     style="fill:#b7cbe4" />
  <ellipse
     ry="2"
     rx="4"
     cy="268"
     cx="97"
     fill-opacity="null"
     fill="#c1c9de"
     id="ellipse3867" />
  <ellipse
     ry="5"
     rx="10"
     cy="311"
     cx="339"
     fill-opacity="null"
     fill="#863b35"
     id="ellipse3869" />
  <ellipse
     ry="5"
     rx="10"
     cy="311"
     cx="61"
     fill-opacity="null"
     fill="#863b35"
     id="ellipse3871" />
  <path
     fill="#f9c50d"
     d="M72 0h256v12H72z"
     id="path3873" />
  <path
     fill="#f9c50d"
     fill-opacity="null"
     d="M316 0h12v261h-12z"
     id="path3875" />
  <path
     fill="#f9c50d"
     fill-opacity="null"
     d="M72 58h256v12H72z"
     id="path3877" />
  <path
     fill="#f9c50d"
     fill-opacity="null"
     d="M194 58h12v111h-12z"
     id="path3879" />
  <path
     fill="#f9c50d"
     fill-opacity="null"
     d="M72 157h256v12H72z"
     id="path3881" />
  <path
     fill="#b7cde5"
     d="M84 12h232v46H84z"
     id="path3883" />
  <text
     fill="#7f1734"
     stroke-width="0"
     stroke-opacity="null"
     x="231"
     y="32"
     font-size="14"
     font-family="Helvetica, Arial, sans-serif"
     stroke="#f9c50d"
     font-weight="bold"
     id="text3885">OVERS</text>
  <text
     fill="#7f1734"
     stroke-width="0"
     stroke-opacity="null"
     x="219"
     y="32"
     font-size="18"
     font-family="Helvetica, Arial, sans-serif"
     stroke="#f9c50d"
     font-weight="bold"
     id="text3887">R</text>
  <path
     fill="#02019a"
     d="M84 133h110v24H84z"
     id="path3889" />
  <path
     fill="#d41632"
     d="M129 142.8h7.7l2.3-7.2 2.3 7.2h7.6l-6.3 4.5 2.3 7.2-6-4.5-6 4.5 2.2-7.2-6-4.5z"
     id="path3891" />
  <g
     fill="#7f1734"
     stroke-width="0"
     stroke-opacity="null"
     font-family="Helvetica, Arial, sans-serif"
     stroke="#f9c50d"
     font-weight="bold"
     id="g3893">
    <text
       x="140.9"
       y="32"
       font-size="14"
       id="text3895">RADFIELD</text>
    <text
       x="128.6"
       y="32"
       font-size="18"
       id="text3897">B</text>
  </g>
  <g
     fill="#7f1734"
     stroke-width="0"
     stroke-opacity="null"
     font-family="Helvetica, Arial, sans-serif"
     stroke="#f9c50d"
     font-weight="bold"
     id="g3899">
    <text
       x="223.9"
       y="51"
       font-size="18"
       id="text3901">C</text>
    <text
       x="235.9"
       y="51"
       font-size="14"
       id="text3903">LUB</text>
  </g>
  <g
     fill="#7f1734"
     stroke-width="0"
     stroke-opacity="null"
     font-family="Helvetica, Arial, sans-serif"
     stroke="#f9c50d"
     font-weight="bold"
     id="g3905">
    <text
       x="140"
       y="51"
       font-size="18"
       id="text3907">F</text>
    <text
       x="149.5"
       y="51"
       font-size="14"
       id="text3909">OOTBALL</text>
  </g>
  <path
     fill="#d41632"
     d="M165 142.8h7.7l2.3-7.2 2.3 7.2h7.6l-6.3 4.4 2.3 7.2-6-4.4-6 4.4 2.2-7.2-6-4.4zm-72 .4h7.7l2.3-7.2 2.3 7.2h7.6l-6.3 4.5 2.3 7.2-6-4.7-6 4.5 2.2-7.3-6-4.5z"
     id="path3911" />
  <path
     fill="#ED134F"
     d="M229 102c-.4.6-.2 2.6.5 4.4 2 5.7 0 7.6-12 10.7-5.5 1.6-6.5 3-4.2 6.5 1 1.5 2 1.3 8-1.7 9.2-4.3 11.8-4.3 13.6.4 1.3 4 5.5 5 4.5 1.3l-1-4c-.5-1.4.7-2.3 4.3-3.3 6-1.8 22-1.8 30.4 0 5.6 1.3 6.6 1 7.6-.6 2.6-4.7 13.3-1 12 4-1 3.6 2 6.2 5 4.2 1.3-.7 4.6-2.6 7.8-4 5.3-2.6 5.5-2.7 3-4.6-4.2-3.3-14.5-7.6-23-10-10.2-2.5-35-1.6-43.7 1.5-6.3 2.4-8.5 2-9-2-.5-3-2.8-4.5-4-2.5z"
     id="path3913" />
  <path
     stroke="#9A2F4D"
     d="M229 102c-.4.6-.2 2.6.5 4.4 2 5.7 0 7.6-12 10.7-5.5 1.6-6.5 3-4.2 6.5 1 1.5 2 1.3 8-1.7 9.2-4.3 11.8-4.3 13.6.4 1.3 4 5.5 5 4.5 1.3l-1-4c-.5-1.4.7-2.3 4.3-3.3 6-1.8 22-1.8 30.4 0 5.6 1.3 6.6 1 7.6-.6 2.6-4.7 13.3-1 12 4-1 3.6 2 6.2 5 4.2 1.3-.7 4.6-2.6 7.8-4 5.3-2.6 5.5-2.7 3-4.6-4.2-3.3-14.5-7.6-23-10-10.2-2.5-35-1.6-43.7 1.5-6.3 2.4-8.5 2-9-2-.5-3-2.8-4.5-4-2.5z"
     fill="none"
     id="path3915" />
  <ellipse
     fill="#02019a"
     fill-opacity="null"
     cx="103"
     cy="146.4"
     rx="2"
     ry="2"
     id="ellipse3917" />
  <ellipse
     fill="#02019a"
     fill-opacity="null"
     cx="139"
     cy="146.4"
     rx="2"
     ry="2"
     id="ellipse3919" />
  <ellipse
     fill="#02019a"
     fill-opacity="null"
     cx="174.9"
     cy="146.4"
     rx="2"
     ry="2"
     id="ellipse3921" />
  <path
     fill="#ED134F"
     d="M229 74c-.4.6-.2 2.6.5 4.4 2 5.7 0 7.6-12 10.7-5.5 1.6-6.5 3-4.2 6.5 1 1.5 2 1.3 8-1.7 9.2-4.3 11.8-4.3 13.6.4 1.3 4 5.5 5 4.5 1.3l-1-4c-.5-1.4.7-2.3 4.3-3.3 6-1.8 22-1.8 30.4 0 5.6 1.3 6.6 1 7.6-.6 2.6-4.7 13.3-1 12 4-1 3.6 2 6.2 5 4.2 1.3-.7 4.6-2.6 7.8-4 5.3-2.6 5.5-2.7 3-4.6-4.2-3.3-14.5-7.6-23-10-10.2-2.5-35-1.6-43.7 1.5-6.3 2.4-8.5 2-9-2-.5-3-2.8-4.5-4-2.5z"
     id="path3923" />
  <path
     stroke="#9A2F4D"
     d="M229 74c-.4.6-.2 2.6.5 4.4 2 5.7 0 7.6-12 10.7-5.5 1.6-6.5 3-4.2 6.5 1 1.5 2 1.3 8-1.7 9.2-4.3 11.8-4.3 13.6.4 1.3 4 5.5 5 4.5 1.3l-1-4c-.5-1.4.7-2.3 4.3-3.3 6-1.8 22-1.8 30.4 0 5.6 1.3 6.6 1 7.6-.6 2.6-4.7 13.3-1 12 4-1 3.6 2 6.2 5 4.2 1.3-.7 4.6-2.6 7.8-4 5.3-2.6 5.5-2.7 3-4.6-4.2-3.3-14.5-7.6-23-10-10.2-2.5-35-1.6-43.7 1.5-6.3 2.4-8.5 2-9-2-.5-3-2.8-4.5-4-2.5z"
     fill="none"
     id="path3925" />
  <path
     fill="#ED134F"
     d="M229 129.8c-.4.6-.2 2.6.5 4.4 2 5.7 0 7.6-12 10.7-5.5 1.2-6.5 2.6-4.2 6 1 1.6 2 1.5 8-1.5 9.2-4.4 11.8-4.4 13.6.3 1.3 3.8 5.5 4.8 4.5 1l-1-3.8c-.5-1.5.7-2.4 4.3-3.4 6-1.7 22-1.7 30.4 0 5.6 1.3 6.6 1 7.6-.6 2.6-4.6 13.3-1 12 4-1 3.6 2 6.2 5 4.2 1.3-.7 4.6-2.6 7.8-4 5.3-2.6 5.5-2.7 3-4.6-4.2-3.2-14.5-7.6-23-10-10.2-2.5-35-1.6-43.7 1.5-6.3 2.5-8.5 2-9-2-.5-3-2.8-4.4-4-2.4z"
     id="path3927" />
  <path
     stroke="#9A2F4D"
     d="M229 129.8c-.4.6-.2 2.6.5 4.4 2 5.7 0 7.6-12 10.7-5.5 1.2-6.5 2.6-4.2 6 1 1.6 2 1.5 8-1.5 9.2-4.4 11.8-4.4 13.6.3 1.3 3.8 5.5 4.8 4.5 1l-1-3.8c-.5-1.5.7-2.4 4.3-3.4 6-1.7 22-1.7 30.4 0 5.6 1.3 6.6 1 7.6-.6 2.6-4.6 13.3-1 12 4-1 3.6 2 6.2 5 4.2 1.3-.7 4.6-2.6 7.8-4 5.3-2.6 5.5-2.7 3-4.6-4.2-3.2-14.5-7.6-23-10-10.2-2.5-35-1.6-43.7 1.5-6.3 2.5-8.5 2-9-2-.5-3-2.8-4.4-4-2.4z"
     fill="none"
     id="path3929" />
  <path
     fill="#b7cbe4"
     d="M53.8 284h292v27h-292z"
     id="path3931" />
  <path
     fill="#863b35"
     d="M53 279h294v5H53zm8 32h278v5H61zm243-41h34v1h-34zm-285-9h76v5H19zm286 0h76v5h-76z"
     id="path3933" />
  <path
     d="m 295,266 10,0 0,5 -10,0 z"
     id="path3935"
     inkscape:connector-curvature="0"
     style="fill:#b7cbe4" />
  <ellipse
     ry="4"
     rx="6"
     cy="275"
     cx="341"
     fill-opacity="null"
     id="ellipse3937"
     style="fill:#b7cbe4" />
  <path
     d="m 296,271 45,0 0,8 -45,0 z"
     id="path3939"
     inkscape:connector-curvature="0"
     style="fill:#b7cbe4" />
  <path
     fill="#863b35"
     d="M295 266h1v13h-1zm-191 0h1v13h-1z"
     id="path3941" />
  <ellipse
     ry="5"
     rx="10"
     cy="266"
     cx="305"
     fill-opacity="null"
     id="ellipse3943"
     fill="#863b35" />
  <path
     fill="#c1c9de"
     d="M303 266h64v4h-64z"
     id="path3945" />
  <path
     fill="#863b35"
     d="M19 288h33v5H19z"
     id="path3947" />
  <ellipse
     ry="2"
     rx="4"
     cy="268"
     cx="303"
     fill-opacity="null"
     fill="#c1c9de"
     id="ellipse3949" />
  <path
     fill="#863b35"
     d="M348 288h33v5h-33zM20.2 261.7l33.3 11-1.6 4.8-33.5-11zM61 270h34v1H61z"
     id="path3951" />
  <path
     fill="#863b35"
     d="M21.8 286.8l31.4-10.5 1.5 4.8-31.4 10.6zM2 261h13.6l11 8L2 261z"
     id="path3953" />
  <path
     fill="#863b35"
     d="M15.4 261H20v3h-4.6zM27 285l-11 8H2.6l24.6-8z"
     id="path3955" />
  <path
     fill="#863b35"
     d="M15 290h5v3h-5zm358.6-21l11-8h13.6l-24.6 8zm24.2 24h-13.6l-11-8 24.6 8z"
     id="path3957" />
  <path
     fill="#863b35"
     d="M346.4 272.6l33.4-11 1.5 5-33.4 10.7z"
     id="path3959" />
  <path
     fill="#863b35"
     d="M376.6 291.4l-31.4-10.2 1.5-4.7 31.4 10.2zM380 261h4.6v3H380zm0 29h5v3h-5z"
     id="path3961" />
  <text
     font-family="Georgia, Times, 'Times New Roman', serif"
     font-size="17"
     y="304"
     x="105.5"
     stroke-opacity="null"
     stroke-width="0"
     stroke="#000"
     fill="#863b35"
     id="text3963">DELAPSUS RESURGAM</text>
  <title
     id="title3965">Layer 2</title>
  <g
     stroke="null"
     id="g3967">
    <path
       d="M133.4 128.7c-4.4-1.3-8-4.2-9.7-8-1.3-3-1.3-3.5.3-4.4.7-.3 1.7-1 2-1.3.7-.5 1-.3 4.4 2.3 3.3 2.6 7 4.8 8.2 4.8 1 0 5-2 8.2-4.6l3.6-2.8 1.4 1 2.2 1.4c.7.3.7.5.2 2-1.4 4-4.7 7.5-9 9.2-2.8 1.2-8.7 1.4-11.8.5zm9-1.2c3.2-.8 5.6-2 7.6-4.4 1.2-1.2 1.2-1.2.2-.3-3.6 3.2-7.3 4.6-11.6 4.6s-8-1.4-11.6-4.6c-1-1-1-1 .2.5 2 2.4 4.4 3.8 7.5 4.4 3.4.8 4.2.8 7.6 0zm-6-7c-2.5-1.2-7.2-4.4-8.5-6-1.8-2-5.5-14-5.8-18 0-3 0-3.3.5-3.3.4 0 1 .4 1.2 1 .6 1.4 4.4 5.4 6.2 6.5 1.8 1.2 7 3 8.3 3 1.4 0 6.5-1.8 8.3-3 1.7-1 5.4-5 6.2-6.6.3-.3.8-.7 1.2-.7.6 0 .6.4.4 3.3-.2 4-4 16-5.5 18-1.2 1.6-6 4.8-8.5 5.8-2 1-2 1-4.2 0zm1-15.8c-.3-.2-1.4-.7-2.6-1-4.2-1.5-9-5-11-8.3-.4-.8-1-1.3-1-1.2-.4.3 1.5 3 3.2 4.7 2.4 2 4.7 3.4 8.2 5 3.5 1 3.7 1 3 .6zm10.4-3.2c3.3-2 7.3-6.6 6.6-7.3 0 0-.6.4-1 1.2-2 3.2-6.8 6.8-11 8.2-1.2.4-2.3 1-2.6 1-.7 1 6.3-2 8-3zm-17-2.6c-2.3-.7-2.8-1-4.8-3-2-2.4-2.2-2.8-2-4 .4-2.4 2-5 3.7-7 2.2-2.3 8-5.3 9-4.6.5.4.5.4.2 0-.6-1-.5-2.2 0-3 .3-.3.4-.7.3-1-.6-.8.2-2 1.2-2s1.7 1.2 1.2 2c0 .3 0 .7.2 1 .5.8.6 2 .2 3-.3.4-.3.4.2 0 .8-.7 6.8 2.3 9 4.6 1.8 2 3.3 4.7 3.6 7 .3 1.3.2 1.7-1.8 4-2 2-2.5 2.3-5.2 3-3.6.7-11.5.7-15 0zm9-8.3c.5 0 2.5.6 4.5 1s3.8 1 4 .8c.2-.3-8.4-2.5-9.7-2.5-1.3 0-10 2.3-9.6 2.6l3.8-.7 4.7-1.3c.8-.2 1 0 1 2.7v2.8l.2-2.8c0-2.7.2-3 1-2.7zm-1-8c-.3-.3-.3 0-.3.5s0 1 .2.6v-1.2zm-1-4.2c0-.3-.2 0-.2.5s0 1 .2.6v-1zm1.7 0c0-.3-.2 0-.2.5s0 1 .2.6v-1z"
       id="path3969" />
    <path
       d="M134.4 129c-4.8-1-9.8-5.2-11-9.5-.8-2-.8-2.2 0-2.7l2-1.4 1.4-1 2.5 2c2.7 2.3 6.2 4.7 8 5.4 1 .4 1.7.4 2.7 0 1.8-1 6-3.7 8.4-5.7l2-1.5 1.4 1 2 1.4c.8.4.8.5 0 2.6-2 7-10.8 11.2-19.4 9.4zm10.4-2.2c1.4-.6 3-1.7 4.5-3l2-2.2-1.8 1.6c-1 .8-3 2-4.3 2.6-2.2 1-3 1.2-6.6 1.2-3.6 0-4.4 0-6.6-1.2-1.3-.6-3.3-1.8-4.3-2.7l-2-1.3 1.7 1.8c2 2 5 3.7 7.7 4.3 2.8.5 7 0 10-1zM134 119c-1.6-1-4-2.5-5-3.6-2-2-2.2-2.3-4.3-8.8-1.5-5-2.2-7.7-2.3-10-.2-3-.2-3.4.4-3.4.4 0 1 .5 1.3 1.2 1.3 2 5.4 6 8 7.2 5.4 2.7 8 2.7 13.3 0 2.7-1.2 6.8-5 8-7.2.2-.7.8-1.2 1.2-1.2.6 0 .6.4.4 3.3 0 2.4-1 5-2.4 10-2 6.6-2.3 7-4.2 9-2.4 2.2-8 5.4-9.8 5.3-.6 0-2.6-.8-4.4-1.7zm3.6-14.3c0-.3-.4-.5-.8-.5-1 0-6-2.3-8-3.8-1.2-.7-3-2.5-4-4-2-2.6-2.8-3-1.4-.5 2 3 6.3 6.2 11.2 8 3.2 1.2 3 1 3 .6zm8-2c3.3-1.6 6.7-4.5 8-6.8 1.6-2.7.8-2.3-1.2.4-1 1.4-2.8 3.2-4 4-2 1.4-7 3.7-8 3.7-.4 0-.8.3-.8.5 0 .6 2.7-.2 6-2zm-12-3.4l-3.2-.7c-2.2-.4-2.6-.7-4.4-2.8-1.2-1.3-2-2.8-2-3.3 0-1.5 2.2-6 4-7.5.8-1 3-2.4 4.8-3.3 3-1.5 3.4-1.6 3.8-1 .3.4.5.5.5.3 0-.3 0-.6-.2-1-.2 0 0-.7.2-1.5.3-.7.5-1.6.3-2.2 0-.5 0-1 .5-1.5 1-.8 2 0 2 1.5 0 .6 0 1.6.5 2.2.3.8.4 1.4 0 1.6 0 .5-.3.8-.3 1 0 .3.3 0 .6-.2.4-.6.8-.5 3.8 1 1.8 1 4 2.4 5 3.3 1.6 1.7 4 6 4 7.6 0 .5-1 2-2 3.3-2 2-2.5 2.3-4.4 3-2.2.3-11.8 1-13.4.4zm6.2-8.3c1 0 5.7 1 9 2 .8 0 .8 0 .3-.2 0-.2-2.6-1-5.4-1.7l-5-1-5.2 1.3c-3 .8-5.4 1.6-5.6 1.7h.5c2.3-.7 8.3-2 9.2-2 1 0 1 .2 1 3v2.8l.3-3c0-2.6.2-2.8 1-2.8zm-.8-8.8v-.8c-.3 1-.3 1-.6 0-.3-.7-.3.8 0 2.8h.3c0-.3.3-1 .3-2zm-1.2-3.4c0-.4-.2-.2-.2.5s0 1 .2.8c0 0 .2-.7 0-1zm1.7 0c0-.4-.2-.2-.2.5s0 1 .2.8v-1z"
       id="path3971" />
    <path
       d="M134.4 129c-4.8-1-9.8-5.2-11-9.5-.8-2-.8-2.2 0-2.7l2-1.4 1.4-1 2.5 2c2.7 2.3 6.2 4.7 8 5.4 1 .4 1.7.4 2.7 0 1.8-1 6-3.7 8.4-5.7l2-1.5 1.4 1 2 1.4c.8.4.8.5 0 2.6-2 7-10.8 11.2-19.4 9.4zm10.4-2.2c1.4-.6 3-1.7 4.5-3l2-2.2-1.8 1.6c-1 .8-3 2-4.3 2.6-2.2 1-3 1.2-6.6 1.2-3.6 0-4.4 0-6.6-1.2-1.3-.6-3.3-1.8-4.3-2.7l-2-1.3 1.7 1.8c2 2 5 3.7 7.7 4.3 2.8.5 7 0 10-1zM134 119c-1.6-1-4-2.5-5-3.6-2-2-2.2-2.3-4.3-8.8-1.5-5-2.2-7.7-2.3-10-.2-3-.2-3.4.4-3.4.4 0 1 .5 1.3 1.2 1.3 2 5.4 6 8 7.2 5.4 2.7 8 2.7 13.3 0 2.7-1.2 6.8-5 8-7.2.2-.7.8-1.2 1.2-1.2.6 0 .6.4.4 3.3 0 2.4-1 5-2.4 10-2 6.6-2.3 7-4.2 9-2.4 2.2-8 5.4-9.8 5.3-.6 0-2.6-.8-4.4-1.7zm3.6-14.3c0-.3-.4-.5-.8-.5-1 0-6-2.3-8-3.8-1.2-.7-3-2.5-4-4-2-2.6-2.8-3-1.4-.5 2 3 6.3 6.2 11.2 8 3.2 1.2 3 1 3 .6zm8-2c3.3-1.6 6.7-4.5 8-6.8 1.6-2.7.8-2.3-1.2.4-1 1.4-2.8 3.2-4 4-2 1.4-7 3.7-8 3.7-.4 0-.8.3-.8.5 0 .6 2.7-.2 6-2zm-12-3.4l-3.2-.7c-2.2-.4-2.6-.7-4.4-2.8-1.2-1.3-2-2.8-2-3.3 0-1.5 2.2-6 4-7.5.8-1 3-2.4 4.8-3.3 3-1.5 3.4-1.6 3.8-1 .3.4.5.5.5.3 0-.3 0-.6-.2-1-.2 0 0-.7.2-1.5.3-.7.5-1.6.3-2.2 0-.5 0-1 .5-1.5 1-.8 2 0 2 1.5 0 .6 0 1.6.5 2.2.3.8.4 1.4 0 1.6 0 .5-.3.8-.3 1 0 .3.3 0 .6-.2.4-.6.8-.5 3.8 1 1.8 1 4 2.4 5 3.3 1.6 1.7 4 6 4 7.6 0 .5-1 2-2 3.3-2 2-2.5 2.3-4.4 3-2.2.3-11.8 1-13.4.4zm6.2-8.3c1 0 5.7 1 9 2 .8 0 .8 0 .3-.2 0-.2-2.6-1-5.4-1.7l-5-1-5.2 1.3c-3 .8-5.4 1.6-5.6 1.7h.5c2.3-.7 8.3-2 9.2-2 1 0 1 .2 1 3v2.8l.3-3c0-2.6.2-2.8 1-2.8zm-.8-8.8v-.8c-.3 1-.3 1-.6 0-.3-.7-.3.8 0 2.8h.3c0-.3.3-1 .3-2zm-1.2-3.4c0-.4-.2-.2-.2.5s0 1 .2.8c0 0 .2-.7 0-1zm1.7 0c0-.4-.2-.2-.2.5s0 1 .2.8v-1z"
       id="path3973" />
    <path
       d="M134.4 129c-4.8-1-9.8-5.2-11-9.5-.8-2-.8-2.2 0-2.7l2-1.4 1.4-1 2.5 2c2.7 2.3 6.2 4.7 8 5.4 1 .4 1.7.4 2.7 0 1.8-1 6-3.7 8.4-5.7l2-1.5 1.4 1 2 1.4c.8.4.8.5 0 2.6-2 7-10.8 11.2-19.4 9.4zm10.4-2.2c1.4-.6 3-1.7 4.5-3l2-2.2-1.8 1.6c-1 .8-3 2-4.3 2.6-2.2 1-3 1.2-6.6 1.2-3.6 0-4.4 0-6.6-1.2-1.3-.6-3.3-1.8-4.3-2.7l-2-1.3 1.7 1.8c2 2 5 3.7 7.7 4.3 2.8.5 7 0 10-1zM134 119c-1.6-1-4-2.5-5-3.6-2-2-2.2-2.3-4.3-8.8-1.5-5-2.2-7.7-2.3-10-.2-3-.2-3.4.4-3.4.4 0 1 .5 1.3 1.2 1.3 2 5.4 6 8 7.2 5.4 2.7 8 2.7 13.3 0 2.7-1.2 6.8-5 8-7.2.2-.7.8-1.2 1.2-1.2.6 0 .6.4.4 3.3 0 2.4-1 5-2.4 10-2 6.6-2.3 7-4.2 9-2.4 2.2-8 5.4-9.8 5.3-.6 0-2.6-.8-4.4-1.7zm3.6-14.3c0-.3-.4-.5-.8-.5-1 0-6-2.3-8-3.8-1.2-.7-3-2.5-4-4-2-2.6-2.8-3-1.4-.5 2 3 6.3 6.2 11.2 8 3.2 1.2 3 1 3 .6zm8-2c3.3-1.6 6.7-4.5 8-6.8 1.6-2.7.8-2.3-1.2.4-1 1.4-2.8 3.2-4 4-2 1.4-7 3.7-8 3.7-.4 0-.8.3-.8.5 0 .6 2.7-.2 6-2zm-12-3.4l-3.2-.7c-2.2-.4-2.6-.7-4.4-2.8-1.2-1.3-2-2.8-2-3.3 0-1.5 2.2-6 4-7.5.8-1 3-2.4 4.8-3.3 3-1.5 3.4-1.6 3.8-1 .3.4.5.5.5.3 0-.3 0-.6-.2-1-.2 0 0-.7.2-1.5.3-.7.5-1.6.3-2.2 0-.5 0-1 .5-1.5 1-.8 2 0 2 1.5 0 .6 0 1.6.5 2.2.3.8.4 1.4 0 1.6 0 .5-.3.8-.3 1 0 .3.3 0 .6-.2.4-.6.8-.5 3.8 1 1.8 1 4 2.4 5 3.3 1.6 1.7 4 6 4 7.6 0 .5-1 2-2 3.3-2 2-2.5 2.3-4.4 3-2.2.3-11.8 1-13.4.4zm6.2-8.3c1 0 5.7 1 9 2 .8 0 .8 0 .3-.2 0-.2-2.6-1-5.4-1.7l-5-1-5.2 1.3c-3 .8-5.4 1.6-5.6 1.7h.5c2.3-.7 8.3-2 9.2-2 1 0 1 .2 1 3v2.8l.3-3c0-2.6.2-2.8 1-2.8zm-.8-8.8v-.8c-.3 1-.3 1-.6 0-.3-.7-.3.8 0 2.8h.3c0-.3.3-1 .3-2zm-1.2-3.4c0-.4-.2-.2-.2.5s0 1 .2.8c0 0 .2-.7 0-1zm1.7 0c0-.4-.2-.2-.2.5s0 1 .2.8v-1z"
       id="path3975" />
  </g>
  <g
     id="g3977">
    <title
       id="title3979">Layer 3</title>
    <g
       stroke="null"
       id="g3981">
      <path
         d="M196.6 255.2c-1.7-2-4.7-8-7.6-15.2-.2-.3.8.5 2 1.8s2.6 2.3 2.7 2.3c.4 0-3-8.7-4-10-1.6-1.7-.8-1.7 1.2 0 1 1.3 2 2 2 2 .5-.4-2.5-8-3.4-9.3-1.7-2-.7-1.8 1.7.4 1.5 1.4 2.6 2.3 2.6 2l-2-5-2.6-5.6c0-.4.7 0 1.8 1 1 1 2.2 1.8 2.4 1.8.4 0-2.6-7.4-3.8-9.4-1.4-2-.6-2.3 1-.4.5.7 1.5 1.5 2 2 1 .4 1 .2-.2-2.8-.6-1.8-1.6-4.2-2.2-5.4-.7-1-1-2.4-1-2.8 0-.4 0-.2.4.3.5 1 5.7 5.2 5.7 4.7l-1-2.6s-1.3-3.7-1.3-5.3-.2-4-.5-5.7-.4-3-.2-3 1 1.8 2 4l1.6 3.8 1-2.8 2-8 1-5.3v3.2c.7 5 2.8 12.2 3.5 11.5l2-3.6 1.2-3-.3 4.3c-.3 5.5-1.2 10-2.2 11-.4.2-.8 1-.8 1 0 .7 2.7-1 5-3.5 1.8-1.8 2.6-1.7 1 .2-1 1.4-4.3 10-3.8 10 .2 0 1.3-.8 2.3-2 1-1 2-1.7 2-1.7l-1.8 3.8c-3.3 6.5-3.3 8.4 0 5 .8-1 1.4-1.5 1.3-1-.3.2-1 2.2-2 4.2-3 7.4-3 8.2.5 4.3 1-1.2 2-2 2-2s-1 2.7-2.5 5.7c-1.4 3-2.5 5.7-2.3 6 0 0 1.2-.6 2.3-1.5s2-1.4 2-1c0 .3-.3.6-.5.6-.3 0-1.3 2-2 4.4-1 2.3-2 4.6-2.3 5-.8 1.2.2.7 3-1.5 1-1 1.8-1.3 1.8-1 0 .3-.3 1-.6 1-.8.5-3.5 7-3.5 8 0 .3-1 2-2 4-3 5-4.3 5-7.4 1.3z"
         fill="#fcf646"
         id="path3983" />
      <path
         d="M196.6 255.2c-1.7-2-4.7-8-7.6-15.2-.2-.3.8.5 2 1.8s2.6 2.3 2.7 2.3c.4 0-3-8.7-4-10-1.6-1.7-.8-1.7 1.2 0 1 1.3 2 2 2 2 .5-.4-2.5-8-3.4-9.3-1.7-2-.7-1.8 1.7.4 1.5 1.4 2.6 2.3 2.6 2l-2-5-2.6-5.6c0-.4.7 0 1.8 1 1 1 2.2 1.8 2.4 1.8.4 0-2.6-7.4-3.8-9.4-1.4-2-.6-2.3 1-.4.5.7 1.5 1.5 2 2 1 .4 1 .2-.2-2.8-.6-1.8-1.6-4.2-2.2-5.4-.7-1-1-2.4-1-2.8 0-.4 0-.2.4.3.5 1 5.7 5.2 5.7 4.7l-1-2.6s-1.3-3.7-1.3-5.3-.2-4-.5-5.7-.4-3-.2-3 1 1.8 2 4l1.6 3.8 1-2.8 2-8 1-5.3v3.2c.7 5 2.8 12.2 3.5 11.5l2-3.6 1.2-3-.3 4.3c-.3 5.5-1.2 10-2.2 11-.4.2-.8 1-.8 1 0 .7 2.7-1 5-3.5 1.8-1.8 2.6-1.7 1 .2-1 1.4-4.3 10-3.8 10 .2 0 1.3-.8 2.3-2 1-1 2-1.7 2-1.7l-1.8 3.8c-3.3 6.5-3.3 8.4 0 5 .8-1 1.4-1.5 1.3-1-.3.2-1 2.2-2 4.2-3 7.4-3 8.2.5 4.3 1-1.2 2-2 2-2s-1 2.7-2.5 5.7c-1.4 3-2.5 5.7-2.3 6 0 0 1.2-.6 2.3-1.5s2-1.4 2-1c0 .3-.3.6-.5.6-.3 0-1.3 2-2 4.4-1 2.3-2 4.6-2.3 5-.8 1.2.2.7 3-1.5 1-1 1.8-1.3 1.8-1 0 .3-.3 1-.6 1-.8.5-3.5 7-3.5 8 0 .3-1 2-2 4-3 5-4.3 5-7.4 1.3zm2-.7l-.3-3.4c-.4-1.6-3-5-5-6l-1.5-1 1.5 4c1 2 2.5 5 3.6 6.2l2 2.5-.4-2zm6.8-6c1-2.2 1.6-4.2 1.4-4.3-.4-.5-4.5 3.3-5.5 5.2-.5 1-1 3-1.2 4.4v2.7l2-2c1-1.2 2.5-4 3.5-6zM199 246c-.7-4-1.8-6-4.7-8-3-2.3-2.8-2.3-.5 3.3 1 2.2 4.7 7.7 5.3 7.8.3 0 0-1.2 0-3zm6.4-5.2c1-2 1.5-4 1.4-4 0-.2-1.2.5-2.5 1.5-2.6 2-3.7 4.2-4.2 8v2.7l2-2.2c1-1.2 2.6-4 3.5-6zm-6.6-2.2c-.5-4-1.6-6-4.5-8.2l-2.5-2 1.5 4c1 3 4.6 8.7 5.7 9l-.2-2.8zm6.6-4.6l1-3 1.2-2.6-1.5 1c-3.7 2.8-5.6 6-5.6 9.7v2l2.5-3c1.4-2 2.5-3.6 2.5-4zm-6.8-4.6c-.5-2.7-1-3.8-3-5.5-1.3-1.4-2.6-2.4-2.8-2.4-.5 0 .7 4 1.8 6.3 1 2 4.2 6 4.5 5.2.3-.3 0-2-.3-4zm7-4.2c1-2 1.5-3.7 1.5-4l-2 1.5c-2.6 2-4.6 6-4.6 8.8v2l2-2.4c1-1 2.6-4 3.4-5.7zm-6.8-2.4c-.3-2.8-.7-3.7-3-6-1.2-1.4-2.6-2.6-3-2.6-1.2 0 2.4 8.4 4 9.3.6.4 1.3 1.3 1.5 2 .7 2.2 1 .7.5-2.7zm7-4.7l1.5-3.6c1-1.3-2.8 1.2-4.5 3-1.4 1.4-2.5 4.8-2.5 7.3 0 1.2.2 1 2.2-1 1.2-1.5 2.7-4 3.2-5.5zm-7-2.6c-.3-3.6-2-6.4-4.7-8l-1.6-1.2.8 2.6 1.6 4c.7 1.3 4 5.8 4.5 6 .2 0 0-1.5 0-3.3zm7.2-5.4c1-2.2 1.5-4 1.4-4-.2 0-1.3 1-2.6 1.8-2.7 2-3.8 4-4.3 8l-.4 3 2.4-2.6c1-1.4 2.8-4.3 3.7-6.3zm-8-8c-.6-1.3-1.8-3.2-2.6-4.2l-1.5-2 .2 3.5c.2 2 1 4.5 1.7 6l2 4.2c.7 1.7 1 1.7 1-1.7 0-2.5 0-4-1-5.8zm6.2 2c.7-1.4 1.2-3.6 1.2-5v-2.5l-2 2.5c-2.2 2.8-3 5.6-3 9.6v2.8l1.3-2.5 2.5-5zm-2.3-7.4l-1.3-5-.7-2.8-1 3.2c-1.6 5.8-1.7 6.5-.4 9l1.3 2 1-2.2c1-1.8 1.2-2.7 1-4.2z"
         id="path3985" />
    </g>
    <g
       stroke="null"
       id="g3987">
      <path
         d="M235 255.2c-1.8-2-4.8-8-7.7-15.2-.2-.3.8.5 2 1.8s2.6 2.3 2.7 2.3c.5 0-3-8.7-4-10-1.6-1.7-.8-1.7 1.3 0 1 1.3 2 2 2.3 2 .3-.4-2.7-8-3.6-9.3-1.6-2-.7-1.8 1.8.4 1.4 1.4 2.5 2.3 2.5 2l-2-5-2.4-5.6c-.4-.4.4 0 1.5 1 1.2 1 2.2 1.8 2.4 1.8.4 0-2.6-7.4-4-9.4-1-2-.4-2.3 1-.4l2 2c1 .4 1 .2 0-2.8l-2-5.6c-.7-1-1.2-2.4-1.2-2.8 0-.4.3-.2.6.3.5 1 5.7 5.2 5.7 4.7l-1-2.6s-1-3.7-1.2-5.3l-.4-5.7s-.3-3 0-3c0 0 1 1.8 1.8 4l1.7 3.8 1-2.8 1.6-8 1-5.3.4 3.2c.5 5 2.6 12.2 3.3 11.5.4-.4 1.3-2 2-3.6l1.3-3-.2 4.3c-.3 5.6-1.2 10-2.2 11-.4.3-.8 1-.8 1.2 0 .5 2.7-1.3 5-3.7 2-1.8 2.6-1.7 1 .2-1 1.4-4.3 10-3.7 10 .2 0 1.3-.8 2.3-2 1-1 2-1.7 2-1.7.2 0-.6 1.6-1.7 3.8-3.3 6.5-3.3 8.4 0 5 .8-1 1.4-1.5 1.2-1l-1.8 4.2c-3.2 7.4-3 8.2.5 4.3l2-2-2.7 5.8c-1.4 3-2.4 5.7-2.3 6 .2 0 1.2-.6 2.3-1.5s2-1.4 2-1c0 .3-.2.6-.5.6s-1.2 2-2 4.2c-1 2.3-2 4.6-2.3 5-.8 1.2.2.7 3-1.5 1-.8 1.8-1.2 1.8-1 0 .4-.3 1-.6 1-.7.6-3.5 7-3.5 8 0 .4-1 2.2-2 4-3 5-4.3 5-7.4 1.4z"
         fill="#fcf646"
         id="path3989" />
      <path
         d="M235 255.2c-1.8-2-4.8-8-7.7-15.2-.2-.3.8.5 2 1.8s2.6 2.3 2.7 2.3c.5 0-3-8.7-4-10-1.6-1.7-.8-1.7 1.3 0 1 1.3 2 2 2.3 2 .3-.4-2.7-8-3.6-9.3-1.6-2-.7-1.8 1.8.4 1.4 1.4 2.5 2.3 2.5 2l-2-5-2.4-5.6c-.4-.4.4 0 1.5 1 1.2 1 2.2 1.8 2.4 1.8.4 0-2.6-7.4-4-9.4-1-2-.4-2.3 1-.4l2 2c1 .4 1 .2 0-2.8l-2-5.6c-.7-1-1.2-2.4-1.2-2.8 0-.4.3-.2.6.3.5 1 5.7 5.2 5.7 4.7l-1-2.6s-1-3.7-1.2-5.3l-.4-5.7s-.3-3 0-3c0 0 1 1.8 1.8 4l1.7 3.8 1-2.8 1.6-8 1-5.3.4 3.2c.5 5 2.6 12.2 3.3 11.5.4-.4 1.3-2 2-3.6l1.3-3-.2 4.3c-.3 5.6-1.2 10-2.2 11-.4.3-.8 1-.8 1.2 0 .5 2.7-1.3 5-3.7 2-1.8 2.6-1.7 1 .2-1 1.4-4.3 10-3.7 10 .2 0 1.3-.8 2.3-2 1-1 2-1.7 2-1.7.2 0-.6 1.6-1.7 3.8-3.3 6.5-3.3 8.4 0 5 .8-1 1.4-1.5 1.2-1l-1.8 4.2c-3.2 7.4-3 8.2.5 4.3l2-2-2.7 5.8c-1.4 3-2.4 5.7-2.3 6 .2 0 1.2-.6 2.3-1.5s2-1.4 2-1c0 .3-.2.6-.5.6s-1.2 2-2 4.2c-1 2.3-2 4.6-2.3 5-.8 1.2.2.7 3-1.5 1-.8 1.8-1.2 1.8-1 0 .4-.3 1-.6 1-.7.6-3.5 7-3.5 8 0 .4-1 2.2-2 4-3 5-4.3 5-7.4 1.4zm2-.7c0-1-.3-2.6-.4-3.4-.4-1.6-3-5-5-6l-1.5-1 1.8 4c.8 2 2.4 5 3.5 6.2l2 2.5v-2zm6.7-6c1-2.2 1.6-4.2 1.5-4.3-.5-.5-4.5 3.3-5.5 5.2-.5 1-1 3-1.2 4.4l-.3 2.7 2-2c1-1.2 2.6-4 3.5-6zm-6.5-2.4c-.6-4-1.6-6-4.6-8-2.8-2.2-2.8-2.2-.4 3.4 1 2.2 4.6 7.7 5.2 7.8l-.2-3zm6.5-5c1-2 1.6-4 1.4-4 0-.3-1 .4-2.2 1.4-2.6 2-3.8 4.2-4.2 8l-.3 2.7 2-2c1-1.3 2.7-4 3.5-6zm-6.6-2.3c-.3-4-1.3-6-4.2-8.2l-2.6-2 1.6 4c1 3 4.7 8.7 5.7 9l-.2-2.8zm6.8-4.6c0-.2.5-1.6 1.2-3l1-2.5-1.6 1c-4 2.8-5.8 6-5.8 9.7v2l2.6-3.2c1.4-1.8 2.5-3.5 2.5-3.8zm-6.8-4.5c-.6-2.7-1.2-3.8-3-5.5-1.4-1.3-2.6-2.3-3-2.3-.3 0 .8 4 2 6.3 1 2.2 4.2 6 4.4 5.3 0-.3 0-2-.5-4zm7-4.2c.8-2 1.5-3.7 1.5-4l-2.3 1.5c-2.6 2-4.6 6-4.6 8.8v2l2-2.4c1-1.2 2.6-4 3.4-5.8zm-6.8-2.4c-.4-3-.8-3.8-3-6-1.3-1.5-2.7-2.7-3-2.7-1.2 0 2.3 8.4 4 9.3.6.4 1.2 1.3 1.4 2 .7 2.2 1 .7.6-2.7zm6.8-4.8c.6-1.5 1.3-3.2 1.7-3.7 1-1.3-3 1.2-4.6 3-1 1.4-2.3 4.8-2.3 7.3 0 1.2.3 1 2.2-1 1-1.5 2.6-4 3-5.5zm-6.8-2.7c-.4-3.6-2-6.4-4.8-8l-1.7-1.2.8 2.6c.4 1.2 1 3 1.5 4 .6 1.2 4 5.7 4.4 6l-.2-3.4zm7.2-5.4c.8-2 1.5-4 1.3-4l-2.7 2c-2.6 2-3.7 4-4.2 8l-.4 3 2.2-2.6c1.2-1.4 3-4.3 3.8-6.3zm-8-8l-2.7-4-1.5-2 .4 3.4c.2 2 1 4.5 1.8 6 .7 1.3 1.7 3.2 2 4.2.8 1.7.8 1.7 1-1.7 0-2.6-.2-4-1-6zm6.2 2c.6-1.3 1-3.5 1-5v-2.4l-2 2.5c-2 3-3 5.7-3 9.7v2.8l1.4-2.5 2.6-5zm-2.3-7.3l-1.2-5-.5-2.8-1 3c-1.7 6-1.7 6.6-.4 9l1.3 2 1.3-2c1-2 1-2.8.8-4.3z"
         id="path3991" />
    </g>
    <g
       stroke="null"
       id="g3993">
      <path
         d="M273.2 255.2c-1.6-2-4.7-8-7.6-15.2 0-.3.8.5 2 1.8s2.6 2.3 2.8 2.3c.4 0-3-8.7-4-10-1.6-1.7-.8-1.7 1.2 0 1 1.3 2.2 2 2.3 2 0-.4-2.8-8-3.7-9.3-1.7-2-.8-1.8 1.7.4 1.5 1.4 2.7 2.3 2.7 2l-2-5-2.5-5.6c0-.4.7 0 1.8 1 1 1 2.2 1.8 2.3 1.8.5 0-2.5-7.4-3.8-9.4-1.2-2-.5-2.3 1-.4l2.2 2c1 .4 1 .2-.2-2.8-.6-1.8-1.7-4.2-2.3-5.4-.6-1-1-2.4-1-2.8 0-.4.2-.2.5.3.5 1 5.7 5.2 5.7 4.7l-1-2.6s-1.3-3.7-1.3-5.3 0-4-.3-5.7-.3-3 0-3l2 4 1.5 3.8 1-2.8 1.8-8 1-5.3.3 3.2c.6 5 2.8 12.2 3.5 11.5l2-3.6 1.2-3-.3 4.3c-.3 5.5-1.2 10-2.2 11-.5.2-.8 1-.8 1 0 .7 2.7-1 5-3.5 1.8-1.8 2.6-1.7 1 .2-1 1.4-4.4 10-3.8 10 .2 0 1.2-.8 2.2-2 1-1 2-1.7 2-1.7l-1.7 3.8c-3.3 6.5-3.3 8.4 0 5 .8-1 1.4-1.5 1.3-1l-2 4.2c-3 7.4-3 8.2.6 4.3 1-1.2 2-2 2-2s-1 2.7-2.5 5.7-2.6 5.7-2.4 6l2.2-1.5s2-1.4 2-1c0 .3-.2.6-.5.6l-2 4.4c-.8 2.3-1.8 4.6-2.2 5-.6 1.2.3.7 3-1.5 1-1 2-1.3 2-1 0 .3-.3 1-.7 1-.6.5-3.4 7-3.4 8 0 .3-1 2-2 4-3 5-4.4 5-7.5 1.3z"
         fill="#fcf646"
         id="path3995" />
      <path
         d="M273.2 255.2c-1.6-2-4.7-8-7.6-15.2 0-.3.8.5 2 1.8s2.6 2.3 2.8 2.3c.4 0-3-8.7-4-10-1.6-1.7-.8-1.7 1.2 0 1 1.3 2.2 2 2.3 2 0-.4-2.8-8-3.7-9.3-1.7-2-.8-1.8 1.7.4 1.5 1.4 2.7 2.3 2.7 2l-2-5-2.5-5.6c0-.4.7 0 1.8 1 1 1 2.2 1.8 2.3 1.8.5 0-2.5-7.4-3.8-9.4-1.2-2-.5-2.3 1-.4l2.2 2c1 .4 1 .2-.2-2.8-.6-1.8-1.7-4.2-2.3-5.4-.6-1-1-2.4-1-2.8 0-.4.2-.2.5.3.5 1 5.7 5.2 5.7 4.7l-1-2.6s-1.3-3.7-1.3-5.3 0-4-.3-5.7-.3-3 0-3l2 4 1.5 3.8 1-2.8 1.8-8 1-5.3.3 3.2c.6 5 2.8 12.2 3.5 11.5l2-3.6 1.2-3-.3 4.3c-.3 5.5-1.2 10-2.2 11-.5.2-.8 1-.8 1 0 .7 2.7-1 5-3.5 1.8-1.8 2.6-1.7 1 .2-1 1.4-4.4 10-3.8 10 .2 0 1.2-.8 2.2-2 1-1 2-1.7 2-1.7l-1.7 3.8c-3.3 6.5-3.3 8.4 0 5 .8-1 1.4-1.5 1.3-1l-2 4.2c-3 7.4-3 8.2.6 4.3 1-1.2 2-2 2-2s-1 2.7-2.5 5.7-2.6 5.7-2.4 6l2.2-1.5s2-1.4 2-1c0 .3-.2.6-.5.6l-2 4.4c-.8 2.3-1.8 4.6-2.2 5-.6 1.2.3.7 3-1.5 1-1 2-1.3 2-1 0 .3-.3 1-.7 1-.6.5-3.4 7-3.4 8 0 .3-1 2-2 4-3 5-4.4 5-7.5 1.3zm2.2-.7c0-1-.3-2.6-.5-3.4-.5-1.6-3-5-5-6l-1.6-1 1.5 4c.7 2 2.3 5 3.4 6.2l2 2.5v-2zm6.6-6c1-2.2 1.6-4.2 1.5-4.3-.5-.5-4.5 3.3-5.5 5.2-.5 1-1 3-1.2 4.4l-.3 2.7 2-2c1-1.2 2.6-4 3.5-6zm-6.5-2.4c-.5-4-1.6-6-4.5-8-3-2.2-3-2.2-.5 3.4 1 2.2 4.6 7.7 5.2 7.8l-.2-3zm6.6-5c1-2 1.7-4 1.6-4 0-.3-1.2.4-2.5 1.4-2.5 2-3.7 4.2-4 8l-.4 2.7 2-2c1-1.3 2.7-4 3.6-6zm-6.5-2.3c-.5-4-1.5-6-4.4-8.2l-2.4-2 1.4 4c1 3 4.6 8.7 5.7 9 0 .2 0-1-.3-2.8zm6.7-4.6l1.2-3 1-2.5-1.4 1c-4 2.8-5.8 6-5.8 9.7v2l2.5-3.2c1.4-1.8 2.6-3.5 2.6-3.8zm-6.7-4.5c-.6-2.7-1.2-3.8-3-5.5-1.3-1.3-2.6-2.3-2.8-2.3-.5 0 .6 4 1.8 6.3 1 2.2 4.2 6 4.4 5.3 0-.3 0-2-.5-4zm7-4.2c.8-2 1.5-3.7 1.5-4l-2.3 1.5c-2.6 2-4.5 6-4.5 8.8v2l2-2.4c1-1.2 2.6-4 3.4-5.8zm-6.8-2.4c-.3-3-.8-3.8-3-6-1.3-1.5-2.6-2.7-3-2.7-1.2 0 2.3 8.4 4 9.3.6.4 1.3 1.3 1.5 2 .6 2.2 1 .7.5-2.7zm7-4.8c.4-1.5 1.2-3.2 1.5-3.7 1-1.3-3 1.2-4.5 3-1.4 1.4-2.5 4.8-2.5 7.3 0 1.2.2 1 2.2-1 1.2-1.5 2.6-4 3.2-5.5zm-7-2.7c-.4-3.6-2-6.4-4.7-8l-2-1.5.8 2.6c.5 1.3 1 3 1.5 4 .7 1.3 4 5.8 4.4 6 .2 0 0-1.5 0-3.3zm7.2-5.4c1-2 1.4-4 1.2-4l-2.5 2c-2.7 2-4 4-4.4 8l-.2 3 2-2.7c1.4-1.4 3-4.3 4-6.3zm-8-8l-2.7-4-1.4-2 .3 3.4c.2 2 1 4.5 1.7 6 .8 1.3 1.7 3.2 2 4.2.8 1.7.8 1.7 1-1.7 0-2.6 0-4-1-6zm6 2c.6-1.3 1-3.5 1-5v-2.4l-2 2.5c-2 3-3 5.7-3 9.7v2.8l1.5-2.5c.7-1.4 2-3.7 2.5-5zm-2.3-7.3c-.3-1-.8-3.3-1-5l-.8-2.8-1 3c-2 6-2 6.6-.6 9l1.2 2 1.3-2c1-2 1-2.8.7-4.3z"
         id="path3997" />
    </g>
    <g
       stroke="null"
       id="g3999">
      <path
         d="M158.2 255.2c-1.7-2-4.7-8-7.6-15.2 0-.3.8.5 2 1.8s2.6 2.3 2.8 2.3c.4 0-3-8.7-4-10-1.6-1.7-.8-1.7 1.2 0 1 1.3 2.2 2 2.3 2 0-.4-2.8-8-3.8-9.3-1.6-2-.7-1.8 1.8.4 1.5 1.4 2.7 2.3 2.7 2l-2-5-2.5-5.6c-.2-.4.7 0 1.8 1 1 1 2.2 1.8 2.3 1.8.5 0-2.5-7.4-3.8-9.4-1.2-2-.5-2.3 1-.4l2.2 2c1 .4 1 .2-.2-2.8l-2.3-5.4c-.6-1-1-2.4-1-2.8 0-.4.2-.2.5.3.5 1 5.7 5.2 5.7 4.7l-1.2-2.6s-1-3.7-1-5.3-.4-4-.6-5.7-.3-3 0-3c0 0 1 1.8 1.8 4l1.7 3.8 1-2.8 1.8-8 1-5.3.4 3.2c.6 5 2.8 12.2 3.5 11.5l2-3.6 1.2-3-.4 4.3c-.3 5.5-1.2 10-2.2 11-.5.2-.8 1-.8 1 0 .7 2.6-1 5-3.5 1.8-1.8 2.5-1.7 1 .2-1 1.4-4.4 10-3.8 10 .3 0 1.3-.8 2.3-2 1-1 2-1.7 2-1.7l-1.6 3.8c-3.3 6.5-3.3 8.4 0 5 .8-1 1.4-1.5 1.2-1l-1.8 4.2c-3.2 7.4-3 8.2.5 4.3 1-1.2 2-2 2-2l-2.6 5.7c-1.4 3-2.4 5.7-2.2 6l2.2-1.5s2-1.4 2-1c0 .3-.2.6-.5.6-.2 0-1 2-2 4.4s-1.8 4.6-2.2 5c-.7 1.2.2.7 3-1.5 1-1 1.8-1.3 1.8-1 0 .3-.2 1-.6 1-.6.5-3.4 7-3.4 8 0 .3-.8 2-2 4-3 5-4.3 5-7.4 1.3z"
         fill="#fcf646"
         id="path4001" />
      <path
         d="M158.2 255.2c-1.7-2-4.7-8-7.6-15.2 0-.3.8.5 2 1.8s2.6 2.3 2.8 2.3c.4 0-3-8.7-4-10-1.6-1.7-.8-1.7 1.2 0 1 1.3 2.2 2 2.3 2 0-.4-2.8-8-3.8-9.3-1.6-2-.7-1.8 1.8.4 1.5 1.4 2.7 2.3 2.7 2l-2-5-2.5-5.6c-.2-.4.7 0 1.8 1 1 1 2.2 1.8 2.3 1.8.5 0-2.5-7.4-3.8-9.4-1.2-2-.5-2.3 1-.4l2.2 2c1 .4 1 .2-.2-2.8l-2.3-5.4c-.6-1-1-2.4-1-2.8 0-.4.2-.2.5.3.5 1 5.7 5.2 5.7 4.7l-1.2-2.6s-1-3.7-1-5.3-.4-4-.6-5.7-.3-3 0-3c0 0 1 1.8 1.8 4l1.7 3.8 1-2.8 1.8-8 1-5.3.4 3.2c.6 5 2.8 12.2 3.5 11.5l2-3.6 1.2-3-.4 4.3c-.3 5.5-1.2 10-2.2 11-.5.2-.8 1-.8 1 0 .7 2.6-1 5-3.5 1.8-1.8 2.5-1.7 1 .2-1 1.4-4.4 10-3.8 10 .3 0 1.3-.8 2.3-2 1-1 2-1.7 2-1.7l-1.6 3.8c-3.3 6.5-3.3 8.4 0 5 .8-1 1.4-1.5 1.2-1l-1.8 4.2c-3.2 7.4-3 8.2.5 4.3 1-1.2 2-2 2-2l-2.6 5.7c-1.4 3-2.4 5.7-2.2 6l2.2-1.5s2-1.4 2-1c0 .3-.2.6-.5.6-.2 0-1 2-2 4.4s-1.8 4.6-2.2 5c-.7 1.2.2.7 3-1.5 1-1 1.8-1.3 1.8-1 0 .3-.2 1-.6 1-.6.5-3.4 7-3.4 8 0 .3-.8 2-2 4-3 5-4.3 5-7.4 1.3zm2.2-.7c0-1-.3-2.6-.5-3.4-.5-1.6-3-5-5-6l-1.7-1 1.6 4c.7 2 2.3 5 3.4 6.2l2 2.5v-2zm6.6-6c1-2.2 1.6-4.2 1.5-4.3-.5-.5-4.5 3.3-5.5 5.2-.5 1-1 3-1.2 4.4l-.3 2.7 2-2c1-1.2 2.6-4 3.5-6zm-6.5-2.4c-.5-4-1.6-6-4.5-8-3-2.2-3-2.2-.5 3.4 1 2.2 4.6 7.7 5.2 7.8l-.2-3zm6.6-5c1-2 1.7-4 1.6-4 0-.3-1.3.4-2.5 1.4-2.5 2-3.7 4.2-4 8l-.4 2.7 2-2c1-1.3 2.7-4 3.6-6zm-6.5-2.3c-.5-4-1.5-6-4.4-8.2l-2.4-2 1.4 4c1 3 4.6 8.7 5.7 9 0 .2 0-1-.3-2.8zm6.7-4.6l1.2-3 1-2.5-1.4 1c-4 2.8-6 6-6 9.7v2l2.7-3.2c1.4-1.8 2.6-3.5 2.6-3.8zm-6.7-4.5c-.6-2.7-1.2-3.8-3-5.5-1.3-1.3-2.6-2.3-2.8-2.3-.5 0 .6 4 1.8 6.3 1 2.2 4.2 6 4.4 5.3 0-.3 0-2-.5-4zm7-4.2c.8-2 1.5-3.7 1.5-4l-2.3 1.5c-2.6 2-4.6 6-4.6 8.8v2l2-2.4c1-1.2 2.7-4 3.5-5.8zm-6.8-2.4c-.3-3-.8-3.8-3-6-1.3-1.5-2.7-2.7-3-2.7-1.2 0 2.3 8.4 4 9.3.6.4 1.3 1.3 1.5 2 .6 2.2 1 .7.5-2.7zm7-4.8c.4-1.5 1.2-3.2 1.5-3.7 1-1.3-3 1.2-4.5 3-1.4 1.4-2.5 4.8-2.6 7.3 0 1.2.3 1 2.3-1 1.2-1.5 2.6-4 3.2-5.5zm-7-2.7c-.4-3.6-2-6.4-4.7-8l-2-1.5.8 2.6c.4 1.3 1 3 1.5 4 .7 1.3 4 5.8 4.4 6 .2 0 0-1.5 0-3.3zm7.2-5.4c1-2 1.4-4 1.2-4l-2.5 2c-2.7 2-4 4-4.4 8l-.2 3 2-2.7c1.4-1.4 3-4.3 4-6.3zm-8-8l-2.7-4-1.4-2 .2 3.4c.2 2 1 4.5 1.7 6l2 4.2c.7 1.7.7 1.7 1-1.7 0-2.6 0-4-1-6zm6 2c.6-1.3 1-3.5 1-5v-2.4l-2 2.5c-2 3-3 5.7-3 9.7v2.8l1.5-2.5c.7-1.4 2-3.7 2.5-5zm-2.3-7.3l-1.2-5-.6-2.8-1 3c-2 6-2 6.6-.6 9l1.2 2 1.3-2c1-2 1-2.8.7-4.3z"
         id="path4003" />
    </g>
    <g
       stroke="null"
       id="g4005">
      <path
         d="M120 255.2c-1.8-2-4.8-8-7.7-15.2-.2-.3.8.5 2 1.8s2.6 2.3 2.7 2.3c.5 0-3-8.7-4-10-1.6-1.7-.8-1.7 1.3 0 1 1.3 2 2 2.2 2 .4-.4-2.6-8-3.5-9.3-1.6-2-.7-1.8 1.8.4 1.4 1.4 2.5 2.3 2.5 2l-2-5-2.4-5.6c-.4-.4.4 0 1.5 1 1.2 1 2.2 1.8 2.4 1.8.4 0-2.6-7.4-4-9.4-1.2-2-.4-2.3 1-.4l2 2c1 .4 1 .2 0-2.8l-2-5.6c-.7-1-1.2-2.4-1.2-2.8 0-.4.3-.2.6.3.4 1 5.6 5.2 5.6 4.7l-1-2.6s-1.2-3.7-1.3-5.3l-.4-5.7-.2-3c.4 0 1.3 1.8 2 4l1.8 3.8 1-2.8c.3-1.6 1-5.2 1.7-8l1-5.3.4 3.2c.4 5 2.5 12.2 3.2 11.5.4-.4 1.3-2 2-3.6l1.3-3-.2 4.3c-.3 5.6-1.2 10-2.2 11-.3.3-.7 1-.7 1.2 0 .5 2.7-1.3 5-3.7 1.8-1.8 2.6-1.7 1 .2-1 1.4-4.3 10-3.7 10 .2 0 1.3-.8 2.3-2 1-1 2-1.7 2-1.7s-.7 1.6-1.8 3.8c-3.3 6.5-3.3 8.4 0 5 .8-1 1.4-1.5 1.2-1l-1.8 4.2c-3.2 7.4-3 8.2.5 4.3l2-2-2.6 5.8c-1.4 3-2.4 5.7-2.3 6 .3 0 1.3-.6 2.4-1.5s2-1.4 2-1c0 .3-.2.6-.5.6s-1.3 2-2 4.2c-1 2.3-2 4.6-2.4 5-.8 1.2.2.7 3-1.5 1-.8 1.8-1.2 1.8-1 0 .4-.3 1-.6 1-.6.6-3.4 7-3.4 8 0 .4-1 2.2-2 4-3 5-4.3 5-7.4 1.4z"
         fill="#fcf646"
         id="path4007" />
      <path
         d="M120 255.2c-1.8-2-4.8-8-7.7-15.2-.2-.3.8.5 2 1.8s2.6 2.3 2.7 2.3c.5 0-3-8.7-4-10-1.6-1.7-.8-1.7 1.3 0 1 1.3 2 2 2.2 2 .4-.4-2.6-8-3.5-9.3-1.6-2-.7-1.8 1.8.4 1.4 1.4 2.5 2.3 2.5 2l-2-5-2.4-5.6c-.4-.4.4 0 1.5 1 1.2 1 2.2 1.8 2.4 1.8.4 0-2.6-7.4-4-9.4-1.2-2-.4-2.3 1-.4l2 2c1 .4 1 .2 0-2.8l-2-5.6c-.7-1-1.2-2.4-1.2-2.8 0-.4.3-.2.6.3.4 1 5.6 5.2 5.6 4.7l-1-2.6s-1.2-3.7-1.3-5.3l-.4-5.7-.2-3c.4 0 1.3 1.8 2 4l1.8 3.8 1-2.8c.3-1.6 1-5.2 1.7-8l1-5.3.4 3.2c.4 5 2.5 12.2 3.2 11.5.4-.4 1.3-2 2-3.6l1.3-3-.2 4.3c-.3 5.6-1.2 10-2.2 11-.3.3-.7 1-.7 1.2 0 .5 2.7-1.3 5-3.7 1.8-1.8 2.6-1.7 1 .2-1 1.4-4.3 10-3.7 10 .2 0 1.3-.8 2.3-2 1-1 2-1.7 2-1.7s-.7 1.6-1.8 3.8c-3.3 6.5-3.3 8.4 0 5 .8-1 1.4-1.5 1.2-1l-1.8 4.2c-3.2 7.4-3 8.2.5 4.3l2-2-2.6 5.8c-1.4 3-2.4 5.7-2.3 6 .3 0 1.3-.6 2.4-1.5s2-1.4 2-1c0 .3-.2.6-.5.6s-1.3 2-2 4.2c-1 2.3-2 4.6-2.4 5-.8 1.2.2.7 3-1.5 1-.8 1.8-1.2 1.8-1 0 .4-.3 1-.6 1-.6.6-3.4 7-3.4 8 0 .4-1 2.2-2 4-3 5-4.3 5-7.4 1.4zm2-.7c0-1-.3-2.6-.4-3.4-.4-1.6-3-5-5-6l-1.5-1 1.8 4c.8 2 2.4 5 3.5 6.2l2 2.5v-2zm6.7-6c1-2.2 1.6-4.2 1.4-4.3-.2-.5-4.2 3.3-5.2 5.2-.5 1-1 3-1.3 4.4l-.2 2.7 2-2c1-1.2 2.5-4 3.5-6zm-6.5-2.4c-.6-4-1.6-6-4.6-8-2.8-2.2-2.8-2.2-.5 3.4 1 2.2 5 7.7 5.5 7.8l-.2-3zm6.5-5c1-2 1.6-4 1.4-4 0-.3-1 .4-2.3 1.4-2.5 2-3.7 4.2-4 8l-.4 2.7 2-2c1-1.3 2.6-4 3.5-6zm-6.6-2.3c-.3-4-1.3-6-4.2-8.2l-2.6-2 1.6 4c1 3 4.7 8.7 5.7 9l-.2-2.8zm6.8-4.6l1-3 1.3-2.5-1.5 1c-4 2.8-5.8 6-5.8 9.7v2l2.6-3.2c1.4-1.8 2.5-3.5 2.5-3.8zm-6.8-4.5c-.6-2.7-1.2-3.8-3-5.5-1.4-1.3-2.6-2.3-3-2.3-.3 0 .8 4 2 6.3 1 2.2 4.2 6 4.4 5.3 0-.3 0-2-.5-4zm7-4.2l1.4-4-2.2 1.5c-2.6 2-4.6 6-4.6 8.8v2l2-2.4c1-1.2 2.6-4 3.4-5.8zm-6.8-2.4c-.4-3-.8-3.8-3-6-1.3-1.5-2.7-2.7-3-2.7-1.2 0 2.3 8.4 4 9.3.6.4 1.2 1.3 1.4 2 .7 2.2 1 .7.6-2.7zm6.8-4.8c.6-1.5 1.3-3.2 1.7-3.7 1-1.3-3 1.2-4.6 3-1 1.4-2.3 4.8-2.3 7.3 0 1.2.3 1 2.2-1 1-1.5 2.6-4 3-5.5zm-6.8-2.7c-.4-3.6-2-6.4-4.8-8l-1.7-1.2.8 2.6c.4 1.2 1 3 1.5 4 .6 1.2 4 5.7 4.4 6l-.2-3.4zm7.2-5.4l1.3-4c-.2 0-1.3 1-2.6 2-2.5 2-3.6 4-4 8l-.5 3 2.2-2.7c1.2-1.4 3-4.3 3.8-6.3zm-8-8l-2.7-4-1.5-2 .4 3.4c.2 2 1 4.5 1.8 6 .7 1.3 1.7 3.2 2 4.2.8 1.7.8 1.7 1-1.7 0-2.6-.2-4-1-6zm6.2 2c.6-1.3 1-3.5 1-5v-2.4l-2 2.5c-2 3-3 5.7-3 9.7v2.8l1.4-2.5 2.6-5zm-2.3-7.3l-1.2-5-.5-2.8-1 3c-1.7 6-1.7 6.6-.4 9l1.3 2 1.3-2c1-2 1-2.8.8-4.3z"
         id="path4009" />
    </g>
  </g>
</svg>
