<?xml version="1.0" encoding="UTF-8" standalone="no"?>
<svg
   xmlns:dc="http://purl.org/dc/elements/1.1/"
   xmlns:cc="http://creativecommons.org/ns#"
   xmlns:rdf="http://www.w3.org/1999/02/22-rdf-syntax-ns#"
   xmlns:svg="http://www.w3.org/2000/svg"
   xmlns="http://www.w3.org/2000/svg"
   xmlns:sodipodi="http://sodipodi.sourceforge.net/DTD/sodipodi-0.dtd"
   xmlns:inkscape="http://www.inkscape.org/namespaces/inkscape"
   width="64"
   height="64"
   version="1.1"
   id="svg6"
   sodipodi:docname="facebook.svg"
   inkscape:version="0.92.1 r15371">
  <metadata
     id="metadata12">
    <rdf:RDF>
      <cc:Work
         rdf:about="">
        <dc:format>image/svg+xml</dc:format>
        <dc:type
           rdf:resource="http://purl.org/dc/dcmitype/StillImage" />
      </cc:Work>
    </rdf:RDF>
  </metadata>
  <defs
     id="defs10" />
  <sodipodi:namedview
     pagecolor="#ffffff"
     bordercolor="#666666"
     borderopacity="1"
     objecttolerance="10"
     gridtolerance="10"
     guidetolerance="10"
     inkscape:pageopacity="0"
     inkscape:pageshadow="2"
     inkscape:window-width="1366"
     inkscape:window-height="705"
     id="namedview8"
     showgrid="false"
     inkscape:zoom="3.6875"
     inkscape:cx="-23.050847"
     inkscape:cy="32"
     inkscape:window-x="-8"
     inkscape:window-y="-8"
     inkscape:window-maximized="1"
     inkscape:current-layer="svg6" />
  <circle
     class="style-scope iron-icon"
     style="fill:#3c5b9b;fill-opacity:1;stroke-width:4.5947957"
     id="path3684"
     cx="32"
     cy="32"
     r="29.5" />
  <g
     class="style-scope iron-icon"
     id="g4"
     transform="matrix(0.58333333,0,0,0.578125,10.766667,13.5)"
     style="fill:#ffffff">
    <path
       d="M 28.8,64 V 34 h -8 V 23.2 h 8 c 0,0 0,-4.4 0,-9.2 0,-7.2 4.8,-14 15.6,-14 4.4,0 7.6,0.4 7.6,0.4 l -0.4,10 c 0,0 -3.2,0 -6.8,0 -4,0 -4.4,1.6 -4.4,4.8 0,2.4 0,-5.2 0,8 H 52 L 51.6,34 H 40.4 v 30 z"
       class="style-scope iron-icon"
       id="path2"
       inkscape:connector-curvature="0"
       style="fill:#ffffff" />
  </g>
</svg>
