<?xml version="1.0" encoding="UTF-8" standalone="no"?>
<svg
   xmlns:dc="http://purl.org/dc/elements/1.1/"
   xmlns:cc="http://creativecommons.org/ns#"
   xmlns:rdf="http://www.w3.org/1999/02/22-rdf-syntax-ns#"
   xmlns:svg="http://www.w3.org/2000/svg"
   xmlns="http://www.w3.org/2000/svg"
   xmlns:sodipodi="http://sodipodi.sourceforge.net/DTD/sodipodi-0.dtd"
   xmlns:inkscape="http://www.inkscape.org/namespaces/inkscape"
   width="64"
   height="64"
   version="1.1"
   id="svg8"
   sodipodi:docname="google.svg"
   inkscape:version="0.92.1 r15371">
  <metadata
     id="metadata14">
    <rdf:RDF>
      <cc:Work
         rdf:about="">
        <dc:format>image/svg+xml</dc:format>
        <dc:type
           rdf:resource="http://purl.org/dc/dcmitype/StillImage" />
      </cc:Work>
    </rdf:RDF>
  </metadata>
  <defs
     id="defs12" />
  <sodipodi:namedview
     pagecolor="#ffffff"
     bordercolor="#666666"
     borderopacity="1"
     objecttolerance="10"
     gridtolerance="10"
     guidetolerance="10"
     inkscape:pageopacity="0"
     inkscape:pageshadow="2"
     inkscape:window-width="1366"
     inkscape:window-height="705"
     id="namedview10"
     showgrid="false"
     inkscape:zoom="3.6875"
     inkscape:cx="32"
     inkscape:cy="32"
     inkscape:window-x="-8"
     inkscape:window-y="-8"
     inkscape:window-maximized="1"
     inkscape:current-layer="svg8" />
  <circle
     class="style-scope iron-icon"
     style="fill:#f63e28;fill-opacity:1;stroke-width:7.40162659"
     id="path4491"
     cx="32"
     cy="32"
     r="29.5" />
  <g
     class="style-scope iron-icon"
     id="g6"
     transform="matrix(0.58700204,0,0,0.58333333,13.098529,13.216667)"
     style="fill:#ffffff">
    <path
       d="M 64,15.6 H 52.8 V 5.2 H 50.4 V 15.6 H 39.6 v 3.2 h 10.8 v 10.4 h 2.4 V 18.8 H 64 Z"
       class="style-scope iron-icon"
       id="path2"
       inkscape:connector-curvature="0"
       style="fill:#ffffff" />
    <path
       d="m 27.6,36 c -1.6,-0.8 -4.4,-3.6 -4.4,-5.2 0,-1.6 0.4,-2.8 3.2,-4.8 2.8,-2 4.8,-4.8 4.8,-8.4 0,-4.4 -2,-8.4 -5.2,-9.6 h 5.2 l 3.6,-2.8 c 0,0 -12.4,0 -16.8,0 -7.6,0 -14.4,5.6 -14.4,12.4 0,6.8 5.2,12 12.8,12 0.4,0 1.2,0 1.6,0 -0.8,0.8 -0.8,1.6 -0.8,2.8 0,2 1.2,3.2 2.4,4.8 -0.8,0 -2,0 -2.8,0 -9.2,0 -16.4,6 -16.4,12 0,6 8,10 17.2,10 C 28,59.2 34,53.2 34,47.2 33.6,42 32,39.2 27.6,36 Z m -8.8,-8.4 c -4.4,0 -8.4,-4.8 -9.2,-10.4 -0.8,-5.6 2,-10 6.4,-10 4.4,0 8.4,4.8 9.2,10.4 0.8,5.6 -2,10.4 -6.4,10 z M 17.2,56.4 C 10.8,56.4 6,52.4 6,47.6 c 0,-4.8 5.6,-8.8 12,-8.8 1.6,0 2.8,0.4 4,0.8 3.6,2.4 6,3.6 6.8,6.4 0,0.4 0.4,1.2 0.4,1.6 0,4.8 -3.2,8.8 -12,8.8 z"
       class="style-scope iron-icon"
       id="path4"
       inkscape:connector-curvature="0"
       style="fill:#ffffff" />
  </g>
</svg>
