<?xml version="1.0" encoding="UTF-8" standalone="no"?>
<svg
   xmlns:dc="http://purl.org/dc/elements/1.1/"
   xmlns:cc="http://creativecommons.org/ns#"
   xmlns:rdf="http://www.w3.org/1999/02/22-rdf-syntax-ns#"
   xmlns:svg="http://www.w3.org/2000/svg"
   xmlns="http://www.w3.org/2000/svg"
   xmlns:sodipodi="http://sodipodi.sourceforge.net/DTD/sodipodi-0.dtd"
   xmlns:inkscape="http://www.inkscape.org/namespaces/inkscape"
   version="1.0"
   width="1080"
   height="480"
   viewBox="0 0 1080 480"
   preserveAspectRatio="xMidYMid meet"
   id="svg42"
   sodipodi:docname="tes-2000.svg"
   inkscape:version="0.92.4 (5da689c313, 2019-01-14)">
  <metadata
     id="metadata48">
    <rdf:RDF>
      <cc:Work
         rdf:about="">
        <dc:format>image/svg+xml</dc:format>
        <dc:type
           rdf:resource="http://purl.org/dc/dcmitype/StillImage" />
        <dc:title></dc:title>
      </cc:Work>
    </rdf:RDF>
  </metadata>
  <defs
     id="defs46" />
  <sodipodi:namedview
     pagecolor="#ffffff"
     bordercolor="#666666"
     borderopacity="1"
     objecttolerance="10"
     gridtolerance="10"
     guidetolerance="10"
     inkscape:pageopacity="0"
     inkscape:pageshadow="2"
     inkscape:window-width="1680"
     inkscape:window-height="987"
     id="namedview44"
     showgrid="false"
     inkscape:zoom="0.48602967"
     inkscape:cx="477.83791"
     inkscape:cy="107.94849"
     inkscape:window-x="1432"
     inkscape:window-y="-8"
     inkscape:window-maximized="1"
     inkscape:current-layer="svg42"
     viewbox-width="1440"
     fit-margin-top="0"
     fit-margin-left="0"
     fit-margin-right="0"
     fit-margin-bottom="0"
     units="px" />
  <g
     transform="matrix(0.27069037,0,0,-0.33633634,-13.775941,503.68769)"
     id="g40"
     style="fill:#f58c4a;fill-opacity:1;stroke:none">
    <path
       d="m 3375,1440 c -264,-35 -413,-151 -423,-331 -9,-148 84,-249 338,-364 253,-114 326,-153 363,-194 47,-52 54,-82 30,-123 -42,-71 -161,-102 -383,-96 -115,3 -127,1 -116,-13 6,-8 45,-57 86,-108 l 75,-93 125,5 c 138,5 213,22 309,69 214,104 268,339 116,507 -57,63 -168,126 -373,212 -182,77 -236,109 -275,161 -38,51 3,113 96,145 43,14 88,18 264,18 h 213 v 108 107 l -192,-1 c -106,-1 -220,-5 -253,-9 z"
       id="path30"
       style="fill:#f58c4a;fill-opacity:1"
       inkscape:connector-curvature="0" />
    <path
       d="m 110,1325 v -105 l 248,-2 247,-3 3,-547 2,-548 h 150 150 l 2,548 3,547 244,5 245,5 12,75 c 7,41 15,87 18,103 l 6,27 H 775 110 Z"
       id="path32"
       style="fill:#f58c4a;fill-opacity:1"
       inkscape:connector-curvature="0" />
    <path
       d="m 1600,1325 v -105 h 381 381 l -15,24 c -9,13 -39,60 -68,105 l -51,81 h -314 -314 z"
       id="path34"
       style="fill:#f58c4a;fill-opacity:1"
       inkscape:connector-curvature="0" />
    <path
       d="M 1600,780 V 670 h 570 c 314,0 570,2 570,5 0,3 -32,53 -71,110 l -71,105 h -499 -499 z"
       id="path36"
       style="fill:#f58c4a;fill-opacity:1"
       inkscape:connector-curvature="0" />
    <path
       d="M 1600,225 V 120 h 760 c 418,0 760,2 760,5 0,2 -32,49 -71,105 l -70,100 h -690 -689 z"
       id="path38"
       style="fill:#f58c4a;fill-opacity:1"
       inkscape:connector-curvature="0" />
  </g>
</svg>
