<?xml version="1.0" encoding="UTF-8" standalone="no"?>
<svg
   xmlns:dc="http://purl.org/dc/elements/1.1/"
   xmlns:cc="http://creativecommons.org/ns#"
   xmlns:rdf="http://www.w3.org/1999/02/22-rdf-syntax-ns#"
   xmlns:svg="http://www.w3.org/2000/svg"
   xmlns="http://www.w3.org/2000/svg"
   xmlns:sodipodi="http://sodipodi.sourceforge.net/DTD/sodipodi-0.dtd"
   xmlns:inkscape="http://www.inkscape.org/namespaces/inkscape"
   id="Layer_1"
   version="1.1"
   viewBox="0 0 1080 480"
   sodipodi:docname="the-village-maid-logo - Copy.svg"
   width="1080"
   height="480"
   inkscape:version="0.92.4 (5da689c313, 2019-01-14)">
  <metadata
     id="metadata46">
    <rdf:RDF>
      <cc:Work
         rdf:about="">
        <dc:format>image/svg+xml</dc:format>
        <dc:type
           rdf:resource="http://purl.org/dc/dcmitype/StillImage" />
        <dc:title></dc:title>
      </cc:Work>
    </rdf:RDF>
  </metadata>
  <defs
     id="defs44" />
  <sodipodi:namedview
     pagecolor="#ffffff"
     bordercolor="#666666"
     borderopacity="1"
     objecttolerance="10"
     gridtolerance="10"
     guidetolerance="10"
     inkscape:pageopacity="0"
     inkscape:pageshadow="2"
     inkscape:window-width="1680"
     inkscape:window-height="987"
     id="namedview42"
     showgrid="false"
     inkscape:zoom="0.85208335"
     inkscape:cx="379.27325"
     inkscape:cy="120.88021"
     inkscape:window-x="1432"
     inkscape:window-y="-8"
     inkscape:window-maximized="1"
     inkscape:current-layer="Layer_1"
     showguides="false" />
  <style
     id="style29">.st0{fill:#eddddd}.st1{fill:#871515}
	 @font-face {
	 	font-family: 'Cinzel';
		font-style: normal;
		font-weight: 400;
		src: local('Cinzel Regular'),
			local('Cinzel-Regular'),
			url(https://fonts.gstatic.com/s/cinzel/v8/8vIJ7ww63mVu7gt79mT7.woff2) format('woff2'),
			url(https://fonts.gstatic.com/s/cinzel/v8/8vIJ7ww63mVu7gt79mT9.woff) format('woff');
		unicode-range: U+0000-00FF, U+0131, U+0152-0153, U+02BB-02BC, U+02C6, U+02DA, U+02DC, U+2000-206F, U+2074, U+20AC, U+2122, U+2191, U+2193, U+2212, U+2215, U+FEFF, U+FFFD;
	 }

 </style>
  <path
     class="st0"
     d="M 247.8,15 C 121.4,15 18.9,117.5 18.9,243.9 c 0,126.4 102.5,228.9 228.9,228.9 126.4,0 228.9,-102.5 228.9,-228.9 C 476.7,117.5 374.2,15 247.8,15 Z m 0.5,430.2 C 136.6,445.2 46.1,354.7 46.1,243 46.1,131.3 136.6,40.8 248.3,40.8 360,40.8 450.5,131.3 450.5,243 450.5,354.7 360,445.2 248.3,445.2 Z"
     id="path31"
     inkscape:connector-curvature="0"
     style="fill:#eddddd" />
  <g
     id="g39">
    <path
       class="st1"
       d="m 367.6,198.4 c -0.3,0 -0.6,0 -0.9,0.2 -2.8,1.3 -5.9,0.7 -8,-1.4 6.3,-3.9 10.2,-10.4 10.8,-17.9 0,-0.4 -0.1,-0.7 -0.2,-1 -0.5,-1.1 -2.5,-1.4 -3,0.2 -1.7,6.6 -7.9,9.8 -13.8,12.2 -1,0.6 -2,1 -3.1,1.5 v 0.1 c -0.6,5 -2.1,9.7 -4.6,14.1 -0.4,0.8 -0.1,2.2 0.9,2.3 8.7,1.2 17,-1.4 23.3,-7.6 1.3,-1.2 -0.1,-3 -1.4,-2.7 z M 126.5,316.8 c 0,-0.2 0,-0.3 -0.1,-0.5 z m -40,-117.1 c -0.3,-1 -0.6,-2.1 -0.8,-3.1 -3.5,2.5 -9.9,5.3 -12.2,6.7 -9.9,6.2 -19.8,12.4 -29.8,18.6 -11,6.9 -23.8,12.9 -33.9,21.1 -6.1,4.9 -4.3,6.6 -5.9,14.1 28.3,-17.5 56.5,-35.1 84.7,-52.8 -0.7,-1.6 -1.6,-3 -2.1,-4.6 z"
       id="path33"
       inkscape:connector-curvature="0"
       style="fill:#871515" />
    <path
       class="st1"
       d="m 51.6,132.2 c 7.6,5.3 15.7,-1.7 21.9,1.5 12.1,6.3 8.9,34.7 10.5,45.9 0.4,2.5 3.7,10.2 3.9,13.6 0.5,1.6 0.9,3.3 1.4,5 0.5,1.6 1.3,3 1.9,4.5 l 0.1,-0.1 c 6.9,13.9 17.1,23.8 26.8,35.4 5,6 6.6,10.2 6.9,17.8 0.4,11.9 0.1,23.9 0.8,35.8 0.4,6.7 3.7,19 3.3,26.9 2.5,-3.4 4.7,-7.1 6.6,-9.8 4.3,-6 8.3,-12.1 12.5,-18.1 6.8,-9.9 17.5,-16.5 23.3,-27.2 -5.3,-11.8 -11.6,-23.1 -16.5,-35.1 -4.9,-11.9 -13,-17.7 -20.4,-27.8 -2.6,-3.5 -4.9,-7.3 -7.2,-11.1 -1.9,-3.2 -2.9,-4.5 -3,-5.4 -1.8,-3.8 -4.9,-7.1 -6.4,-10.9 C 110.5,159.3 102.7,144.8 98.9,129.6 95.7,117.1 94.8,104.2 91.7,91.8 88.5,79 84.3,70 85.7,56.5 86.4,49.9 87,48.2 82.6,44.3 75.7,38.1 68.8,36.4 62.6,43.2 52.3,54.5 49,71.5 51.7,86.1 c 0.9,5 6,15.4 3,20.4 -3.6,5.9 -9,0.6 -11.2,7.3 -2,6.1 3.3,15.1 8.1,18.4 z m 282.9,78 c 0.7,2 0.9,4.1 1.2,6.1 2.4,-4 6.1,-8.6 7.5,-12.3 9.5,-25.8 10.3,-55.9 -11.8,-75.6 -11.6,-10.4 -24,-11 -38.6,-13.7 -13.7,-2.5 -25.2,-6.4 -39.2,-3.2 -24,5.5 -36.5,40.4 -33.2,62.5 0.9,6 2.3,13.1 4.8,18.7 1.9,4.2 8.5,9.7 9.4,13.9 2.3,0.2 5.3,-0.4 7.1,-1.3 2.9,-1.5 1,-4.2 2.6,-6.7 1.8,-2.8 5.5,-2 6.9,-5.5 1.2,-3.1 0,-7 -0.8,-10 -1.3,-4.7 -3.2,-9.1 -2.8,-14.1 0.2,-2.9 0.7,-7.3 3.3,-9.1 -0.3,-2.5 -1.6,-4.8 -2,-7.3 -0.3,-2 -0.3,-4.2 -0.1,-6.2 0.3,-3.2 1.6,-6.2 4.5,-7.9 2.6,-1.5 6.6,-2.5 9.4,-1 2.1,1.1 2.4,3 2.7,5 5.4,-3.3 11.1,-3.1 17.3,-1.1 4.7,1.5 9.5,0.6 14.3,2.5 3.6,1.5 6.9,3.6 9.7,6.2 6.4,5.8 10.5,13.9 11.7,22.4 0.5,3.7 0.9,7.8 -0.1,11.5 -0.8,2.9 -1.5,4.5 -0.8,7.7 0.3,1.4 0.6,2.7 0.8,4.1 5.9,0.5 11.6,1.3 10.4,8.1 2.6,1.6 4.7,3.3 5.8,6.3 z"
       id="path35"
       inkscape:connector-curvature="0"
       style="fill:#871515" />
    <path
       class="st1"
       d="m 418.1,222.5 c 0,-0.9 0,-1.8 -0.2,-2.7 0,-1.8 -1,-2.6 -3,-2.2 -0.6,0.1 -1.1,0.5 -1.3,1.1 0,0.1 0,0.2 -0.1,0.3 v 0.4 c 0,0.8 0.1,1.5 0.2,2.1 0.2,1.8 0.2,3.8 -0.7,5.2 -0.4,0.9 -1.1,1.7 -2.2,2.2 -1.7,0.9 -2.4,-1.4 -2.7,-4.6 v -0.2 c -1.3,-5.2 -0.7,-11 -1.3,-16.5 0,-0.2 -0.1,-0.4 -0.2,-0.6 -3.2,-6.5 -4.8,-3.2 -5.3,2.8 v 0.1 c 0,3.1 0,6.3 0.3,9.4 0.2,1.8 0.5,3.6 0.7,5.5 0,0.1 0,0.2 0.1,0.3 v 0.5 c -0.1,0.4 -0.4,0.7 -0.7,0.8 -0.1,0.4 -0.5,0.3 -0.8,0 -0.2,-0.1 -0.4,-0.3 -0.4,-0.7 v -0.1 c -0.8,-1.9 -1.1,-4.9 -1.2,-8.2 -0.1,-1.7 -0.3,-3.4 -0.4,-5 -0.3,-2.5 -0.4,-5.1 -0.7,-7.6 -0.2,-1.4 -0.4,-2.8 -0.8,-4.2 0,-0.1 0,-0.1 -0.1,-0.2 l -0.4,-1 c -0.3,-0.3 -0.7,-0.6 -1.2,-0.7 -7.1,-2 -3,19.2 -1.9,26.2 0.3,1.8 -1.5,1.2 -1.7,0.8 v -0.1 c -0.4,0 -0.7,-0.3 -0.9,-0.7 -1.5,-3.8 -3.1,-7.5 -4.5,-11.4 -0.6,-1.6 -1.1,-3.3 -1.8,-4.8 0,-0.1 -0.1,-0.2 -0.1,-0.3 -0.7,-1 -1.4,-1.8 -2.1,-2.3 h -0.1 c -0.2,0 -0.4,-0.1 -0.5,-0.1 -0.3,0 -0.6,0.1 -0.9,0.2 -0.1,0 -0.2,0 -0.3,0.1 -0.6,0.2 -1.1,0.6 -1.2,1.3 -1,5.5 6.3,21.8 6.9,25.6 -0.9,-2.4 -3.5,-11.4 -8,-9.2 -3.5,1.7 0.6,7 0.8,8.6 1.5,10.4 3.6,19.3 10.6,27.4 4.2,5 3.1,13.4 2.7,19.9 -0.2,3.1 -1.5,24.4 -6,25.8 -5.5,1.8 -17.7,-13.7 -20.7,-16.9 -4,-4.2 -4.8,-4.5 -5,-10.1 -0.2,-6.3 2,-4.6 -0.2,-11.1 -3.1,-9.3 -6.8,-18.2 -18,-17.6 -4.4,0.2 -3.9,3.1 -8.7,2.1 -2.7,-0.6 -4.4,-2.9 -6.8,-4.4 -0.5,-0.3 -1.2,-0.3 -1.8,0.1 -1.4,1 -2.8,1.9 -4.3,2.6 -1.8,0.9 -3.4,1.9 -5.5,1.8 -0.4,0 -0.8,0 -1.3,-0.1 -4.7,-0.6 -9.5,-4.2 -10.3,-9 -0.2,-1.3 1.8,-1.9 2,-0.6 0.4,2.1 1.6,3.9 3.3,5.2 0.1,0 0.1,0.1 0.2,0.1 1.7,1.1 3.6,1.9 5.7,2.2 h 0.6 c 1.9,0.1 3.8,-1.2 5.4,-2.1 l 2.4,-1.5 h -0.1 c 4.7,-3.5 10.9,-11.7 11.8,-17.5 0.4,-2.5 -1.9,-7 -1.8,-8 0,-0.2 0.1,-0.4 0.2,-0.6 -0.2,-0.6 -0.5,-1.2 -0.6,-1.8 -1.5,-5.3 -0.8,-9.8 -6.8,-12 -0.8,-0.3 -1.3,-1.1 -1.1,-1.9 1.7,-6 -4.7,-5.3 -8.5,-5.6 -0.9,-0.1 -1.5,-0.7 -1.6,-1.6 -0.4,-3.2 -1.9,-6.7 -1.6,-10 0.3,-3.4 2,-6.1 1.8,-9.7 -0.3,-8.1 -2.7,-15.8 -8,-22.1 -5.7,-6.8 -12.7,-10 -21.4,-10.2 -3,0 -4.4,-1.3 -7.1,-2.1 -4.8,-1.4 -10.1,0 -13.8,3.1 -0.8,0.7 -2.4,0.6 -2.6,-0.7 -0.5,-3.1 -1.1,-5.7 -4.7,-5.6 -3.7,0.2 -5.6,3.4 -6,6.6 -0.6,5.1 2,9.1 2.2,14 0,0.7 -0.5,1.3 -1.2,1.5 -2.3,0.7 -2.4,7.6 -2.3,9.4 0.2,3.1 1.6,6.2 2.4,9.2 1.4,4.8 3.1,11 -0.1,15.4 -1.7,2.4 -5.5,2.7 -6.3,5.6 -0.5,1.9 0.2,3.2 -1,4.6 v 0.1 c -0.2,0.3 -0.4,0.5 -0.6,0.7 l -0.1,0.1 c -0.1,0.1 -0.2,0.1 -0.2,0.2 -2.8,2.4 -7.2,3.1 -11.1,3.2 -1.3,0.2 -2.9,0.4 -4.2,0 -0.1,0 -0.3,-0.1 -0.4,-0.2 h -0.1 c 0,0 -0.1,0 -0.1,-0.1 -1.9,-0.9 -4,-3.4 -5.8,-4.2 -3.7,-1.7 -6.4,-1.1 -10.2,-1.6 -5.7,-0.8 -11.5,0.3 -17.8,-1.4 -2.8,-0.8 -10,-3.2 -12.1,-5.1 -5.7,-5 -3,-7.2 0.6,-14.2 4.8,-9.4 10.7,-17.9 16.9,-26.7 2.8,-4 4.5,-8.1 8.4,-11.1 5.9,-4.4 12.6,-5.4 16,-13.3 2.2,-5.2 0.3,-12.2 3.6,-16.9 2.1,-3 9.6,-6.2 12.7,-8.1 12.6,-7.8 25.2,-15.5 37.9,-23.2 12.1,-7.1 22.1,-14.6 33.6,-22 9.8,-6.3 23,-14.7 35.1,-13.6 7.1,1.7 14.4,3.2 21.6,2.2 6.8,-0.9 12.6,-4.5 18.1,-8.4 11.1,-7.9 20.7,-18.3 23.4,-32 0.4,-2 -2.6,-2.8 -3,-0.8 -2.6,12.9 -11.5,22.7 -22,30.2 -5.1,3.6 -10.4,7 -16.7,7.9 -4.8,0.7 -9.6,0.3 -14.3,-0.6 19.4,-3 36.7,-20.8 41.6,-39.1 0.5,-2 -2.5,-2.8 -3,-0.8 C 388.1,27 368,46 346.9,44.8 h -0.2 c -0.1,-0.1 -0.1,-0.3 -0.2,-0.4 7.2,-3.1 14.1,-8.8 20,-13.4 6.8,-5.2 12.5,-11.7 14.3,-20.3 0.4,-2 -2.6,-2.8 -3,-0.8 -1.9,9.2 -8.5,15.3 -15.8,20.6 -4.9,3.6 -10.3,8 -16.1,10.7 -1.4,0.6 -2.8,1.1 -4,1.6 l -0.9,0.3 c -0.3,0.1 -0.5,0.2 -0.6,0.3 -2.9,1.1 -5.9,2.1 -10.4,3.8 -37.5,14.1 -71.9,39.9 -106,61.4 -0.8,0.5 -1.9,0.2 -2.3,-0.6 -2,-4.4 -9.3,-3.1 -11.2,2.3 -0.3,1 -1.5,1.4 -2.4,0.8 -3.1,-2.1 -2.6,1.8 -5.3,3.2 -3.5,1.8 -4.8,-1 -6.6,3.9 -2.7,7.2 2.5,3.9 -3.3,10 -3.2,3.4 -9.3,5.9 -13.3,8.4 -18.9,12 -37.9,24 -56.8,36 -0.7,0.5 -1,1.4 -0.5,2.1 1,1.7 2.2,3.3 3.3,5 0.6,0.9 1.8,1 2.5,0.2 l 0.2,-0.2 c 4.9,-5.8 16.1,-10.2 22.6,-14.3 9.2,-5.8 18.4,-11.7 27.6,-17.5 1.6,-1 3.3,1.2 1.9,2.5 l -0.1,0.1 c -5.9,5.8 -11.1,12.3 -16.7,18.4 -7,7.6 -23.7,24.6 -18.6,36.1 3.1,6.9 17.9,17.6 24,21.9 7.3,5.2 13.9,8.7 22.2,10.8 0.4,0.1 0.7,0 1.1,-0.1 0.9,-0.4 1.9,-0.8 2.9,-1 h 0.1 c 4,-0.9 8.7,-0.5 12.1,0.4 7.8,1.8 10.7,9.8 14.5,16 4.8,7.5 7,15.1 8.1,23.8 1.3,10.3 4.9,20.2 6.3,30.6 1.1,8.5 1.9,17.1 2.8,25.6 0.1,0.2 0.1,0.4 0.1,0.6 v 0.7 c 0.1,1.1 0.2,2.3 0.4,3.4 0,0.4 0.1,0.8 0.1,1.2 h -0.1 c 0,1.8 -2.7,2.5 -3.1,0.6 -0.3,-1.9 -0.5,-3.9 -0.5,-5.9 v -0.1 c -0.2,-1.7 -0.5,-3.4 -0.7,-5 -1.1,-10.7 -2,-21.5 -4.2,-32.1 -0.9,-4.3 -2.3,-8.5 -3.4,-12.8 -1.1,-4.8 -1.1,-9.7 -2.2,-14.5 -2.1,-8.5 -7.3,-16 -11.8,-23.3 -2.7,-4.3 -6.1,-5.8 -11,-6.2 -2.3,-0.2 -5.2,-0.3 -7.7,0.3 -0.1,0.1 -0.2,0.1 -0.4,0.1 -0.4,0.1 -0.8,0.2 -1.1,0.5 -0.3,0.5 -0.7,0.9 -1.1,1.2 h -0.1 c -0.4,0.3 -0.9,0.7 -1.4,0.9 -1,0.9 -1.8,1.7 1.4,-0.9 -8.3,6.7 -12.9,11.5 -16.8,19.7 -0.1,0.1 -0.1,0.3 -0.1,0.5 -0.1,0.4 -0.1,0.7 -0.2,1.1 0,0.1 0,0.1 -0.1,0.2 0,0.2 -0.1,0.5 -0.2,0.7 -2.9,5.8 -7.7,11.3 -12.1,16 -2.4,2.5 -5.3,4.5 -7.7,7.1 -2.8,3.1 -5,6.7 -7.4,10.2 -4.8,7.1 -9.7,14 -14.7,20.9 -2.1,2.9 -4.2,6.1 -6.9,8.4 l -0.1,0.1 c -3.4,3.9 -9.1,7.4 -12.1,10 -11.7,9.8 -23,18.4 -33.6,29.4 -9.6,9.9 -12.9,19.4 -27.8,22.5 -14.3,2.9 -14.4,11.3 -1.5,17.7 6.7,3.3 15.2,5.1 22.6,4.3 7.1,-0.7 10.2,-4.7 15.1,-8 1,-0.7 2.4,-0.1 2.5,1.1 0.6,6.5 19.3,1.6 21.9,0.1 13.3,-7.6 4.3,-20.4 6.6,-31.4 1.8,-8.5 13.4,-15.4 19.8,-20.6 11.7,-9.6 25.5,-17 37.5,-26.3 v 0.3 c 0,-0.7 1.3,-1.2 2.4,-1.6 0.1,0 0,-0.1 0.2,-0.1 5.6,-4 9.8,-8.7 13.5,-15.1 4.4,-7.8 8,-16.6 8.7,-25.6 0.2,-2 3.3,-2 3.1,0 -0.8,9.5 -4.6,18.9 -9.2,27.2 -4.7,8.3 -10.6,14.1 -18.7,18.8 -0.3,0.2 -0.5,0.2 -0.8,0.2 -0.1,4.3 -0.3,8.7 -0.3,13.2 0,0.1 -0.1,0.2 -0.1,0.4 v 1.9 c 0,0.2 0,0.3 -0.1,0.4 -1,3 0,8.3 1.1,12.7 0,-0.1 -0.1,-0.2 -0.1,-0.2 1.7,12.1 6.9,22.5 20.8,27.1 17.8,5.9 40.9,-0.6 58,-5.3 16.2,-4.5 54.9,13.5 56.6,-14 0.8,-13.8 -10.3,-14.3 -17.1,-22.4 -6.9,-8.2 3.8,-7.6 8.8,-12.8 2.9,-3.1 3.9,-7.1 7.6,-9.7 3.5,-2.5 8,-3.6 11.7,-5.7 10.3,-6 15.2,-4.5 25.3,2 15.9,10.3 34.9,27.5 55.7,24.7 19.7,-2.6 8.7,-42.2 8.4,-55.4 -0.4,-13.5 2.4,-26.3 2.9,-39.7 0,-2.7 0,-5.4 -0.2,-8.1 v -0.1 c -0.2,-1.8 -0.4,-3.6 0.8,-4.9 0.2,-0.2 0.3,-0.4 0.3,-0.6 0.6,-1.9 1.6,-3.7 1.9,-5.8 0,-1.6 -0.1,-3.1 -0.1,-4.7 z"
       id="path37"
       inkscape:connector-curvature="0"
       style="fill:#871515" />
  </g>
  <text
     xml:space="preserve"
     style="font-style:normal;font-variant:normal;font-weight:normal;font-stretch:normal;font-size:118.36935425px;line-height:1em;font-family:Cinzel, serif;-inkscape-font-specification:'sans-serif, Normal';font-variant-ligatures:normal;font-variant-caps:normal;font-variant-numeric:normal;font-feature-settings:normal;text-align:start;letter-spacing:0px;word-spacing:0px;writing-mode:lr-tb;text-anchor:start;fill:#87151f;fill-opacity:0.94117647;stroke:none;stroke-width:0.98641127"
     x="536.60773"
     y="169.00749"
     id="text38"
     transform="scale(1.0137759,0.98641129)"><tspan
       sodipodi:role="line"
       id="tspan36"
       x="536.60773"
       y="169.00749"
       style="stroke-width:0.98641127">The</tspan><tspan
       sodipodi:role="line"
       x="536.60773"
       y="290.3017"
       id="tspan42"
       style="stroke-width:0.98641127">Village</tspan><tspan
       sodipodi:role="line"
       x="536.60773"
       y="411.59589"
       id="tspan46"
       style="stroke-width:0.98641127">Maid</tspan></text>
</svg>
